<svg width="68" height="67" viewBox="0 0 68 67" fill="none" xmlns="http://www.w3.org/2000/svg">
<path d="M28.3237 50.6943L26.8696 63.7286H43.7302L41.5349 50.6943H28.3237Z" fill="url(#paint0_linear_21_1017)"/>
<path d="M0 18.5803V48.431C0 50.8864 1.95606 52.8945 4.41153 52.9595C15.3129 53.2405 53.4482 53.922 63.8267 53.7685C65.6111 53.7425 67.0547 52.3144 67.1068 50.5301C67.3071 43.5954 67.6322 26.9195 66.4305 19.1785C66.1756 17.5476 64.7996 16.3303 63.1504 16.2757C54.0152 15.9843 13.591 15.0557 3.21761 15.2898C1.42803 15.3289 0 16.7907 0 18.5803Z" fill="url(#paint1_linear_21_1017)"/>
<path d="M1.87305 18.4345V46.7947C1.87305 48.2305 3.02275 49.3984 4.45598 49.4192L62.3339 50.1345C63.7541 50.1554 64.9194 49.0109 64.9246 47.5906L65.0209 19.4827C65.0261 18.4657 64.2171 17.6333 63.2001 17.6099L3.94615 16.4134C2.80946 16.3848 1.87305 17.2978 1.87305 18.4345Z" fill="#91B3FA"/>
<path d="M65.3611 51.305C65.3594 51.305 65.3585 51.305 65.3585 51.305L1.8699 50.2229C1.82047 50.2229 1.78146 50.1813 1.78406 50.1319C1.78406 50.0851 1.82307 50.0461 1.8725 50.0461L65.3611 51.1281C65.4105 51.1281 65.4495 51.1671 65.4495 51.2166C65.4495 51.266 65.4079 51.305 65.3611 51.305Z" fill="#91B3FA"/>
<path d="M47.3613 66.3943H22.6843C22.0132 66.3943 21.5112 65.9157 21.6412 65.4033L21.9559 64.1521C22.0522 63.775 22.4658 63.4992 22.9574 63.4836L46.7474 62.7397C47.2624 62.7241 47.7176 62.9972 47.8295 63.39L48.3991 65.3825C48.55 65.9027 48.0428 66.3943 47.3613 66.3943Z" fill="url(#paint2_linear_21_1017)"/>
<path d="M35.9688 63.8291C35.922 63.8291 35.8804 63.7901 35.8804 63.7433C35.8804 63.6939 35.9194 63.6523 35.9688 63.6523L36.9885 63.6367C37.0353 63.6367 37.0769 63.6757 37.0769 63.7251C37.0795 63.7745 37.0379 63.8135 36.9911 63.8161L35.9714 63.8291C35.9697 63.8291 35.9688 63.8291 35.9688 63.8291Z" fill="#91B3FA"/>
<path d="M22.5544 65.7125C22.5492 65.7125 22.544 65.7117 22.5388 65.7099C22.492 65.7021 22.4582 65.6579 22.466 65.6085L22.6116 64.6981C22.6897 64.2039 23.111 63.8397 23.6105 63.8345L34.4234 63.6758C34.4676 63.6732 34.5118 63.7149 34.5118 63.7617C34.5144 63.8111 34.4754 63.8527 34.426 63.8527L23.6131 64.0114C23.1995 64.0166 22.8535 64.3183 22.7885 64.7267L22.6428 65.6371C22.635 65.6813 22.596 65.7125 22.5544 65.7125Z" fill="#91B3FA"/>
<path d="M56.7805 46.6126H4.59901C4.12301 46.6126 3.73804 46.2277 3.73804 45.7517V19.5504C3.73804 19.0744 4.12301 18.6868 4.59901 18.6868H56.7805C57.2565 18.6868 57.6414 19.0744 57.6414 19.5504V45.7517C57.6414 46.2277 57.2565 46.6126 56.7805 46.6126Z" fill="#BDD0FB"/>
<path d="M35.141 10.041L34.6936 13.8672C34.6598 14.1664 35.024 14.3406 35.2346 14.1221L39.178 10.041H35.141Z" fill="#7D97F4"/>
<path d="M56.395 11.0917H32.3813C31.7362 11.0917 31.2134 10.5689 31.2134 9.9238V1.16837C31.2134 0.510279 31.7544 -0.0177508 32.4125 0.000457145L56.4236 0.622128C57.0583 0.640336 57.5655 1.15796 57.5655 1.79264V9.9238C57.5655 10.5689 57.0401 11.0917 56.395 11.0917Z" fill="#7D97F4"/>
<path opacity="0.7" d="M55.6329 10.5455H33.0003C32.3917 10.5455 31.8975 10.0851 31.8975 9.52063V1.85247C31.8975 1.27502 32.4099 0.812016 33.029 0.827623L55.6615 1.37386C56.2597 1.38947 56.7357 1.84207 56.7357 2.39871V9.52063C56.7357 10.0851 56.2415 10.5455 55.6329 10.5455Z" fill="white"/>
<path opacity="0.7" d="M54.5742 3.23884H33.9498C33.9186 3.23884 33.8926 3.21283 33.8926 3.18161V2.68219C33.8926 2.65098 33.9186 2.62497 33.9498 2.62497H54.5742C54.608 2.62497 54.6341 2.65098 54.6341 2.68219V3.18161C54.6341 3.21283 54.608 3.23884 54.5742 3.23884Z" fill="white"/>
<path opacity="0.7" d="M54.5742 9.17981H33.9498C33.9186 9.17981 33.8926 9.1538 33.8926 9.11998V8.62056C33.8926 8.58935 33.9186 8.56334 33.9498 8.56334H54.5742C54.608 8.56334 54.6341 8.58935 54.6341 8.62056V9.11998C54.6341 9.1538 54.608 9.17981 54.5742 9.17981Z" fill="white"/>
<path opacity="0.7" d="M47.9517 7.26025H33.9498C33.9186 7.26025 33.8926 7.23424 33.8926 7.20303V6.70361C33.8926 6.6698 33.9186 6.64378 33.9498 6.64378H47.9517C47.9829 6.64378 48.009 6.6698 48.009 6.70361V7.20303C48.009 7.23424 47.9829 7.26025 47.9517 7.26025Z" fill="white"/>
<path opacity="0.7" d="M42.6506 5.2705H33.9498C33.9186 5.2705 33.8926 5.24449 33.8926 5.21327V4.71386C33.8926 4.68264 33.9186 4.65663 33.9498 4.65663H42.6506C42.6844 4.65663 42.7104 4.68264 42.7104 4.71386V5.21327C42.7104 5.24449 42.6844 5.2705 42.6506 5.2705Z" fill="white"/>
<path opacity="0.7" d="M54.5746 7.26025H48.8911C48.8573 7.26025 48.8313 7.23424 48.8313 7.20303V6.70361C48.8313 6.6698 48.8573 6.64378 48.8911 6.64378H54.5746C54.6084 6.64378 54.6344 6.6698 54.6344 6.70361V7.20303C54.6344 7.23424 54.6084 7.26025 54.5746 7.26025Z" fill="white"/>
<path opacity="0.7" d="M54.5742 5.2705H44.0006C43.9694 5.2705 43.9434 5.24449 43.9434 5.21327V4.71386C43.9434 4.68264 43.9694 4.65663 44.0006 4.65663H54.5742C54.608 4.65663 54.634 4.68264 54.634 4.71386V5.21327C54.634 5.24449 54.608 5.2705 54.5742 5.2705Z" fill="white"/>
<path d="M39.4206 26.9355C39.3658 26.8989 39.3293 26.8259 39.2867 26.765C39.2075 26.6371 39.1405 26.497 39.0492 26.3752C38.9517 26.2534 38.8056 26.2534 38.6716 26.29C38.2453 26.4057 37.819 26.5336 37.3989 26.6553C37.2953 26.6858 37.1979 26.7284 37.0883 26.765C37.1126 26.6553 37.1553 26.564 37.1614 26.4666C37.1674 26.2412 36.9848 26.1012 36.7777 26.1986C36.455 26.3509 36.1139 26.4118 35.7729 26.4848C35.5963 26.5275 35.4441 26.6614 35.2857 26.7589C35.2736 26.765 35.2614 26.7771 35.2492 26.7832C34.8777 27.1486 34.4758 27.4592 33.946 27.5749C33.6841 27.6297 33.4345 27.7576 33.1787 27.855C33.13 27.8733 33.0813 27.8855 33.0204 27.8976C32.996 27.8185 32.9777 27.7515 32.9534 27.6845C32.8925 27.4896 32.8072 27.447 32.6063 27.4531C32.3688 27.4592 32.1313 27.447 31.8938 27.447C31.8024 27.447 31.7111 27.4531 31.6197 27.4653C31.5345 27.4775 31.4492 27.5079 31.364 27.5323C31.0473 27.6114 30.8646 27.5323 30.6758 27.2643C30.3713 26.8319 30.0669 26.3935 29.7441 25.9794C29.4944 25.6505 29.2143 25.3521 28.9463 25.0416C28.922 25.0172 28.8976 24.9868 28.8672 24.9746C28.5931 24.8711 28.4896 24.6275 28.38 24.3778C27.9111 23.3182 27.43 22.2647 26.9489 21.2112C26.7175 20.6996 26.3948 20.249 26.0233 19.8349C25.7858 19.5669 25.4935 19.3781 25.1646 19.2381C24.3303 18.8971 23.4595 18.7022 22.5948 18.4586C22.4791 18.4282 22.4243 18.3855 22.4365 18.2637C22.4365 18.2211 22.4364 18.1663 22.4304 18.1237C22.4243 17.9592 22.473 17.8496 22.6374 17.7644C22.9723 17.5878 23.1672 17.2894 23.2707 16.924C23.3804 16.516 23.4108 16.1019 23.4169 15.6817C23.4169 15.5964 23.4413 15.5112 23.4717 15.432C23.4778 15.4016 23.5204 15.3711 23.5509 15.365C23.831 15.3041 23.8614 15.2554 23.8005 14.9509C23.8188 14.9388 23.8371 14.9266 23.8493 14.9144C23.9406 14.8657 24.0076 14.7926 23.9711 14.6769C23.9345 14.5612 23.831 14.5307 23.7214 14.5429C23.5996 14.5612 23.5143 14.5307 23.4534 14.4272C23.4047 14.3541 23.3986 14.2993 23.4717 14.2384C23.557 14.1654 23.6422 14.0923 23.7092 14.007C23.8432 13.8426 23.8797 13.6477 23.9041 13.4346C23.9345 13.0692 23.9223 12.716 23.7092 12.3993C23.6909 12.375 23.6909 12.3445 23.6909 12.3202C23.7945 11.8269 23.7945 11.3336 23.7336 10.8404C23.7153 10.6881 23.6422 10.5785 23.4961 10.542C23.2038 10.4567 23.0271 10.2862 22.8688 10.0122C22.6313 9.59199 22.2598 9.2936 21.7361 9.2327C21.389 9.19007 21.048 9.08654 20.7131 9.00129C20.4817 8.94039 20.2624 8.95866 20.0371 9.03174C19.9275 9.06219 19.8118 9.05001 19.6961 9.0561C19.2881 9.06219 18.8801 9.06219 18.4721 9.08654C18.198 9.09872 17.9301 9.15962 17.656 9.19007C17.516 9.20834 17.4124 9.27533 17.3759 9.4093C17.2785 9.75641 17.2237 10.1096 17.2602 10.475C17.2602 10.4933 17.2663 10.5968 17.2785 10.6516C17.2379 10.68 17.1993 10.7064 17.1628 10.7308C16.566 11.1327 16.4868 11.7051 16.6147 12.3445C16.6695 12.5942 16.7365 12.8378 16.7913 13.0875C16.8096 13.1666 16.7852 13.258 16.7913 13.3433C16.8217 13.6599 16.9618 13.9279 17.1506 14.1654C17.315 14.3785 17.382 14.5612 17.3089 14.8413C17.1993 15.2493 17.4612 15.5538 17.7108 15.84C17.7535 15.8887 17.8083 15.9375 17.8144 15.9923C17.8265 16.0532 17.8022 16.1445 17.7596 16.175C17.7169 16.2054 17.6256 16.1932 17.5708 16.175C17.5099 16.1506 17.4612 16.0714 17.4064 16.0593C17.315 16.0532 17.1932 16.0471 17.1384 16.1019C17.0897 16.1506 17.0836 16.2846 17.114 16.3637C17.1445 16.449 17.2419 16.516 17.315 16.6012C17.2541 16.9727 17.4672 17.2163 17.8692 17.2102C17.8996 17.2102 17.9422 17.2285 17.9605 17.2528C18.1371 17.4964 18.265 17.5208 18.5086 17.3625C18.5208 17.3564 18.5329 17.3503 18.5634 17.332C18.5634 17.4112 18.5695 17.4782 18.5634 17.5391C18.539 17.8375 18.5086 18.1298 18.4903 18.4282C18.4842 18.5256 18.4416 18.5682 18.3563 18.6108C17.4794 19.0371 16.6025 19.4756 15.7256 19.9019C15.4576 20.0297 15.2932 20.2368 15.1958 20.5108C15.1349 20.6692 15.0375 20.8092 14.9461 20.9493C14.7817 21.2294 14.5807 21.4913 14.4407 21.7836C14.057 22.5813 13.8804 23.44 13.7038 24.2986C13.582 24.8832 13.4298 25.4679 13.2593 26.0403C13.1801 26.3082 13.0522 26.5762 12.9 26.8198C12.4859 27.4896 12.1388 28.19 11.8343 28.9085C11.682 29.2739 11.5237 29.3774 11.134 29.3348C10.9086 29.3105 10.6955 29.3348 10.4763 29.414C10.3301 29.4688 10.1718 29.481 10.0195 29.4932C9.73941 29.5175 9.67242 29.5723 9.64807 29.8585C9.64198 29.9012 9.63589 29.9499 9.6298 30.023C9.41057 29.9864 9.20961 29.9621 9.00256 29.9316C8.7407 29.889 8.48493 29.8464 8.22307 29.7976C8.0891 29.7672 7.94904 29.7306 7.82724 29.6698C7.57757 29.5419 7.34616 29.3957 7.10257 29.2557C6.81026 29.0851 6.49969 29.0303 6.16475 29.1278C5.89072 29.2069 5.61059 29.2496 5.33655 29.3287C5.2513 29.3531 5.17822 29.4383 5.09297 29.481C5.04425 29.5114 4.98335 29.5419 4.92854 29.5358C4.56316 29.5175 4.20387 29.4871 3.84458 29.4749C3.51573 29.4627 3.4731 29.5297 3.34522 29.8342C3.27823 29.9864 3.29041 30.1752 3.13208 30.3031C2.99811 30.4188 3.059 30.5406 3.25387 30.6563C3.29041 30.6867 3.33913 30.705 3.38176 30.7233C3.33304 30.912 3.33913 30.9425 3.52791 31.0156C3.85067 31.1313 4.17342 31.2409 4.49617 31.3322C5.09906 31.5088 5.71412 31.6611 6.31091 31.8438C6.82853 31.996 7.34616 32.0691 7.88205 32.0935C8.31442 32.1178 8.7407 32.1787 9.14871 32.3553C9.25832 32.404 9.3923 32.404 9.51409 32.4406C9.5689 32.4588 9.6298 32.5136 9.65416 32.5685C9.90383 33.1287 10.2327 33.6341 10.5798 34.1335C10.6285 34.2005 10.6833 34.2553 10.732 34.3101C10.8234 34.4015 10.9147 34.4563 11.0304 34.3223C11.1827 34.4806 11.3471 34.4441 11.5176 34.3649C11.7064 34.2797 11.9013 34.2005 12.0779 34.0909C12.1753 34.03 12.2484 33.9143 12.3154 33.8168C12.5163 33.5063 12.7964 33.3053 13.1557 33.2018C13.5698 33.0739 13.8987 32.7999 14.2093 32.5136C14.6355 32.1178 14.9766 31.655 15.2932 31.1739C15.3298 31.1191 15.3663 31.0643 15.4333 30.9669C15.4394 31.0765 15.4516 31.1435 15.4516 31.2165C15.4637 31.9351 15.482 32.6537 15.4881 33.3784C15.4881 33.5793 15.4394 33.7864 15.4333 33.9874C15.4333 34.4075 15.4272 34.8216 15.4576 35.2418C15.5064 35.863 15.4881 36.478 15.4333 37.0931C15.3602 37.8421 15.3176 38.5912 15.2445 39.3341C15.1775 40.0162 15.0801 40.6982 15.0131 41.3803C14.9705 41.7761 14.9826 42.178 15.1166 42.5677C15.1593 42.6895 15.2323 42.8113 15.3115 42.9149C15.4028 43.0245 15.5064 42.994 15.5429 42.854C15.5612 42.8052 15.5612 42.7565 15.5733 42.7078C15.5794 42.6652 15.5855 42.6226 15.5977 42.5495C15.6769 43.7857 15.8717 44.9732 16.1336 46.1546C16.2493 46.6905 16.3894 47.2264 16.4929 47.7623C16.5538 48.0728 16.5477 48.3956 16.5964 48.7062C16.6817 49.2055 17.1384 49.5039 17.6439 49.5039C18.064 49.5039 18.4842 49.4248 18.9044 49.5161C19.2333 49.5892 19.5865 49.5405 19.9214 49.5892C20.5547 49.6805 21.1759 49.6318 21.8031 49.5648C21.8701 49.5587 21.9371 49.5526 22.0041 49.5587C22.2598 49.577 22.4365 49.4674 22.5582 49.2542C22.6374 49.1142 22.7288 48.9802 22.8262 48.8158C22.8505 48.8889 22.8688 48.9376 22.881 48.9802C22.9845 49.376 23.1489 49.5039 23.5509 49.5344C24.1172 49.577 24.6835 49.5709 25.2438 49.4978C25.6335 49.4491 26.0172 49.4674 26.4069 49.5161C26.6444 49.5465 26.8941 49.4978 27.1316 49.4856C27.3184 49.4775 27.5071 49.4755 27.698 49.4796C27.7649 49.4796 27.8319 49.4978 27.8989 49.4978C28.1181 49.51 28.173 49.4674 28.2338 49.2542C28.6601 47.7135 28.9098 46.1485 28.9098 44.5408C28.9098 43.9318 28.9098 43.329 28.9098 42.7017C29.0925 42.6895 29.2813 42.6774 29.4701 42.6652C29.604 42.653 29.738 42.6408 29.872 42.6165C30.2191 42.5373 30.3287 42.3729 30.2739 42.0258C30.146 41.2463 29.9877 40.4729 29.738 39.7239C29.397 38.6642 29.0194 37.6107 28.7149 36.5389C28.4226 35.5159 28.1912 34.4745 27.9476 33.4332C27.7954 32.7694 27.6675 32.0935 27.5335 31.4175C27.4848 31.1739 27.4605 30.9181 27.43 30.6685C27.4239 30.6197 27.4178 30.5771 27.4117 30.498C27.497 30.5528 27.5579 30.5893 27.6127 30.6319C28.0146 30.979 28.5079 31.1374 29.0012 31.2896C29.062 31.3079 29.129 31.314 29.1838 31.3444C29.5858 31.5454 30.012 31.6854 30.4566 31.7463C30.688 31.7829 30.8768 31.929 31.0412 32.0935C31.3457 32.404 31.7354 32.5076 32.1495 32.5563C32.18 32.5563 32.2165 32.5563 32.247 32.5441C32.3627 32.4954 32.454 32.3979 32.6063 32.4345C32.6489 32.4467 32.7402 32.331 32.7768 32.2518C32.9229 31.9351 33.0752 31.6185 33.197 31.2896C33.3066 31.0034 33.3797 30.6928 33.471 30.4005C33.4893 30.3457 33.538 30.2909 33.5867 30.2665C34.2322 29.9316 34.8899 29.6454 35.6085 29.4932C35.9008 29.4323 36.1809 29.2922 36.4489 29.1643C37.204 28.805 37.9591 28.4335 38.7081 28.056C38.8848 27.9646 39.0553 27.8489 39.2319 27.7393C39.3354 27.6723 39.4206 27.5871 39.2867 27.4653C39.3537 27.4044 39.4146 27.3496 39.4694 27.2887C39.5851 27.1547 39.5607 27.0451 39.4206 26.9355Z" fill="#F2AE6F"/>
<path d="M31.5935 27.5754C31.4899 27.5936 31.3864 27.6302 31.2829 27.6484C31.0149 27.6911 30.7896 27.618 30.6374 27.3866C30.1502 26.6436 29.6204 25.9433 29.0175 25.2978C28.9079 25.1821 28.8166 25.0725 28.6521 25.0055C28.5425 24.9629 28.4451 24.8289 28.3903 24.7132C28.1711 24.2565 27.9762 23.7936 27.7691 23.3308C27.4646 22.6366 27.1602 21.9485 26.8496 21.2603C26.6243 20.7549 26.3015 20.3042 25.9361 19.8901C25.7169 19.6466 25.449 19.4639 25.1445 19.336C24.298 18.9767 23.4028 18.7757 22.5198 18.526C22.5076 18.52 22.4954 18.52 22.4406 18.52C22.4954 18.6905 22.5381 18.8427 22.5929 18.995C22.6294 19.0924 22.6842 19.1776 22.7208 19.2751C22.9095 19.7562 22.7938 20.1398 22.3858 20.4626C22.3249 20.5113 22.2823 20.5965 22.2579 20.6696C22.1483 20.9985 22.057 21.3334 21.9535 21.6622C21.9413 21.6988 21.923 21.7353 21.8987 21.7658C21.8256 21.8632 21.7403 21.8632 21.6855 21.7536C21.6185 21.6196 21.5698 21.4735 21.515 21.3334C21.4582 21.1832 21.3993 21.033 21.3384 20.8828C21.2897 20.761 21.1983 20.6879 21.0644 20.6696C20.9243 20.6514 20.7782 20.6514 20.6381 20.6148C19.8221 20.3895 19.1218 19.9815 18.6772 19.2264C18.5737 19.0559 18.5189 18.8671 18.4336 18.6661C18.1657 18.7879 17.8673 18.9097 17.5811 19.0498C16.9843 19.3542 16.3875 19.6648 15.7907 19.9693C15.541 20.0972 15.3766 20.2799 15.2852 20.5478C15.2487 20.6757 15.1939 20.8097 15.1025 20.9071C14.6093 21.4613 14.3535 22.1372 14.1586 22.8315C13.976 23.4648 13.8663 24.1225 13.708 24.7619C13.574 25.2978 13.4218 25.8276 13.2574 26.3513C13.2026 26.534 13.0929 26.7045 12.9894 26.8689C12.5753 27.5205 12.2404 28.2087 11.9359 28.9212C11.7471 29.3657 11.5705 29.4753 11.0772 29.4388C10.925 29.4266 10.7728 29.4388 10.6205 29.4449C10.6083 29.4652 10.5962 29.4875 10.584 29.5119C10.8398 29.9016 11.1077 30.2853 11.3391 30.6872C11.4426 30.8577 11.467 31.0769 11.5218 31.2779C11.5583 31.4058 11.5705 31.5458 11.6253 31.6676C11.7228 31.8625 11.8019 32.0614 11.8628 32.2644C11.9663 32.6176 12.009 32.9891 11.9846 33.3788C11.9724 33.5433 12.0212 33.7199 12.0455 33.8904C12.0618 33.8944 12.078 33.8985 12.0942 33.9026C12.1429 33.8417 12.1978 33.7929 12.2404 33.732C12.4474 33.4154 12.7276 33.2083 13.0929 33.1048C13.4888 32.9891 13.7993 32.7333 14.0917 32.4715C14.2987 32.2888 14.4875 32.0878 14.6519 31.8686C15.0477 31.3266 15.4253 30.7724 15.8029 30.2183C15.9795 29.9625 16.1256 29.6885 16.2839 29.4205C16.7102 28.708 16.8564 27.9346 16.8442 27.1125C16.8259 26.0773 16.6311 25.0786 16.29 24.1042C16.1378 23.6658 15.9916 23.2273 15.8394 22.7828C15.8211 22.734 15.815 22.6914 15.8272 22.6305C15.8455 22.661 15.8698 22.6914 15.882 22.7219C15.9348 22.8558 15.9856 22.9878 16.0343 23.1177C16.357 23.9702 16.6737 24.8167 16.8198 25.718C16.966 26.6132 17.0452 27.5145 16.8138 28.4157C16.692 28.909 16.4606 29.3535 16.1865 29.7737C16.1622 29.8103 16.1378 29.8773 16.15 29.9138C16.3936 30.5471 16.357 31.2109 16.3327 31.8625C16.3144 32.374 16.3205 32.8734 16.4179 33.3788C16.5458 34.0426 16.5397 34.7247 16.4545 35.4006C16.3388 36.2958 16.29 37.191 16.4301 38.0923C16.4971 38.5003 16.3997 38.8961 16.3327 39.298C16.3083 39.4746 16.2839 39.6512 16.2718 39.8339C16.2596 40.0532 16.2535 40.2663 16.1439 40.4673C16.1073 40.5221 16.1013 40.6012 16.1073 40.6682C16.15 41.332 16.2048 42.0019 16.2413 42.6656C16.2535 42.8057 16.3083 42.8727 16.4362 42.891C16.5763 42.9092 16.7163 42.9397 16.8564 42.9336C17.6785 42.897 18.5067 42.8422 19.3288 42.8118C19.4303 42.8118 19.5298 42.8098 19.6272 42.8057C20.6381 42.7874 21.6429 42.8179 22.6538 42.8118C23.4394 42.8057 24.231 42.7874 25.0166 42.7448C25.9057 42.6961 26.7704 42.4769 27.623 42.2455C28.3537 42.0445 29.0845 41.9105 29.8457 41.9897C29.9432 41.9958 30.0467 41.9897 30.1746 41.9897C30.0832 41.5512 30.0223 41.1432 29.9066 40.7474C29.5412 39.5294 29.1759 38.3115 28.7739 37.1118C28.4329 36.0948 28.2137 35.0535 27.9701 34.0122C27.7935 33.2388 27.5986 32.4593 27.4646 31.6737C27.3185 30.7907 27.2515 29.8955 27.3063 29.0003C27.3307 28.6289 27.288 28.2574 27.2759 27.892C27.2759 27.8555 27.2759 27.825 27.2759 27.7946C27.288 27.7905 27.3002 27.7865 27.3124 27.7824C27.3307 27.8311 27.3611 27.8798 27.3611 27.9286C27.3794 28.3 27.3916 28.6654 27.4037 29.0369C27.4098 29.4449 27.4038 29.8468 27.4159 30.2487C27.4159 30.3218 27.4707 30.401 27.5255 30.4497C27.5458 30.47 27.5682 30.4883 27.5925 30.5045C28.0188 30.8577 28.5303 31.0708 29.0602 31.2109C29.2794 31.2718 29.4743 31.3692 29.6813 31.4484C29.8396 31.5032 30.0041 31.558 30.1746 31.5763C30.546 31.6189 30.8627 31.759 31.1307 32.0269C31.2342 32.1244 31.356 32.1974 31.4839 32.2705C31.4169 31.9051 31.5265 31.5641 31.5752 31.2231C31.5752 31.2231 31.5752 31.2211 31.5752 31.217C31.5996 31.0526 31.6117 30.876 31.5935 30.7115C31.5326 30.1087 31.5143 29.5058 31.7396 28.9273C31.7579 28.8785 31.7701 28.8298 31.7701 28.7811C31.7944 28.3731 31.764 27.9529 31.9589 27.5266C31.8127 27.5449 31.7031 27.551 31.5935 27.5754Z" fill="#EFC8AB"/>
<path d="M28.8175 44.5585C28.8053 46.1175 28.5678 47.6521 28.1476 49.1563C28.0806 49.412 28.0563 49.4181 27.7822 49.3938C27.563 49.3694 27.3316 49.3572 27.1185 49.3877C26.8444 49.4242 26.5765 49.4364 26.3024 49.4059C26.0528 49.3755 25.7909 49.3572 25.5351 49.3755C24.8957 49.4242 24.2563 49.4912 23.6108 49.4364C23.2271 49.4059 23.0566 49.2781 22.9409 48.9066C22.8983 48.7665 22.9105 48.6447 22.9653 48.4986C23.0871 48.1819 23.2028 47.8592 23.2759 47.5303C23.4951 46.5803 23.696 45.6303 23.9031 44.6803C23.9153 44.6377 23.9092 44.589 23.9153 44.5464C23.9031 44.5423 23.8889 44.5382 23.8726 44.5342C23.8544 44.5829 23.83 44.6316 23.8178 44.6864C23.623 45.5329 23.4159 46.3854 23.2393 47.2319C23.0871 47.9444 22.8618 48.6143 22.4537 49.2172C22.3502 49.3755 22.2223 49.4607 22.0336 49.4547C21.9361 49.4486 21.8387 49.4486 21.7412 49.4668C20.8643 49.6191 19.9935 49.4547 19.1166 49.4486C19.0557 49.4486 18.9887 49.4486 18.9339 49.4242C18.5198 49.2841 18.0935 49.3816 17.6855 49.412C17.649 49.412 17.6104 49.41 17.5698 49.4059C17.174 49.3633 16.7051 49.004 16.6868 48.5899C16.6685 48.1454 16.6259 47.6886 16.5224 47.2563C16.2118 45.9957 15.9195 44.7291 15.7672 43.438C15.6637 42.555 15.6089 41.6781 15.9073 40.8195C15.9276 40.7545 15.9499 40.6916 15.9743 40.6307C16.0169 40.6977 16.0291 40.7586 16.0291 40.8195C16.0656 41.331 16.0961 41.8425 16.1387 42.3541C16.1631 42.6342 16.2057 42.9204 16.2544 43.2005C16.291 43.3832 16.4188 43.4928 16.6015 43.505C16.766 43.5233 16.9243 43.5294 17.0826 43.5294C17.7038 43.5172 18.3188 43.4867 18.94 43.4928C20.0909 43.4989 21.2358 43.5416 22.3868 43.5355C23.5194 43.5294 24.6582 43.4867 25.7787 43.2919C26.68 43.1396 27.5752 42.9387 28.4704 42.7682C28.8601 42.6951 28.8236 42.6159 28.8358 43.0666C28.854 43.5598 28.8175 44.0592 28.8175 44.5585Z" fill="#7280C4"/>
<path d="M23.7504 13.7271C23.7017 13.9342 23.5373 14.0986 23.3424 14.2447C23.3241 14.0073 23.312 13.7941 23.2815 13.5871C23.2754 13.5201 23.2572 13.4409 23.2145 13.3922C23.0318 13.173 22.7822 13.0451 22.5264 12.9416C21.8403 12.6574 21.1319 12.4706 20.4011 12.3813C20.1819 12.3509 19.9748 12.3874 19.8043 12.5153C19.1101 13.0451 18.4707 13.6175 18.2149 14.4883C17.88 14.129 17.7277 14.1047 17.405 14.4335C17.3075 14.2569 17.204 14.0864 17.1066 13.9159C17.0538 13.8225 17.003 13.7292 16.9543 13.6358C16.8386 13.3983 16.8508 13.1425 16.9726 12.905C17.0944 12.6675 17.1979 12.4239 17.3441 12.2047C17.5572 11.8941 17.7825 11.5896 18.0444 11.3156C18.2088 11.1329 18.4402 11.005 18.6473 10.8528C18.8848 10.6823 19.1588 10.5848 19.4511 10.6031C19.7008 10.6153 19.9687 10.6214 20.2001 10.7005C21.0222 10.9807 21.8383 11.2852 22.6543 11.5957C23.044 11.7419 23.3181 12.0403 23.5738 12.3569C23.6469 12.4422 23.6956 12.5457 23.7382 12.6492C23.7809 12.7406 23.8052 12.8319 23.8174 12.9233C23.854 13.1912 23.8052 13.4592 23.7504 13.7271Z" fill="#E28242"/>
<path d="M15.4803 42.3973C15.5351 42.105 15.5717 41.8188 15.6325 41.5387C15.6934 41.2646 15.7604 40.9906 15.8335 40.7165C15.864 40.6191 15.9005 40.5339 16.0101 40.4669C16.0893 40.4181 16.138 40.272 16.1502 40.1624C16.2233 39.6508 16.2902 39.1393 16.3329 38.6278C16.3572 38.3598 16.3511 38.0858 16.3085 37.8239C16.1989 37.1175 16.2415 36.405 16.3268 35.6986C16.4181 34.9191 16.4729 34.1336 16.3268 33.3602C16.2415 32.9035 16.2233 32.4528 16.2415 31.99C16.2598 31.5881 16.2598 31.1862 16.2354 30.7781C16.2233 30.5224 16.1441 30.2666 16.0954 30.0108C16.0893 29.9865 16.0771 29.9621 16.0649 29.9317C16.0406 29.9621 16.0162 29.9804 16.004 30.0047C15.8579 30.2544 15.7117 30.5041 15.5717 30.766C15.5412 30.8208 15.5168 30.8999 15.5229 30.9669C15.5412 31.789 15.5656 32.6111 15.5838 33.4333C15.5838 33.6403 15.5351 33.8474 15.529 34.0605C15.529 34.4381 15.5229 34.8156 15.5534 35.1932C15.6143 35.8509 15.5899 36.5086 15.5229 37.1602C15.4377 38.0493 15.3524 38.9323 15.2672 39.8214C15.2063 40.4973 15.1636 41.1672 15.1088 41.8431C15.0906 42.0563 15.2063 42.2024 15.3585 42.3242C15.3951 42.3486 15.4316 42.3669 15.4803 42.3973Z" fill="#EFC8AB"/>
<g style="mix-blend-mode:multiply" opacity="0.3">
<path d="M15.4815 42.3972C15.5363 42.1049 15.5729 41.8186 15.6338 41.5385C15.6947 41.2645 15.7617 40.9904 15.8347 40.7164C15.8652 40.619 15.9017 40.5337 16.0113 40.4667C16.0905 40.418 16.1392 40.2719 16.1514 40.1622C16.2245 39.6507 16.2915 39.1392 16.3341 38.6276C16.3584 38.3597 16.3524 38.0857 16.3097 37.8238C16.2001 37.1174 16.2427 36.4049 16.328 35.6985C16.4193 34.919 16.4741 34.1334 16.328 33.36C16.2427 32.9033 16.2245 32.4527 16.2427 31.9899C16.261 31.5879 16.261 31.186 16.2367 30.778C16.2245 30.5222 16.1453 30.2665 16.0966 30.0107C16.0905 29.9863 16.0783 29.962 16.0661 29.9315C16.0418 29.962 16.0174 29.9803 16.0052 30.0046C15.8591 30.2543 15.7129 30.504 15.5729 30.7658C15.5424 30.8206 15.5181 30.8998 15.5242 30.9668C15.5424 31.7889 15.5668 32.611 15.5851 33.4331C15.5851 33.6402 15.5363 33.8472 15.5302 34.0604C15.5302 34.4379 15.5242 34.8155 15.5546 35.193C15.6155 35.8507 15.5911 36.5084 15.5242 37.16C15.4389 38.0491 15.3536 38.9321 15.2684 39.8212C15.2075 40.4972 15.1649 41.167 15.1101 41.843C15.0918 42.0561 15.2075 42.2023 15.3597 42.3241C15.3963 42.3484 15.4328 42.3667 15.4815 42.3972Z" fill="#EFC8AB"/>
</g>
<path d="M29.9503 42.488C29.8345 42.5245 29.7067 42.555 29.5788 42.555C28.8906 42.5672 28.2208 42.7133 27.5448 42.8473C26.808 42.9874 26.065 43.164 25.3221 43.2614C23.891 43.4441 22.4477 43.4624 21.0045 43.4502C20.6026 43.4461 20.2027 43.4421 19.8048 43.438C19.0131 43.4339 18.2235 43.4278 17.4359 43.4197C17.2228 43.4197 17.0096 43.4441 16.7965 43.438C16.4311 43.4319 16.3398 43.3345 16.3032 42.9691C16.4555 42.9874 16.6077 43.0239 16.7539 43.0239C17.0644 43.0239 17.375 43.0178 17.6856 42.9934C18.254 42.9488 18.8223 42.9183 19.3907 42.9021C19.9916 42.8818 20.5924 42.8777 21.1933 42.8899C21.8327 42.9082 22.4782 42.896 23.1176 42.9082C24.707 42.9326 26.2599 42.7499 27.7823 42.2992C28.5557 42.0678 29.3535 41.9947 30.1695 42.08C30.2243 42.2931 30.1634 42.421 29.9503 42.488Z" fill="#E28242"/>
<path d="M22.9659 10.3415C22.4848 10.1953 22.0402 10.0736 21.6079 9.9274C21.2608 9.81169 20.9197 9.79343 20.5726 9.86041C20.4082 9.89695 20.2438 9.90913 20.0794 9.94567C19.6531 10.0492 19.2329 10.171 18.9528 10.5546C18.9345 10.5851 18.904 10.6034 18.8797 10.6216C18.5996 10.8165 18.3133 10.9992 18.0393 11.2001C17.9236 11.2854 17.8079 11.3767 17.7348 11.4925C17.4912 11.8517 17.2598 12.2171 17.0345 12.5825C16.9675 12.6921 16.9127 12.8139 16.8579 12.9296C16.8031 12.7165 16.7422 12.5094 16.6996 12.3024C16.6752 12.1725 16.661 12.0466 16.6569 11.9248C16.6448 11.4803 16.7909 11.0844 17.2294 10.7982C17.473 10.6338 17.7226 10.4755 17.9358 10.2745C18.5752 9.68381 19.3486 9.35497 20.1646 9.0992C20.2986 9.05657 20.463 9.05048 20.6031 9.07484C21.0415 9.15401 21.4678 9.26362 21.9002 9.34888C22.2473 9.41586 22.4848 9.61682 22.6858 9.86041C22.7467 9.93349 22.8035 10.0086 22.8563 10.0857C22.8989 10.1527 22.9233 10.2319 22.9659 10.3415Z" fill="#E28242"/>
<path d="M23.6537 12.2956C23.605 12.253 23.5806 12.2347 23.5563 12.2104C23.2701 11.8693 22.9169 11.6136 22.5028 11.4491C21.9121 11.2177 21.3214 10.9863 20.7307 10.7732C20.2069 10.5844 19.6711 10.4626 19.1108 10.5479C19.1067 10.5316 19.1006 10.5154 19.0925 10.4991C19.1656 10.4443 19.2387 10.3834 19.3178 10.3347C19.3381 10.3185 19.3584 10.3043 19.3787 10.2921C19.8416 10.0302 20.3592 9.98152 20.8707 9.92671C21.0717 9.90235 21.2848 9.95107 21.4858 9.9937C21.7842 10.0607 22.0826 10.1459 22.3749 10.2373C22.7443 10.355 23.1117 10.4809 23.4771 10.6148C23.5441 10.6392 23.6294 10.7245 23.6476 10.7915C23.6781 10.9376 23.6963 11.0898 23.7024 11.236C23.7207 11.5831 23.6781 11.9302 23.6537 12.2956Z" fill="#E28242"/>
<path d="M11.4559 34.2739C11.3402 34.3288 11.2123 34.3653 11.1149 34.2679C11.0722 34.2252 11.0905 34.1156 11.0783 34.0364C11.0479 33.7929 11.0174 33.5493 10.987 33.3057C10.9667 33.1189 10.9403 32.9322 10.9078 32.7454C10.7556 31.7467 10.4511 30.7967 9.92128 29.9259C9.73859 29.6214 9.75077 29.6153 10.1344 29.5849C10.2928 29.5118 10.3963 29.6275 10.4815 29.7554C10.5607 29.8711 10.6155 29.9929 10.6825 30.1147C10.7738 30.2974 10.8591 30.4922 10.9626 30.6688C11.1027 30.9124 11.2245 31.1621 11.2427 31.4483C11.2671 31.8198 11.3645 32.1791 11.5046 32.5201C11.5168 32.5485 11.529 32.5769 11.5411 32.6054C11.6386 32.8855 11.6751 33.1778 11.6508 33.4762C11.6386 33.5797 11.6568 33.6954 11.6873 33.7929C11.803 34.2131 11.7908 34.1217 11.4559 34.2739Z" fill="#EFC8AB"/>
<path d="M32.757 27.7578C32.6413 28.1415 32.5134 28.519 32.422 28.9088C32.2393 29.67 32.2515 30.4434 32.282 31.2168C32.2942 31.4299 32.3063 31.6491 32.3246 31.8623C32.3327 31.9759 32.3469 32.0896 32.3672 32.2033C32.3916 32.3434 32.3429 32.3921 32.2393 32.4347C32.1236 32.4834 31.9958 32.4286 31.9531 32.3312C31.8131 32.0389 31.7765 31.7405 31.8131 31.436C31.8212 31.3629 31.8334 31.2898 31.8496 31.2168C31.9105 30.9184 31.9166 30.6261 31.88 30.3277C31.8679 30.2546 31.8679 30.1754 31.8618 30.0962C31.8496 30.0962 31.8374 30.0942 31.8252 30.0902C31.8983 29.7735 31.9714 29.4568 32.0384 29.1402C32.081 28.9453 32.1054 28.7504 32.1297 28.5495C32.148 28.3424 32.1358 28.1293 32.1845 27.9283C32.2333 27.7334 32.3246 27.5568 32.5865 27.5508C32.7874 27.5508 32.8118 27.5629 32.757 27.7578Z" fill="#EFC8AB"/>
<path d="M18.508 17.186C18.4349 17.3626 18.2827 17.393 18.1487 17.2956C18.1203 17.2753 18.0959 17.2509 18.0756 17.2225C18.0147 17.1433 17.9477 17.1068 17.8381 17.1251C17.625 17.1555 17.4119 16.985 17.3936 16.7719C17.3875 16.6927 17.424 16.6075 17.4362 16.5466C17.351 16.4735 17.2535 16.4187 17.1926 16.3395C17.1622 16.303 17.1683 16.1934 17.1987 16.1568C17.2353 16.1264 17.3205 16.1385 17.3875 16.1446C17.4119 16.1446 17.4484 16.1751 17.4667 16.1994C17.5458 16.2847 17.6311 16.3395 17.7529 16.2847C17.8686 16.236 17.9356 16.1507 17.9295 16.035C17.9579 16.0431 17.9863 16.0492 18.0147 16.0533C18.1426 16.0837 18.2705 16.1203 18.3862 16.0959C18.508 16.0716 18.5567 16.1081 18.5993 16.1873C18.6359 16.2482 18.6542 16.3151 18.6724 16.376C18.7577 16.6744 18.6054 16.9302 18.508 17.186Z" fill="#4C4C4C"/>
<path d="M9.73315 32.5442C9.85495 32.7695 9.96456 33.007 10.0985 33.2202C10.3056 33.5551 10.5309 33.8779 10.7562 34.2006C10.7867 34.2493 10.8537 34.2676 10.9024 34.3041C10.9267 34.2432 10.9815 34.1823 10.9755 34.1275C10.945 33.7743 10.8841 33.4333 10.8658 33.0801C10.8476 32.8609 10.7623 32.7634 10.5431 32.7208C10.2873 32.6721 10.0316 32.5808 9.77578 32.5077C9.7636 32.5199 9.74939 32.532 9.73315 32.5442Z" fill="#EFC8AB"/>
<g style="mix-blend-mode:multiply" opacity="0.3">
<path d="M9.73315 32.5446C9.85495 32.7699 9.96456 33.0074 10.0985 33.2206C10.3056 33.5555 10.5309 33.8783 10.7562 34.201C10.7867 34.2497 10.8537 34.268 10.9024 34.3046C10.9267 34.2437 10.9815 34.1828 10.9755 34.1279C10.945 33.7747 10.8841 33.4337 10.8658 33.0805C10.8476 32.8613 10.7623 32.7639 10.5431 32.7212C10.2873 32.6725 10.0316 32.5812 9.77578 32.5081C9.7636 32.5203 9.74939 32.5324 9.73315 32.5446Z" fill="#EFC8AB"/>
</g>
<path d="M33.3732 30.3643C33.0383 30.5287 32.7399 30.681 32.4415 30.8332C32.405 30.8515 32.3745 30.9185 32.3745 30.9611C32.3867 31.3143 32.3989 31.6675 32.4293 32.0207C32.4415 32.1364 32.5085 32.246 32.5511 32.3557C32.6242 32.2704 32.7216 32.1973 32.7582 32.0999C32.953 31.631 33.1296 31.156 33.3123 30.6871C33.3428 30.5957 33.3489 30.4983 33.3732 30.3643Z" fill="#EFC8AB"/>
<g style="mix-blend-mode:multiply" opacity="0.3">
<path d="M33.372 30.3636C33.0371 30.528 32.7387 30.6802 32.4403 30.8325C32.4037 30.8507 32.3733 30.9177 32.3733 30.9603C32.3855 31.3135 32.3976 31.6668 32.4281 32.02C32.4403 32.1357 32.5073 32.2453 32.5499 32.3549C32.623 32.2696 32.7204 32.1966 32.7569 32.0991C32.9518 31.6302 33.1284 31.1552 33.3111 30.6863C33.3416 30.595 33.3476 30.4975 33.372 30.3636Z" fill="#EFC8AB"/>
</g>
<path d="M11.84 34.0667C11.8096 33.8597 11.7487 33.6587 11.7548 33.4638C11.7609 33.135 11.7121 32.8305 11.6086 32.526C11.6005 32.5017 11.5924 32.4773 11.5842 32.453C11.4746 32.1302 11.4016 31.7953 11.3407 31.4664C11.2919 31.1985 11.2189 30.9427 11.0788 30.7113C10.9996 30.5773 10.9083 30.4494 10.8474 30.3094C10.7378 30.0414 10.6403 29.7613 10.4089 29.5603C10.549 29.469 10.5977 29.5603 10.6403 29.6517C10.8169 30.0414 11.0057 30.4251 11.2919 30.7539C11.3407 30.8087 11.365 30.894 11.3772 30.9671C11.432 31.3081 11.4868 31.6552 11.6512 31.9719C11.7121 32.0876 11.7609 32.2094 11.7913 32.3312C11.8766 32.6174 11.8948 32.9158 11.8948 33.2203C11.8948 33.4395 11.9314 33.6587 11.9679 33.8779C11.9862 33.9815 11.9679 34.0363 11.84 34.0667Z" fill="#E28242"/>
<path d="M32.2596 27.6176C32.0282 27.8612 32.0465 28.1717 32.0465 28.4701C32.0465 28.732 32.0039 28.9756 31.9247 29.2192C31.7907 29.6089 31.7481 30.0108 31.7907 30.4249C31.8151 30.6502 31.8029 30.8817 31.7664 31.107C31.7542 31.1922 31.742 31.2775 31.7298 31.3627C31.6933 31.6977 31.7055 32.0265 31.8577 32.3493C31.8577 32.3554 31.8455 32.3675 31.8455 32.3797C31.6324 32.3554 31.5837 32.331 31.5837 32.124C31.5776 31.8743 31.602 31.6246 31.6507 31.3749C31.6547 31.3506 31.6588 31.3262 31.6629 31.3018C31.6994 31.0522 31.7055 30.8147 31.6811 30.565C31.6263 30.1022 31.608 29.6272 31.7603 29.1765C31.8334 28.939 31.8699 28.7076 31.876 28.464C31.8821 28.2205 31.9125 27.9769 31.9612 27.7394C32.0039 27.5445 32.0343 27.5445 32.2596 27.6176Z" fill="#E28242"/>
<path d="M18.4593 14.0981C18.3558 14.2747 18.301 14.4573 18.3436 14.6461C18.374 14.7862 18.3131 14.8532 18.2157 14.9141C18.1548 14.9567 18.0756 14.975 18.0208 15.0115C17.9782 15.042 17.9295 15.0968 17.9356 15.1272C17.9478 15.1698 18.0087 15.2003 18.0513 15.2186C18.0817 15.2368 18.1244 15.2368 18.1487 15.2246C18.2583 15.1881 18.3619 15.1272 18.4349 15.2734C18.441 15.2855 18.5263 15.2734 18.5445 15.249C18.5994 15.1577 18.6724 15.0602 18.6724 14.9689C18.6724 14.8105 18.6298 14.6522 18.5933 14.5C18.5567 14.366 18.508 14.2442 18.4593 14.0981Z" fill="#4C4C4C"/>
<path d="M23.3981 15.2865C23.4468 15.2804 23.4712 15.2683 23.4955 15.2683C23.7391 15.2378 23.733 15.2378 23.7087 14.9942C23.7026 14.9516 23.7574 14.8968 23.7879 14.8542C23.8244 14.7994 23.8609 14.7506 23.8975 14.7019C23.8427 14.6715 23.7879 14.6167 23.733 14.6228C23.5808 14.641 23.4712 14.5923 23.3616 14.434C23.3738 14.7446 23.3859 15.0064 23.3981 15.2865Z" fill="#4C4C4C"/>
<path d="M15.4381 42.8669C15.4563 42.7329 15.4685 42.6111 15.4807 42.5076C15.365 42.4223 15.2676 42.3432 15.164 42.2762C15.1579 42.4284 15.2858 42.7329 15.4381 42.8669Z" fill="#E28242"/>
<path d="M32.7888 27.9828C32.8617 27.9524 32.8982 27.9402 32.9468 27.922C32.9286 27.8552 32.9103 27.8005 32.8921 27.7458C32.88 27.7458 32.8698 27.7458 32.8617 27.7458C32.8435 27.8127 32.8192 27.8856 32.7888 27.9828Z" fill="#EFC8AB"/>
<path d="M21.2109 16.7235C21.2961 16.6808 21.3814 16.6504 21.4545 16.6017C21.5519 16.5347 21.6433 16.5225 21.7529 16.5773C21.8625 16.626 21.9904 16.6504 22.1365 16.6991C21.9782 16.4494 21.8442 16.2302 21.6981 16.0232C21.6798 15.9927 21.6067 15.9866 21.5702 15.9988C21.5215 16.0171 21.4727 16.0597 21.4545 16.1084C21.357 16.3033 21.2718 16.4982 21.1865 16.6991C21.1946 16.7072 21.2028 16.7154 21.2109 16.7235Z" fill="#4C4C4C"/>
<path d="M21.4187 15.9561C21.0351 16.1023 20.8767 16.4676 20.6758 16.7904C20.8889 16.8513 21.029 16.7965 21.1203 16.6138C21.2299 16.4027 21.3396 16.1916 21.4492 15.9805C21.437 15.9723 21.4268 15.9642 21.4187 15.9561Z" fill="#4C4C4C"/>
<path d="M21.8755 15.8221C22.0886 16.0535 22.2713 16.2605 22.4662 16.4615C22.5271 16.5285 22.6063 16.5711 22.6793 16.6137C22.7037 16.6259 22.7585 16.6076 22.7829 16.5833C22.795 16.5711 22.795 16.5163 22.7768 16.498C22.5758 16.2301 22.3566 15.9682 22.0399 15.8282C21.9973 15.8099 21.9425 15.8221 21.8755 15.8221Z" fill="#4C4C4C"/>
<path d="M21.2958 15.895C21.2228 15.9133 21.1253 15.9133 21.0705 15.9559C20.8695 16.1447 20.6808 16.3395 20.4859 16.5405C20.4554 16.5709 20.4372 16.6318 20.425 16.6806C20.4189 16.7232 20.4311 16.7658 20.4372 16.8024C20.4737 16.7902 20.5163 16.7841 20.5529 16.7719C20.5772 16.7597 20.5955 16.7354 20.6138 16.711C20.7965 16.4065 20.9913 16.1142 21.3141 15.9315C21.31 15.9193 21.3039 15.9072 21.2958 15.895Z" fill="#4C4C4C"/>
<path d="M21.6997 15.9563C21.8824 16.1816 22.059 16.4252 22.2539 16.6383C22.3026 16.6931 22.4366 16.6748 22.5401 16.6688C22.2539 16.4313 22.1077 16.0537 21.7545 15.9015C21.7383 15.9177 21.72 15.936 21.6997 15.9563Z" fill="#4C4C4C"/>
<path d="M19.1597 13.928C19.2571 13.9098 19.3241 13.9037 19.385 13.8915C19.6773 13.8306 19.9696 13.7697 20.2558 13.7088C20.3593 13.6905 20.4933 13.6905 20.5116 13.5566C20.5177 13.4226 20.3959 13.3921 20.2924 13.3556C19.9026 13.2094 19.3911 13.4104 19.2084 13.7819C19.1901 13.8184 19.184 13.855 19.1597 13.928Z" fill="#4C4C4C"/>
<path d="M21.8472 13.6659C22.2247 13.7329 22.5779 13.6598 22.9311 13.6903C22.925 13.5198 22.7667 13.404 22.5109 13.3492C22.1943 13.2762 21.9994 13.3614 21.8472 13.6659Z" fill="#4C4C4C"/>
<path d="M17.3389 10.4441C17.3632 10.1518 17.3754 9.85948 17.412 9.57326C17.4485 9.32358 17.5094 9.27487 17.7591 9.25051C18.3498 9.1957 18.9405 9.14698 19.5312 9.09827C19.5921 9.09827 19.653 9.11045 19.72 9.14698C19.6773 9.16525 19.6347 9.18352 19.5921 9.1957C18.9709 9.42102 18.4046 9.7316 17.9113 10.1761C17.7286 10.3345 17.5338 10.4745 17.3389 10.6146C17.3389 10.5476 17.3328 10.4685 17.3389 10.4441Z" fill="#E28242"/>
<path fill-rule="evenodd" clip-rule="evenodd" d="M22.6364 17.7649C22.472 17.8501 22.4233 17.9598 22.4294 18.1242C22.4355 18.1668 22.4355 18.2216 22.4355 18.2642C22.4233 18.386 22.4781 18.4287 22.5938 18.4591C23.4585 18.7027 24.3294 18.8976 25.1637 19.2386C25.4925 19.3787 25.7848 19.5674 26.0223 19.8354C26.3938 20.2495 26.7165 20.7001 26.9479 21.2117C27.429 22.2652 27.9101 23.3187 28.379 24.3783C28.4886 24.628 28.5922 24.8716 28.8662 24.9751C28.8967 24.9873 28.921 25.0177 28.9454 25.0421C29.2133 25.3527 29.4934 25.6511 29.7431 25.9799C30.0659 26.394 30.3704 26.8325 30.6748 27.2648C30.8636 27.5328 31.0463 27.6119 31.363 27.5328C31.4482 27.5084 31.5335 27.478 31.6187 27.4658C31.7101 27.4536 31.8014 27.4475 31.8928 27.4475C32.1303 27.4475 32.3678 27.4597 32.6053 27.4536C32.8062 27.4475 32.8915 27.4902 32.9524 27.685C32.9768 27.752 32.995 27.819 33.0194 27.8982C33.0803 27.886 33.129 27.8738 33.1777 27.8555C33.4335 27.7581 33.6832 27.6302 33.945 27.5754C34.4748 27.4597 34.8767 27.1491 35.2482 26.7838C35.2604 26.7777 35.2726 26.7655 35.2848 26.7594C35.4431 26.662 35.5953 26.528 35.7719 26.4854C36.113 26.4123 36.454 26.3514 36.7767 26.1991C36.9838 26.1017 37.1665 26.2418 37.1604 26.4671C37.1543 26.5645 37.1117 26.6559 37.0873 26.7655C37.1969 26.7289 37.2944 26.6863 37.3979 26.6559C37.8181 26.5341 38.2444 26.4062 38.6706 26.2905C38.8046 26.2539 38.9508 26.2539 39.0482 26.3757C39.1395 26.4975 39.2065 26.6376 39.2857 26.7655C39.3283 26.8264 39.3649 26.8995 39.4197 26.936C39.5597 27.0456 39.5841 27.1552 39.4684 27.2892C39.4136 27.3501 39.3527 27.4049 39.2857 27.4658C39.4197 27.5876 39.3344 27.6728 39.2309 27.7398C39.0543 27.8494 38.8838 27.9652 38.7072 28.0565C37.9581 28.4341 37.203 28.8055 36.4479 29.1648C36.1799 29.2927 35.8998 29.4328 35.6075 29.4937C34.8889 29.6459 34.2312 29.9321 33.5857 30.2671C33.537 30.2914 33.4883 30.3462 33.47 30.401C33.3787 30.6933 33.3056 31.0039 33.196 31.2901C33.0742 31.619 32.9219 31.9356 32.7758 32.2523C32.7393 32.3315 32.6479 32.4472 32.6053 32.435C32.453 32.3985 32.3617 32.4959 32.246 32.5446C32.2155 32.5568 32.179 32.5568 32.1486 32.5568C31.7345 32.5081 31.3447 32.4045 31.0402 32.094C30.8758 31.9295 30.687 31.7834 30.4556 31.7469C30.0111 31.686 29.5848 31.5459 29.1829 31.3449C29.1281 31.3145 29.0611 31.3084 29.0002 31.2901C28.5069 31.1379 28.0136 30.9796 27.6117 30.6324C27.5569 30.5898 27.496 30.5533 27.4108 30.4985C27.4169 30.5776 27.4229 30.6203 27.429 30.669C27.4595 30.9187 27.4838 31.1744 27.5326 31.418C27.6665 32.094 27.7944 32.7699 27.9467 33.4337C28.1902 34.475 28.4217 35.5164 28.714 36.5395C29.0184 37.6112 29.396 38.6648 29.737 39.7244C29.9867 40.4734 30.145 41.2468 30.2729 42.0263C30.3277 42.3734 30.2181 42.5378 29.871 42.617C29.737 42.6413 29.6031 42.6535 29.4691 42.6657C29.2803 42.6779 29.0915 42.6901 28.9088 42.7022C28.9088 43.3295 28.9088 43.9324 28.9088 44.5413C28.9088 46.149 28.6592 47.7141 28.2329 49.2548C28.172 49.4679 28.1172 49.5105 27.8979 49.4984C27.831 49.4984 27.764 49.4801 27.697 49.4801C27.5062 49.476 27.3174 49.478 27.1306 49.4862C26.8931 49.4983 26.6435 49.5471 26.406 49.5166C26.0162 49.4679 25.6326 49.4496 25.2428 49.4984C24.6826 49.5714 24.1162 49.5775 23.5499 49.5349C23.148 49.5044 22.9835 49.3766 22.88 48.9807C22.8678 48.9381 22.8496 48.8894 22.8252 48.8163C22.7278 48.9807 22.6364 49.1147 22.5573 49.2548C22.4355 49.4679 22.2589 49.5775 22.0031 49.5592C21.9361 49.5532 21.8691 49.5592 21.8021 49.5653C21.1749 49.6323 20.5538 49.681 19.9204 49.5897C19.5855 49.541 19.2323 49.5897 18.9034 49.5166C18.4833 49.4253 18.0631 49.5044 17.6429 49.5044C17.1374 49.5044 16.6807 49.206 16.5954 48.7067C16.5467 48.3961 16.5528 48.0734 16.4919 47.7628C16.3884 47.2269 16.2483 46.691 16.1326 46.1551C15.8708 44.9737 15.6759 43.7862 15.5967 42.55C15.5846 42.6231 15.5785 42.6657 15.5724 42.7083C15.5602 42.757 15.5602 42.8058 15.5419 42.8545C15.5054 42.9945 15.4019 43.025 15.3105 42.9154C15.2313 42.8119 15.1583 42.6901 15.1156 42.5683C14.9817 42.1785 14.9695 41.7766 15.0121 41.3808C15.0791 40.6987 15.1765 40.0167 15.2435 39.3346C15.3166 38.5917 15.3592 37.8427 15.4323 37.0936C15.4871 36.4786 15.5054 35.8635 15.4567 35.2423C15.4262 34.8222 15.4323 34.4081 15.4323 33.9879C15.4384 33.7869 15.4871 33.5799 15.4871 33.3789C15.481 32.6542 15.4628 31.9356 15.4506 31.2171C15.4506 31.144 15.4384 31.077 15.4323 30.9674C15.3653 31.0648 15.3288 31.1196 15.2922 31.1744C14.9756 31.6555 14.6346 32.1183 14.2083 32.5142C13.8977 32.8004 13.5689 33.0744 13.1548 33.2023C12.7955 33.3058 12.5153 33.5068 12.3144 33.8174C12.2474 33.9148 12.1743 34.0305 12.0769 34.0914C11.9003 34.201 11.7054 34.2802 11.5166 34.3654C11.3461 34.4446 11.1817 34.4811 11.0295 34.3228C10.9137 34.4568 10.8224 34.402 10.7311 34.3106C10.6823 34.2558 10.6275 34.201 10.5788 34.134C10.2317 33.6347 9.90286 33.1292 9.65318 32.569C9.62882 32.5142 9.56792 32.4594 9.51312 32.4411C9.39132 32.4045 9.25735 32.4045 9.14773 32.3558C8.73972 32.1792 8.31344 32.1183 7.88107 32.094C7.34518 32.0696 6.82756 31.9965 6.30993 31.8443C5.71314 31.6616 5.09808 31.5094 4.4952 31.3328C4.17244 31.2414 3.84969 31.1318 3.52693 31.0161C3.33815 30.943 3.33206 30.9126 3.38078 30.7238C3.33815 30.7055 3.28944 30.6873 3.2529 30.6568C3.05803 30.5411 2.99713 30.4193 3.1311 30.3036C3.28944 30.1757 3.27726 29.9869 3.34424 29.8347C3.47213 29.5302 3.51476 29.4632 3.8436 29.4754C4.20289 29.4876 4.56218 29.518 4.92757 29.5363C4.98237 29.5424 5.04327 29.5119 5.09199 29.4815C5.17725 29.4389 5.25032 29.3536 5.33558 29.3292C5.60961 29.2501 5.88974 29.2075 6.16378 29.1283C6.49871 29.0309 6.80929 29.0857 7.10159 29.2562C7.34518 29.3962 7.57659 29.5424 7.82627 29.6703C7.94806 29.7312 8.08812 29.7677 8.2221 29.7982C8.48396 29.8469 8.73972 29.8895 9.00158 29.9321C9.20863 29.9626 9.40959 29.9869 9.62882 30.0235C9.63491 29.9504 9.641 29.9017 9.64709 29.8591C9.67145 29.5728 9.73844 29.518 10.0186 29.4937C10.1708 29.4815 10.3291 29.4693 10.4753 29.4145C10.6945 29.3353 10.9077 29.311 11.133 29.3353C11.5227 29.378 11.6811 29.2744 11.8333 28.9091C12.1378 28.1905 12.4849 27.4902 12.899 26.8203C13.0512 26.5767 13.1791 26.3088 13.2583 26.0408C13.4288 25.4684 13.581 24.8838 13.7028 24.2991C13.8794 23.4405 14.056 22.5819 14.4397 21.7841C14.5798 21.4918 14.7807 21.2299 14.9451 20.9498C15.0365 20.8097 15.1339 20.6697 15.1948 20.5114C15.2922 20.2373 15.4567 20.0303 15.7246 19.9024C16.6015 19.4761 17.4785 19.0376 18.3554 18.6114C18.4406 18.5687 18.4833 18.5261 18.4893 18.4287C18.5076 18.1303 18.5381 17.838 18.5624 17.5396C18.5685 17.4787 18.5624 17.4117 18.5624 17.3325C18.532 17.3508 18.5198 17.3569 18.5076 17.363C18.264 17.5213 18.1361 17.4969 17.9595 17.2534C17.9413 17.229 17.8986 17.2107 17.8682 17.2107C17.4663 17.2168 17.2531 16.9732 17.314 16.6018C17.241 16.5165 17.1435 16.4495 17.1131 16.3643C17.0826 16.2851 17.0887 16.1511 17.1374 16.1024C17.1922 16.0476 17.314 16.0537 17.4054 16.0598C17.4602 16.072 17.5089 16.1511 17.5698 16.1755C17.6246 16.1938 17.716 16.2059 17.7586 16.1755C17.8012 16.145 17.8256 16.0537 17.8134 15.9928C17.8073 15.938 17.7525 15.8893 17.7099 15.8405C17.4602 15.5543 17.1983 15.2498 17.3079 14.8418C17.381 14.5617 17.314 14.379 17.1496 14.1659C16.9608 13.9284 16.8208 13.6604 16.7903 13.3438C16.7842 13.2585 16.8086 13.1672 16.7903 13.088C16.7355 12.8383 16.6685 12.5947 16.6137 12.3451C16.4858 11.7056 16.565 11.1332 17.1618 10.7313C17.1983 10.7069 17.2369 10.6805 17.2775 10.6521C17.2653 10.5973 17.2592 10.4938 17.2592 10.4755C17.2227 10.1101 17.2775 9.75693 17.3749 9.40982C17.4115 9.27585 17.515 9.20886 17.6551 9.19059C17.9291 9.16014 18.197 9.09924 18.4711 9.08706C18.8791 9.0627 19.2871 9.0627 19.6951 9.05661C19.8108 9.05052 19.9265 9.0627 20.0361 9.03226C20.2614 8.95918 20.4807 8.94091 20.7121 9.00181C21.047 9.08706 21.388 9.19059 21.7352 9.23322C22.2589 9.29411 22.6303 9.59251 22.8678 10.0127C23.0262 10.2867 23.2028 10.4572 23.4951 10.5425C23.6412 10.579 23.7143 10.6887 23.7326 10.8409C23.7935 11.3342 23.7935 11.8274 23.69 12.3207C23.69 12.3451 23.69 12.3755 23.7082 12.3999C23.9214 12.7165 23.9335 13.0697 23.9031 13.4351C23.8787 13.6483 23.8422 13.8431 23.7082 14.0075C23.6412 14.0928 23.556 14.1659 23.4707 14.239C23.3976 14.2999 23.4037 14.3547 23.4525 14.4277C23.5133 14.5313 23.5986 14.5617 23.7204 14.5434C23.83 14.5313 23.9335 14.5617 23.9701 14.6774C24.0066 14.7931 23.9396 14.8662 23.8483 14.9149C23.8361 14.9271 23.8178 14.9393 23.7996 14.9515C23.8605 15.2559 23.83 15.3047 23.5499 15.3656C23.5194 15.3716 23.4768 15.4021 23.4707 15.4325C23.4403 15.5117 23.4159 15.597 23.4159 15.6822C23.4098 16.1024 23.3794 16.5165 23.2698 16.9245C23.1662 17.2899 22.9714 17.5883 22.6364 17.7649ZM32.7332 28.16C32.4287 28.976 32.3495 29.8347 32.3678 30.6994C32.3678 30.7177 32.3739 30.7299 32.3861 30.7603C32.4591 30.7238 32.5261 30.6933 32.5931 30.6568C33.0498 30.4376 33.5309 30.2427 33.9633 29.9808C34.4809 29.6703 35.0533 29.6033 35.6075 29.4328C35.8876 29.3475 36.1617 29.2257 36.4296 29.0978C37.2152 28.7142 38.0069 28.3305 38.7863 27.9347C38.9629 27.8494 39.1152 27.7155 39.2735 27.6059C39.2004 27.4536 39.0726 27.4658 38.969 27.4719C38.829 27.4902 38.6828 27.5206 38.5488 27.5693C38.1895 27.7033 37.8363 27.8494 37.4831 27.9895C37.4263 28.0098 37.3715 28.0321 37.3187 28.0565C37.3106 28.0443 37.3025 28.0301 37.2944 28.0139C37.3309 27.9956 37.3674 27.9652 37.4101 27.9469C37.8424 27.7825 38.2687 27.6059 38.7011 27.4475C38.829 27.4049 38.9812 27.4171 39.1213 27.3988C39.1761 27.3927 39.237 27.3927 39.2857 27.3684C39.3892 27.3136 39.4684 27.2344 39.4318 27.1004C39.4075 26.9908 39.2918 26.9299 39.1456 26.9664C38.7742 27.0761 38.4027 27.1918 38.0312 27.3136C37.8302 27.3805 37.6354 27.4658 37.4405 27.5389C37.4324 27.5226 37.4243 27.5064 37.4162 27.4902C37.611 27.4171 37.7998 27.3318 37.9886 27.2587C38.1956 27.1816 38.4027 27.1106 38.6097 27.0456C38.8168 26.9847 39.0177 26.9299 39.2248 26.869C39.2004 26.7107 39.1152 26.6315 38.9629 26.668C38.5793 26.7594 38.1956 26.8507 37.8181 26.9482C37.6354 26.9969 37.4649 27.0639 37.2944 27.1248C37.2862 27.1126 37.2781 27.1004 37.27 27.0882C37.337 27.0517 37.3979 27.0091 37.471 26.9847C37.9825 26.7959 38.5123 26.6376 39.0604 26.5706C38.9995 26.3879 38.902 26.3209 38.7133 26.3696C38.2687 26.4854 37.8242 26.6071 37.3918 26.7472C37.1482 26.8325 36.8924 26.8995 36.6793 27.07C36.5514 27.1796 36.4662 27.2953 36.387 27.4414C36.32 27.5754 36.2165 27.6911 36.119 27.8129C36.0825 27.8494 36.0277 27.8738 35.9729 27.9043C35.9668 27.8799 35.9607 27.8677 35.9607 27.8616C36.1799 27.7277 36.2774 27.5023 36.3748 27.277C36.4114 27.1918 36.4844 27.1187 36.5575 27.0578C36.6732 26.9543 36.8072 26.8751 36.9168 26.7594C36.9899 26.6802 37.0447 26.5645 37.063 26.4549C37.0873 26.3027 36.9533 26.2052 36.8194 26.2722C36.4783 26.4366 36.1069 26.4914 35.7415 26.5828C35.571 26.6254 35.4187 26.7655 35.2543 26.869C35.2299 26.8812 35.2056 26.9055 35.1812 26.9299C34.8402 27.277 34.4505 27.5328 33.9694 27.6485C33.5979 27.7398 33.2386 27.8921 32.8854 28.02C32.8245 28.0443 32.7514 28.0991 32.7332 28.16ZM32.5505 32.3558C32.6236 32.2706 32.721 32.1975 32.7575 32.1001C32.9524 31.6312 33.129 31.1562 33.3117 30.6873C33.3421 30.5959 33.3482 30.4985 33.3726 30.3645C33.0377 30.5289 32.7393 30.6812 32.4409 30.8334C32.4043 30.8517 32.3739 30.9187 32.3739 30.9613C32.3861 31.3145 32.3982 31.6677 32.4287 32.0209C32.4409 32.1366 32.5078 32.2462 32.5505 32.3558ZM31.8502 31.2171C31.771 31.5946 31.7832 31.9722 31.9537 32.3315C31.9963 32.4289 32.1242 32.4837 32.2399 32.435C32.3434 32.3924 32.3921 32.3437 32.3678 32.2036C32.313 31.8808 32.3008 31.5459 32.2825 31.2171C32.2521 30.4437 32.2399 29.6703 32.4226 28.9091C32.5139 28.5193 32.6418 28.1418 32.7575 27.7581C32.8123 27.5632 32.788 27.5511 32.587 27.5511C32.3252 27.5571 32.2338 27.7337 32.1851 27.9286C32.1364 28.1296 32.1486 28.3427 32.1303 28.5498C32.1059 28.7507 32.0816 28.9456 32.0389 29.1405C31.972 29.4571 31.8989 29.7738 31.8258 30.0905C31.838 30.0905 31.8502 30.0925 31.8623 30.0965C31.8684 30.1757 31.8684 30.2549 31.8806 30.328C31.9171 30.6264 31.9111 30.9187 31.8502 31.2171ZM31.6796 30.5655C31.7101 30.8395 31.6979 31.1074 31.6492 31.3754C31.6005 31.6251 31.5761 31.8747 31.5822 32.1244C31.5822 32.3315 31.6309 32.3558 31.8441 32.3802C31.8441 32.368 31.8562 32.3558 31.8562 32.3497C31.6675 31.9478 31.6979 31.5337 31.7649 31.1074C31.8014 30.8821 31.8136 30.6507 31.7893 30.4254C31.7466 30.0113 31.7893 29.6094 31.9232 29.2196C32.0024 28.976 32.045 28.7264 32.045 28.4706C32.045 28.1722 32.0268 27.8616 32.2582 27.618C32.0329 27.545 32.0024 27.545 31.9598 27.7398C31.9111 27.9773 31.8806 28.2209 31.8745 28.4645C31.8684 28.7081 31.8319 28.9395 31.7588 29.177C31.6066 29.6276 31.6248 30.1026 31.6796 30.5655ZM22.6121 19.2386C22.5025 18.9889 22.4111 18.7271 22.338 18.4591C22.3076 18.3312 22.338 18.1851 22.3441 18.045C22.3441 18.0024 22.3441 17.9598 22.3502 17.8989C21.7473 18.0694 21.1688 18.045 20.5842 17.911C20.5842 17.8907 20.5842 17.8705 20.5842 17.8502C20.6755 17.8502 20.7608 17.838 20.8461 17.8502C21.2784 17.911 21.7108 17.9293 22.1371 17.838C22.6973 17.7101 23.0384 17.3752 23.1784 16.8271C23.3063 16.346 23.3124 15.8588 23.2941 15.3656C23.2698 14.7769 23.2393 14.1882 23.2028 13.5995C23.1967 13.5204 23.148 13.4168 23.0871 13.3803C22.8435 13.2159 22.5938 13.0515 22.3259 12.9358C21.7534 12.6861 21.1445 12.546 20.5233 12.4608C20.2249 12.4181 19.9691 12.4851 19.7316 12.6739C19.348 12.9845 19.0131 13.3377 18.7025 13.7213C18.5259 13.9406 18.5381 14.1476 18.6294 14.3851C18.6964 14.5739 18.7451 14.7688 18.7634 14.9636C18.7756 15.055 18.7208 15.1646 18.6659 15.2438C18.5563 15.4143 18.4528 15.4204 18.3249 15.3047C18.197 15.3047 18.0874 15.329 17.99 15.2986C17.9291 15.2803 17.8499 15.195 17.8377 15.1341C17.8317 15.0793 17.9047 15.0063 17.9474 14.9454C17.9534 14.9332 17.9778 14.9271 17.9961 14.921C18.2762 14.7809 18.2762 14.7809 18.1118 14.5252C18.0326 14.3973 17.9108 14.2816 17.7464 14.2938C17.5881 14.3059 17.515 14.446 17.4602 14.58C17.2653 15.0611 17.4724 15.6213 17.9291 15.8649C18.0143 15.9136 18.0935 15.9806 18.1849 16.005C18.2518 16.0232 18.3554 16.0111 18.4102 15.9745C18.4954 15.9197 18.5076 15.8223 18.4589 15.7248C18.4528 15.7066 18.4528 15.6822 18.4406 15.6213C18.5685 15.7005 18.5807 15.7857 18.5746 15.8893C18.5685 15.9441 18.5807 16.0111 18.6111 16.0537C18.806 16.279 18.8365 16.5348 18.7573 16.8149C18.7147 16.9671 18.672 17.1255 18.6599 17.2838C18.6233 17.6553 18.605 18.0268 18.5746 18.4043C18.5502 18.6662 18.599 18.9037 18.7329 19.129C19.1592 19.8537 19.8108 20.2617 20.5964 20.487C20.7669 20.5418 20.9496 20.5479 21.1262 20.5844C21.2541 20.6088 21.3515 20.6758 21.4002 20.7976C21.4977 21.0412 21.5951 21.2847 21.6925 21.5283C21.7169 21.5953 21.7473 21.6562 21.79 21.7476C21.8326 21.6745 21.863 21.6258 21.8813 21.5771C21.9848 21.2299 22.0823 20.8828 22.1797 20.5418C22.198 20.4931 22.2223 20.4444 22.2589 20.42C22.7156 20.1033 22.8191 19.744 22.6121 19.2386ZM22.8557 10.0858C22.6121 9.73866 22.3441 9.43418 21.8996 9.34892C21.4672 9.26367 21.0409 9.15405 20.6025 9.07488C20.4624 9.05053 20.298 9.05662 20.164 9.09924C19.348 9.35501 18.5746 9.68385 17.9352 10.2746C17.722 10.4755 17.4724 10.6338 17.2288 10.7983C16.6685 11.1637 16.5894 11.6995 16.699 12.3024C16.7416 12.5095 16.8025 12.7165 16.8573 12.9297C16.9121 12.814 16.9669 12.6922 17.0339 12.5826C17.2592 12.2172 17.4906 11.8518 17.7342 11.4925C17.8073 11.3768 17.923 11.2854 18.0387 11.2002C18.3127 10.9992 18.599 10.8165 18.8791 10.6217C18.9034 10.6034 18.9339 10.5851 18.9522 10.5547C19.2323 10.171 19.6525 10.0492 20.0788 9.94571C20.2432 9.90917 20.4076 9.89699 20.572 9.86046C20.9191 9.79347 21.2602 9.81174 21.6073 9.92744C22.0396 10.0736 22.4842 10.1954 22.9653 10.3415C22.9226 10.2319 22.8983 10.1528 22.8557 10.0858ZM17.1983 16.1572C17.1679 16.1938 17.1618 16.3034 17.1922 16.3399C17.2531 16.4191 17.3506 16.4739 17.4358 16.547C17.4236 16.6078 17.3871 16.6931 17.3932 16.7723C17.4115 16.9854 17.6246 17.1559 17.8377 17.1255C17.9474 17.1072 18.0143 17.1437 18.0752 17.2229C18.2153 17.3995 18.4224 17.3995 18.5076 17.1864C18.605 16.9306 18.7573 16.6748 18.672 16.3764C18.6538 16.3155 18.6355 16.2486 18.599 16.1877C18.5563 16.1085 18.5076 16.072 18.3858 16.0963C18.2458 16.1268 18.0874 16.0598 17.9291 16.0354C17.9352 16.1511 17.8682 16.2364 17.7525 16.2851C17.6307 16.3399 17.5454 16.2851 17.4663 16.1998C17.448 16.1755 17.4115 16.145 17.3871 16.145C17.3201 16.1389 17.2349 16.1268 17.1983 16.1572ZM22.4416 18.52C22.4964 18.6905 22.539 18.8428 22.5938 18.995C22.6303 19.0925 22.6852 19.1777 22.7217 19.2751C22.9105 19.7562 22.7948 20.1399 22.3868 20.4626C22.3259 20.5113 22.2832 20.5966 22.2589 20.6697C22.1493 20.9985 22.0579 21.3335 21.9544 21.6623C21.9422 21.6988 21.9239 21.7354 21.8996 21.7658C21.8265 21.8633 21.7412 21.8633 21.6864 21.7537C21.6195 21.6197 21.5707 21.4735 21.5159 21.3335C21.4591 21.1833 21.4002 21.033 21.3393 20.8828C21.2906 20.761 21.1993 20.688 21.0653 20.6697C20.9252 20.6514 20.7791 20.6514 20.639 20.6149C19.823 20.3896 19.1227 19.9815 18.6781 19.2264C18.5746 19.0559 18.5198 18.8671 18.4345 18.6662C18.1666 18.788 17.8682 18.9098 17.582 19.0498C16.9852 19.3543 16.3884 19.6649 15.7916 19.9694C15.5419 20.0973 15.3775 20.2799 15.2862 20.5479C15.2496 20.6758 15.1948 20.8097 15.1035 20.9072C14.6102 21.4613 14.3544 22.1373 14.1596 22.8315C13.9769 23.4649 13.8673 24.1225 13.7089 24.762C13.5749 25.2979 13.4227 25.8277 13.2583 26.3514C13.2035 26.5341 13.0939 26.7046 12.9903 26.869C12.5762 27.5206 12.2413 28.2087 11.9368 28.9212C11.748 29.3658 11.5714 29.4754 11.0782 29.4389C10.9259 29.4267 10.7737 29.4389 10.6214 29.4449C10.6093 29.4652 10.5971 29.4876 10.5849 29.5119C10.8407 29.9017 11.1086 30.2853 11.34 30.6873C11.4436 30.8578 11.4679 31.077 11.5227 31.278C11.5593 31.4058 11.5714 31.5459 11.6262 31.6677C11.8942 32.2097 12.0282 32.7699 11.9855 33.3789C11.9734 33.5433 12.0221 33.7199 12.0464 33.8904C12.0627 33.8945 12.0789 33.8986 12.0952 33.9026C12.1439 33.8417 12.1987 33.793 12.2413 33.7321C12.4484 33.4154 12.7285 33.2084 13.0939 33.1049C13.4897 32.9892 13.8003 32.7334 14.0926 32.4715C14.2996 32.2888 14.4884 32.0879 14.6528 31.8687C15.0487 31.3267 15.4262 30.7725 15.8038 30.2183C15.9804 29.9626 16.1265 29.6885 16.2849 29.4206C16.7111 28.7081 16.8573 27.9347 16.8451 27.1126C16.8269 26.0773 16.632 25.0786 16.291 24.1043C16.1407 23.6618 15.9905 23.2213 15.8403 22.7828C15.8221 22.7341 15.816 22.6915 15.8281 22.6306C15.8464 22.661 15.8708 22.6915 15.8829 22.7219C16.2544 23.7024 16.6503 24.6767 16.8208 25.7181C16.9669 26.6132 17.0461 27.5145 16.8147 28.4158C16.6929 28.9091 16.4615 29.3536 16.1874 29.7738C16.1631 29.8103 16.1387 29.8773 16.1509 29.9139C16.3945 30.5472 16.3579 31.211 16.3336 31.8626C16.3153 32.3741 16.3214 32.8735 16.4188 33.3789C16.5467 34.0427 16.5406 34.7247 16.4554 35.4007C16.3397 36.2959 16.291 37.1911 16.431 38.0923C16.498 38.5003 16.4006 38.8962 16.3336 39.2981C16.3092 39.4747 16.2849 39.6513 16.2727 39.834C16.2605 40.0532 16.2544 40.2664 16.1448 40.4673C16.1083 40.5221 16.1022 40.6013 16.1083 40.6683C16.1509 41.3321 16.2057 42.0019 16.2422 42.6657C16.2544 42.8058 16.3092 42.8727 16.4371 42.891C16.5772 42.9093 16.7172 42.9397 16.8573 42.9336C17.7768 42.891 18.7025 42.824 19.6281 42.8058C20.639 42.7875 21.6438 42.8179 22.6547 42.8119C23.4403 42.8058 24.2319 42.7875 25.0175 42.7449C25.9066 42.6961 26.7713 42.4769 27.6239 42.2455C28.3547 42.0445 29.0854 41.9106 29.8466 41.9897C29.9441 41.9958 30.0476 41.9897 30.1755 41.9897C30.0841 41.5513 30.0232 41.1433 29.9075 40.7474C29.5422 39.5295 29.1768 38.3116 28.7749 37.1119C28.4338 36.0949 28.2146 35.0536 27.971 34.0122C27.7944 33.2388 27.5995 32.4594 27.4656 31.6738C27.3194 30.7908 27.2524 29.8956 27.3072 29.0004C27.3316 28.6289 27.289 28.2575 27.2768 27.8921C27.2768 27.8555 27.2768 27.8251 27.2768 27.7946C27.289 27.7906 27.3011 27.7865 27.3133 27.7825C27.3316 27.8312 27.362 27.8799 27.362 27.9286C27.3803 28.3001 27.3925 28.6655 27.4047 29.0369C27.4108 29.4389 27.4047 29.8469 27.4169 30.2488C27.4169 30.3219 27.4717 30.401 27.5265 30.4498C27.971 30.8395 28.5008 31.0648 29.0611 31.211C29.2803 31.2719 29.4752 31.3693 29.6822 31.4485C29.8406 31.5033 30.005 31.552 30.1755 31.5763C30.547 31.619 30.8636 31.759 31.1316 32.027C31.2351 32.1244 31.3569 32.1975 31.4848 32.2706C31.4178 31.8991 31.5274 31.5642 31.5761 31.2171C31.6005 31.0526 31.6127 30.876 31.5944 30.7116C31.5335 30.1087 31.5152 29.5058 31.7405 28.9273C31.7588 28.8786 31.771 28.8299 31.771 28.7812C31.7954 28.3732 31.7649 27.953 31.9598 27.5267C31.8136 27.545 31.704 27.5511 31.5944 27.5754C31.4909 27.5937 31.3873 27.6302 31.2838 27.6485C31.0159 27.6911 30.7906 27.618 30.6383 27.3866C30.1511 26.6437 29.6213 25.9434 29.0184 25.2979C28.9088 25.1822 28.8175 25.0725 28.6531 25.0056C28.5434 24.9629 28.446 24.829 28.3912 24.7133C28.172 24.2565 27.9771 23.7937 27.7701 23.3309C27.4656 22.6367 27.1611 21.9485 26.8505 21.2604C26.6252 20.7549 26.3024 20.3043 25.9371 19.8902C25.7178 19.6466 25.4499 19.4639 25.1454 19.336C24.2989 18.9767 23.4037 18.7758 22.5207 18.5261C22.5085 18.52 22.4964 18.52 22.4416 18.52ZM15.481 42.5074C15.3653 42.4221 15.2679 42.3429 15.1644 42.276C15.1583 42.4282 15.2862 42.7327 15.4384 42.8667C15.4546 42.7286 15.4688 42.6089 15.481 42.5074ZM10.0977 33.2206C10.3048 33.5555 10.5301 33.8783 10.7554 34.201C10.7859 34.2497 10.8529 34.268 10.9016 34.3045C10.9259 34.2436 10.9807 34.1827 10.9746 34.1279C10.9442 33.7747 10.8833 33.4337 10.865 33.0805C10.8468 32.8613 10.7615 32.7638 10.5423 32.7212C10.2865 32.6725 10.0307 32.5812 9.77497 32.5081C9.76279 32.5203 9.74858 32.5324 9.73235 32.5446C9.85414 32.7699 9.96375 33.0074 10.0977 33.2206ZM10.6823 30.1148C10.6154 29.993 10.5605 29.8712 10.4814 29.7555C10.3961 29.6276 10.2926 29.5119 10.1343 29.585C9.75061 29.6155 9.73843 29.6216 9.92113 29.926C10.4509 30.7969 10.7554 31.7469 10.9077 32.7456C10.9746 33.1719 11.0234 33.6042 11.0782 34.0366C11.0903 34.1158 11.0721 34.2254 11.1147 34.268C11.2121 34.3654 11.34 34.3289 11.4557 34.2741C11.7907 34.1218 11.8028 34.2132 11.6871 33.793C11.6567 33.6956 11.6384 33.5799 11.6506 33.4763C11.6811 33.1475 11.6323 32.8308 11.5044 32.5203C11.3644 32.1792 11.267 31.8199 11.2426 31.4485C11.2243 31.1622 11.1025 30.9126 10.9625 30.669C10.8589 30.4924 10.7737 30.2975 10.6823 30.1148ZM10.4083 29.5607C10.6397 29.7616 10.7371 30.0417 10.8468 30.3097C10.9077 30.4498 10.999 30.5776 11.0782 30.7116C11.2182 30.943 11.2913 31.1988 11.34 31.4667C11.4009 31.7956 11.474 32.1305 11.5836 32.4533C11.6993 32.7821 11.7663 33.111 11.7541 33.4642C11.748 33.659 11.8089 33.86 11.8394 34.067C11.9673 34.0366 11.9855 33.9818 11.9673 33.8783C11.9307 33.659 11.8942 33.4398 11.8942 33.2206C11.8942 32.7821 11.8516 32.3619 11.6506 31.9722C11.4862 31.6555 11.4314 31.3084 11.3766 30.9674C11.3644 30.8943 11.34 30.809 11.2913 30.7542C11.0051 30.4254 10.8163 30.0417 10.6397 29.652C10.5971 29.5607 10.5484 29.4693 10.4083 29.5607ZM5.28077 29.7921C5.4594 29.8327 5.63803 29.8651 5.81666 29.8895C5.975 29.9078 6.13942 29.8895 6.29166 29.9139C6.52307 29.9504 6.69358 30.0905 6.83365 30.261C6.82553 30.2731 6.81944 30.2833 6.81538 30.2914C6.78493 30.2792 6.74839 30.2671 6.72403 30.2427C6.5048 30.0235 6.23685 29.9321 5.93237 29.9321C5.76795 29.9321 5.60352 29.9199 5.4391 29.9078C5.27468 29.8956 5.12853 29.853 5.05545 29.6824C5.03718 29.6581 4.98846 29.6337 4.95193 29.6276C4.55001 29.6033 4.15417 29.5728 3.75225 29.5607C3.55738 29.5485 3.47213 29.6276 3.44777 29.8164C4.08719 29.7799 4.71443 29.853 5.33558 29.9748C5.33558 29.991 5.33558 30.0052 5.33558 30.0174C5.27468 30.0174 5.21378 30.0235 5.15289 30.0174C4.70225 29.9748 4.25161 29.9321 3.80097 29.8895C3.72181 29.8834 3.64264 29.8956 3.56347 29.8956C3.41123 29.9017 3.33815 29.9808 3.33815 30.1453C3.9796 30.1818 4.6109 30.2752 5.23205 30.4254C5.22799 30.4376 5.22596 30.4518 5.22596 30.468C5.17724 30.4619 5.13462 30.4558 5.0859 30.4498C4.64135 30.3767 4.20289 30.3097 3.75834 30.2427C3.66091 30.2244 3.56347 30.2305 3.46604 30.2244C3.35642 30.2183 3.23463 30.2305 3.19809 30.3523C3.17982 30.4132 3.19809 30.5167 3.24072 30.5655C3.31988 30.6507 3.42341 30.6873 3.55738 30.6446C3.67309 30.6142 3.80097 30.5898 3.91668 30.6081C4.39776 30.6933 4.88494 30.7847 5.36603 30.8821C5.39647 30.8882 5.42692 30.9065 5.45128 30.9491C5.39647 30.943 5.34776 30.9369 5.29295 30.9308C4.8484 30.8517 4.40385 30.7603 3.9593 30.6873C3.83142 30.669 3.69136 30.7055 3.55738 30.736C3.51476 30.7481 3.47822 30.803 3.44168 30.8395C3.47822 30.876 3.51476 30.9126 3.55738 30.9369C4.03238 31.1744 4.55001 31.2719 5.05545 31.4119C5.67051 31.5824 6.27948 31.7773 6.90063 31.9174C7.24775 31.9965 7.60704 32.0026 7.96024 32.027C8.31344 32.0453 8.64838 32.1001 8.9894 32.2036C9.5801 32.3924 10.1769 32.5324 10.8041 32.7029C10.6762 32.0148 10.5362 31.3571 10.2378 30.7481C10.1586 30.5837 10.0673 30.4193 9.9942 30.2488C9.94549 30.1514 9.87241 30.1087 9.76888 30.0965C9.53138 30.0783 9.29389 30.06 9.05639 30.0235C8.74581 29.9808 8.43524 29.9321 8.12466 29.8591C7.99069 29.8347 7.86281 29.7616 7.74101 29.7007C7.52787 29.585 7.32691 29.4571 7.11986 29.3414C6.81538 29.1709 6.49871 29.0978 6.1516 29.2014C5.93237 29.2683 5.70705 29.3049 5.48173 29.3536C5.40865 29.3719 5.33558 29.3841 5.27468 29.4206C5.21378 29.4571 5.13462 29.518 5.12244 29.585C5.10417 29.6885 5.17724 29.7738 5.28077 29.7921ZM23.7326 14.6226C23.5803 14.6409 23.4707 14.5922 23.3611 14.4338C23.3733 14.7444 23.3855 15.0063 23.3976 15.2864C23.4464 15.2803 23.4707 15.2681 23.4951 15.2681C23.7387 15.2377 23.7326 15.2377 23.7082 14.9941C23.7021 14.9514 23.7569 14.8966 23.7874 14.854C23.8239 14.7992 23.8605 14.7505 23.897 14.7018C23.8422 14.6713 23.7874 14.6165 23.7326 14.6226ZM23.5742 12.3572C23.3185 12.0406 23.0444 11.7422 22.6547 11.596C21.8387 11.2854 21.0227 10.981 20.2006 10.7008C19.9691 10.6217 19.7012 10.6156 19.4515 10.6034C19.1592 10.5851 18.8852 10.6826 18.6477 10.8531C18.4406 11.0053 18.2092 11.1332 18.0448 11.3159C17.7829 11.5899 17.5576 11.8944 17.3445 12.205C17.1983 12.4242 17.0948 12.6678 16.973 12.9053C16.8512 13.1428 16.839 13.3986 16.9547 13.6361C17.0887 13.904 17.247 14.1598 17.4054 14.4338C17.7281 14.105 17.8804 14.1293 18.2153 14.4886C18.4711 13.6178 19.1105 13.0454 19.8047 12.5156C19.9752 12.3877 20.1823 12.3511 20.4015 12.3816C21.1323 12.4709 21.8407 12.6577 22.5268 12.9418C22.7826 13.0454 23.0323 13.1733 23.215 13.3925C23.2576 13.4412 23.2759 13.5204 23.2819 13.5874C23.3124 13.7944 23.3246 14.0075 23.3428 14.245C23.5377 14.0989 23.7021 13.9345 23.7508 13.7274C23.8239 13.3681 23.8909 13.0027 23.7387 12.6495C23.696 12.546 23.6473 12.4425 23.5742 12.3572ZM21.0044 43.4513C22.4477 43.4634 23.8909 43.4452 25.322 43.2625C26.0649 43.1651 26.8079 42.9885 27.5447 42.8484C28.2207 42.7144 28.8906 42.5683 29.5787 42.5561C29.7066 42.5561 29.8345 42.5256 29.9502 42.4891C30.1633 42.4221 30.2242 42.2942 30.1694 42.0811C29.3534 41.9958 28.5556 42.0689 27.7822 42.3003C26.2598 42.751 24.7069 42.9336 23.1175 42.9093C22.4781 42.8971 21.8326 42.9093 21.1932 42.891C20.0239 42.8727 18.8547 42.9032 17.6855 42.9945C17.3749 43.0189 17.0644 43.025 16.7538 43.025C16.6076 43.025 16.4554 42.9885 16.3031 42.9702C16.3397 43.3356 16.431 43.433 16.7964 43.4391C17.0095 43.4452 17.2227 43.4208 17.4358 43.4208C18.6253 43.4289 19.8149 43.4391 21.0044 43.4513ZM22.4537 49.2182C22.8618 48.6153 23.0871 47.9455 23.2393 47.233C23.4159 46.3865 23.623 45.534 23.8178 44.6875C23.83 44.6327 23.8544 44.584 23.8726 44.5352C23.8889 44.5393 23.9031 44.5434 23.9153 44.5474C23.9092 44.59 23.9153 44.6388 23.9031 44.6814C23.696 45.6314 23.4951 46.5814 23.2759 47.5314C23.2028 47.8602 23.0871 48.183 22.9653 48.4996C22.9105 48.6458 22.8983 48.7676 22.9409 48.9076C23.0566 49.2791 23.2271 49.407 23.6108 49.4375C24.2563 49.4923 24.8957 49.4253 25.5351 49.3766C25.7909 49.3583 26.0528 49.3766 26.3024 49.407C26.5765 49.4375 26.8444 49.4253 27.1185 49.3887C27.3316 49.3583 27.563 49.3705 27.7822 49.3948C28.0563 49.4192 28.0806 49.4131 28.1476 49.1573C28.5678 47.6532 28.8053 46.1186 28.8175 44.5596C28.8175 44.0602 28.854 43.5609 28.8358 43.0676C28.8236 42.617 28.8601 42.6961 28.4704 42.7692C27.5752 42.9397 26.68 43.1407 25.7787 43.2929C24.6582 43.4878 23.5194 43.5304 22.3868 43.5365C21.2358 43.5426 20.0909 43.5 18.94 43.4939C18.3188 43.4878 17.7038 43.5183 17.0826 43.5304C16.9243 43.5304 16.766 43.5243 16.6015 43.5061C16.4188 43.4939 16.291 43.3843 16.2544 43.2016C16.2057 42.9215 16.1631 42.6353 16.1387 42.3551C16.0961 41.8436 16.0656 41.3321 16.0291 40.8205C16.0291 40.7596 16.0169 40.6987 15.9743 40.6317C15.9499 40.6926 15.9276 40.7556 15.9073 40.8205C15.6089 41.6792 15.6637 42.5561 15.7672 43.4391C15.9195 44.7301 16.2118 45.9968 16.5224 47.2573C16.6259 47.6897 16.6685 48.1464 16.6868 48.591C16.7051 49.0477 17.2836 49.4435 17.6855 49.4131C18.0935 49.3826 18.5198 49.2852 18.9339 49.4253C18.9887 49.4496 19.0557 49.4496 19.1166 49.4496C19.9935 49.4557 20.8643 49.6201 21.7412 49.4679C21.8387 49.4496 21.9361 49.4496 22.0336 49.4557C22.2223 49.4618 22.3502 49.3766 22.4537 49.2182ZM23.4768 10.6156C23.1114 10.4816 22.744 10.3558 22.3746 10.238C22.0823 10.1467 21.7839 10.0614 21.4855 9.99443C21.2845 9.9518 21.0714 9.90308 20.8704 9.92744C20.3589 9.98225 19.8413 10.031 19.3784 10.2928C19.2749 10.3537 19.1897 10.4329 19.0922 10.4999C19.1003 10.5161 19.1064 10.5324 19.1105 10.5486C19.6707 10.4633 20.2066 10.5851 20.7304 10.7739C21.3211 10.9871 21.9118 11.2185 22.5025 11.4499C22.9166 11.6143 23.2698 11.8701 23.556 12.2111C23.5803 12.2354 23.6047 12.2537 23.6534 12.2963C23.69 11.7726 23.7569 11.2854 23.6473 10.7922C23.6291 10.7252 23.5438 10.6399 23.4768 10.6156ZM18.0204 15.0123C17.9778 15.0428 17.9291 15.0976 17.9352 15.1281C17.9474 15.1707 18.0083 15.2011 18.0509 15.2194C18.0813 15.2377 18.124 15.2377 18.1483 15.2255C18.2579 15.1889 18.3615 15.1281 18.4345 15.2742C18.4406 15.2864 18.5259 15.2742 18.5441 15.2498C18.599 15.1585 18.672 15.0611 18.672 14.9697C18.672 14.8114 18.6294 14.6531 18.5929 14.5008C18.5563 14.3668 18.5076 14.245 18.4589 14.0989C18.3554 14.2755 18.3006 14.4582 18.3371 14.647C18.3736 14.787 18.3127 14.854 18.2153 14.9149C18.1544 14.9575 18.0752 14.9758 18.0204 15.0123ZM15.5237 37.1606C15.4384 38.0497 15.3531 38.9327 15.2679 39.8218C15.207 40.4978 15.1644 41.1676 15.1096 41.8436C15.0913 42.0567 15.207 42.2029 15.3592 42.3247C15.3958 42.349 15.4323 42.3673 15.481 42.3978C15.5358 42.1054 15.5724 41.8192 15.6333 41.5391C15.6942 41.2651 15.7612 40.991 15.8342 40.717C15.8647 40.6196 15.9012 40.5343 16.0108 40.4673C16.09 40.4186 16.1387 40.2724 16.1509 40.1628C16.224 39.6513 16.291 39.1398 16.3336 38.6282C16.3579 38.3603 16.3519 38.0862 16.3092 37.8244C16.1996 37.118 16.2422 36.4055 16.3275 35.6991C16.4188 34.9196 16.4736 34.134 16.3275 33.3606C16.2422 32.9039 16.224 32.4533 16.2422 31.9904C16.2605 31.5885 16.2605 31.1866 16.2362 30.7786C16.224 30.5228 16.1448 30.2671 16.0961 30.0113C16.09 29.9869 16.0778 29.9626 16.0656 29.9321C16.0413 29.9626 16.0169 29.9808 16.0047 30.0052C15.8586 30.2549 15.7124 30.5046 15.5724 30.7664C15.5419 30.8212 15.5176 30.9004 15.5237 30.9674C15.5419 31.7895 15.5663 32.6116 15.5846 33.4337C15.5846 33.6408 15.5358 33.8478 15.5297 34.0609C15.5297 34.4385 15.5237 34.8161 15.5541 35.1936C15.615 35.8513 15.5906 36.509 15.5237 37.1606ZM17.4115 9.57424C17.3749 9.86046 17.3627 10.1528 17.3384 10.4451C17.3323 10.4694 17.3384 10.5486 17.3384 10.6156C17.5333 10.4755 17.7281 10.3355 17.9108 10.1771C18.4041 9.73257 18.9704 9.422 19.5916 9.19668C19.6342 9.1845 19.6768 9.16623 19.7195 9.14796C19.6525 9.11142 19.5916 9.09924 19.5307 9.09924C18.94 9.14796 18.3493 9.19668 17.7586 9.25149C17.5089 9.27584 17.448 9.32456 17.4115 9.57424ZM32.9463 27.9225C32.928 27.8555 32.9098 27.8007 32.8915 27.7459C32.8793 27.7459 32.8692 27.7459 32.861 27.7459C32.8428 27.8129 32.8184 27.886 32.788 27.9834C32.8611 27.953 32.8976 27.9408 32.9463 27.9225Z" fill="#062818"/>
<path d="M27.3873 26.6363C27.3934 26.5572 27.4055 26.4719 27.3995 26.3988C27.3507 25.5402 27.1741 24.6998 26.9975 23.8655C26.9123 23.4575 26.8087 23.0617 26.7113 22.6597C26.7032 22.6354 26.687 22.6151 26.6626 22.5988C26.9245 23.9386 27.2411 25.2722 27.3203 26.6363C27.3406 26.6363 27.3629 26.6363 27.3873 26.6363Z" fill="#062818"/>
<path d="M16.9367 25.0112C17.1925 24.4631 16.3521 21.8872 15.8467 21.6314C16.2182 22.0759 16.4252 22.5814 16.5592 23.1051C16.6992 23.6836 16.7967 24.2743 16.9124 24.865C16.9246 24.9137 16.9306 24.9625 16.9367 25.0112Z" fill="#062818"/>
<path fill-rule="evenodd" clip-rule="evenodd" d="M22.7749 16.3456C22.9636 16.5588 22.9149 16.6988 22.6287 16.7476C22.3181 16.8024 22.0197 16.7963 21.7213 16.6684C21.6604 16.644 21.5569 16.6501 21.496 16.6867C21.2037 16.8572 20.881 16.9242 20.546 16.912C20.3329 16.9059 20.272 16.8206 20.3512 16.6197C20.4851 16.2786 20.7531 16.0472 21.0454 15.8524C21.1185 15.8097 21.2281 15.8219 21.3255 15.8097C21.4534 15.8036 21.5874 15.8158 21.7153 15.7915C21.7762 15.7854 21.831 15.7184 21.8858 15.6819C21.4351 15.6879 21.4351 15.6879 21.3742 15.5966C21.4351 15.5966 21.4838 15.5966 21.5387 15.5966C21.5996 15.5966 21.6544 15.5966 21.7153 15.5905C21.8736 15.5661 21.9101 15.5235 21.8614 15.3652C21.7762 15.0546 21.6726 14.7501 21.5813 14.4456C21.5752 14.4152 21.5752 14.3847 21.5691 14.3543C21.5894 14.3502 21.6097 14.3462 21.63 14.3421C21.8188 14.7867 21.9893 15.2312 22.0136 15.7427C22.3303 15.8402 22.5556 16.0899 22.7749 16.3456ZM21.4534 16.6014C21.5508 16.5344 21.6422 16.5222 21.7518 16.577C21.8614 16.6258 21.9893 16.6501 22.1354 16.6988C21.9771 16.4492 21.8431 16.2299 21.697 16.0229C21.6787 15.9924 21.6056 15.9863 21.5691 15.9985C21.5204 16.0168 21.4717 16.0594 21.4534 16.1081C21.356 16.303 21.2707 16.4979 21.1855 16.6988C21.1936 16.707 21.2017 16.7151 21.2098 16.7232C21.2951 16.6806 21.3803 16.6501 21.4534 16.6014ZM20.6739 16.7902C20.8871 16.8511 21.0271 16.7963 21.1185 16.6136C21.2281 16.4025 21.3377 16.1914 21.4473 15.9802C21.4351 15.9721 21.425 15.964 21.4169 15.9559C21.0332 16.102 20.8749 16.4674 20.6739 16.7902ZM22.4643 16.4613C22.5252 16.5283 22.6044 16.5709 22.6774 16.6136C22.7018 16.6258 22.7566 16.6075 22.781 16.5831C22.7931 16.5709 22.7931 16.5161 22.7749 16.4979C22.5739 16.2299 22.3547 15.9681 22.038 15.828C21.9954 15.8097 21.9406 15.8219 21.8736 15.8219C22.0867 16.0533 22.2694 16.2604 22.4643 16.4613ZM21.0697 15.9559C20.8688 16.1447 20.68 16.3395 20.4851 16.5405C20.4547 16.571 20.4364 16.6318 20.4242 16.6806C20.4181 16.7232 20.4303 16.7658 20.4364 16.8024C20.473 16.7902 20.5156 16.7841 20.5521 16.7719C20.5765 16.7597 20.5947 16.7354 20.613 16.711C20.7957 16.4065 20.9906 16.1142 21.3133 15.9315C21.3093 15.9194 21.3032 15.9072 21.2951 15.895C21.222 15.9133 21.1246 15.9133 21.0697 15.9559ZM22.2511 16.6379C22.2999 16.6927 22.4338 16.6745 22.5374 16.6684C22.2511 16.4309 22.105 16.0533 21.7518 15.9011C21.7356 15.9173 21.7173 15.9356 21.697 15.9559C21.8797 16.1812 22.0563 16.4248 22.2511 16.6379Z" fill="#062818"/>
<path fill-rule="evenodd" clip-rule="evenodd" d="M20.4165 13.3445C20.5018 13.3871 20.5931 13.4906 20.5992 13.5759C20.6175 13.7037 20.4896 13.7525 20.38 13.7829C20.3556 13.791 20.3313 13.7971 20.3069 13.8012C19.9781 13.8682 19.6492 13.9352 19.3204 13.996C19.2534 14.0082 19.1438 14.0021 19.1133 13.9595C19.0829 13.9169 19.0951 13.8073 19.1255 13.7464C19.3204 13.4236 19.6127 13.2531 20.039 13.2166C20.1364 13.247 20.2887 13.2775 20.4165 13.3445ZM19.3874 13.8925C19.6797 13.8316 19.972 13.7707 20.2582 13.7098C20.3617 13.6916 20.4957 13.6916 20.514 13.5576C20.5201 13.4236 20.3983 13.3932 20.2947 13.3566C19.905 13.2105 19.3935 13.4114 19.2108 13.7829C19.1925 13.8194 19.1864 13.856 19.1621 13.9291C19.2595 13.9108 19.3265 13.9047 19.3874 13.8925Z" fill="#062818"/>
<path fill-rule="evenodd" clip-rule="evenodd" d="M22.4362 13.7821C22.3591 13.7821 22.2819 13.7821 22.2048 13.7821C22.1256 13.7821 22.0404 13.8003 21.9612 13.7821C21.7846 13.7577 21.742 13.6481 21.8394 13.508C22.0282 13.2279 22.351 13.1548 22.7163 13.3314C22.826 13.3802 22.9295 13.4654 23.0026 13.5628C23.0939 13.6725 23.0391 13.7699 22.8929 13.776C22.7407 13.7821 22.5885 13.776 22.4362 13.776C22.4362 13.78 22.4362 13.7821 22.4362 13.7821ZM22.9295 13.6907C22.9234 13.5202 22.7651 13.4045 22.5093 13.3497C22.1926 13.2766 21.9978 13.3619 21.8455 13.6664C22.2231 13.7334 22.5763 13.6603 22.9295 13.6907Z" fill="#062818"/>
<path d="M19.5492 14.8415C19.5796 14.8415 19.6101 14.8171 19.6101 14.7806C19.6101 14.47 19.7623 14.2021 19.945 14.2021C20.1216 14.2021 20.2739 14.47 20.2739 14.7806C20.2739 14.8171 20.3043 14.8415 20.3348 14.8415C20.3713 14.8415 20.3956 14.8171 20.3956 14.7806C20.3956 14.3908 20.1947 14.0803 19.945 14.0803C19.6892 14.0803 19.4883 14.3908 19.4883 14.7806C19.4883 14.8171 19.5126 14.8415 19.5492 14.8415Z" fill="#062818"/>
<path d="M22.0145 14.8412C22.045 14.8412 22.0754 14.8169 22.0754 14.7803C22.0754 14.4393 22.2216 14.2018 22.3494 14.2018C22.4773 14.2018 22.6235 14.4393 22.6235 14.7803C22.6235 14.8169 22.6478 14.8412 22.6844 14.8412C22.7148 14.8412 22.7453 14.8169 22.7453 14.7803C22.7453 14.3906 22.5687 14.08 22.3494 14.08C22.1241 14.08 21.9536 14.3906 21.9536 14.7803C21.9536 14.8169 21.978 14.8412 22.0145 14.8412Z" fill="#062818"/>
<g style="mix-blend-mode:multiply" opacity="0.3">
<path d="M11.6874 33.7925C11.8031 34.2127 11.7909 34.1214 11.456 34.2736C11.3403 34.3284 11.2124 34.365 11.1149 34.2675C11.0723 34.2249 11.0906 34.1153 11.0784 34.0361C11.048 33.7925 11.0175 33.5489 10.9871 33.3054C11.1515 33.08 11.3403 32.8365 11.5412 32.605C11.6387 32.8852 11.6752 33.1775 11.6508 33.4759C11.6387 33.5794 11.6569 33.6951 11.6874 33.7925Z" fill="#EFC8AB"/>
</g>
<g style="mix-blend-mode:multiply" opacity="0.1">
<path d="M11.9699 33.8774C11.9882 33.9809 11.9699 34.0357 11.842 34.0662C11.8116 33.8591 11.7507 33.6582 11.7567 33.4633C11.7628 33.1344 11.7141 32.83 11.6106 32.5255C11.6715 32.4565 11.7324 32.3915 11.7933 32.3306C11.8785 32.6168 11.8968 32.9152 11.8968 33.2197C11.8968 33.4389 11.9334 33.6582 11.9699 33.8774Z" fill="#AA2D29"/>
</g>
<g style="mix-blend-mode:multiply" opacity="0.3">
<path d="M16.2854 29.4203C16.1271 29.6882 15.9809 29.9623 15.8043 30.218C15.4267 30.7722 15.0492 31.3264 14.6533 31.8683C14.4889 32.0876 14.3001 32.2885 14.0931 32.4712C13.8008 32.7331 13.4902 32.9888 13.0944 33.1046C12.729 33.2081 12.4489 33.4151 12.2418 33.7318C12.1992 33.7927 12.1444 33.8414 12.0957 33.9023C12.0794 33.8982 12.0632 33.8942 12.0469 33.8901C12.0226 33.7196 11.9739 33.543 11.9861 33.3786C12.0104 32.9888 11.9678 32.6174 11.8643 32.2642C12.2357 31.8988 12.6316 31.6491 12.9726 31.7039C14.0078 31.8623 15.1162 30.827 15.2501 30.1206C15.3902 29.4081 15.1892 27.502 15.9383 26.9905C16.6751 26.4972 15.8774 22.9408 15.8408 22.7825C15.9931 23.227 16.1392 23.6655 16.2915 24.104C16.6325 25.0783 16.8274 26.077 16.8456 27.1123C16.8578 27.9344 16.7117 28.7078 16.2854 29.4203Z" fill="#EFC8AB"/>
</g>
<g style="mix-blend-mode:multiply" opacity="0.3">
<path d="M16.4385 42.8906C16.3107 42.8723 16.2559 42.8053 16.2437 42.6652C16.2071 42.0015 16.1523 41.3316 16.1097 40.6678C16.1036 40.6008 16.1097 40.5217 16.1462 40.4669C16.2558 40.2659 16.2619 40.0528 16.2741 39.8335C16.2863 39.6508 16.3107 39.4742 16.335 39.2976C16.402 38.8957 16.4994 38.4999 16.4325 38.0919C16.2924 37.1906 16.3411 36.2954 16.4568 35.4002C16.5421 34.7243 16.5482 34.0422 16.4203 33.3784C16.3228 32.873 16.3167 32.3736 16.335 31.8621C16.3594 31.2105 16.3959 30.5467 16.1523 29.9134C16.1401 29.8769 16.1645 29.8099 16.1889 29.7733C16.4629 29.3531 16.6943 28.9086 16.8161 28.4153C17.0475 27.514 16.9683 26.6128 16.8222 25.7176C16.676 24.8163 16.3594 23.9698 16.0366 23.1173C16.2437 23.4948 16.5908 24.1586 16.9318 24.9807C16.9359 24.9888 16.9399 24.997 16.944 25.0051C17.6808 26.7833 18.3872 29.3044 17.6626 31.3567C16.5847 34.4198 17.8331 40.3938 19.3312 42.8114C18.509 42.8418 17.6808 42.8966 16.8587 42.9332C16.7187 42.9393 16.5786 42.9088 16.4385 42.8906Z" fill="#EFC8AB"/>
</g>
<g style="mix-blend-mode:multiply" opacity="0.1">
<path d="M19.807 43.4371C19.0153 43.433 18.2257 43.4269 17.4381 43.4188C17.225 43.4188 17.0118 43.4432 16.7987 43.4371C16.4333 43.431 16.342 43.3336 16.3054 42.9682C16.4577 42.9864 16.6099 43.023 16.7561 43.023C17.0666 43.023 17.3772 43.0169 17.6878 42.9925C18.2562 42.9479 18.8245 42.9174 19.3929 42.9012C19.5269 43.1082 19.6669 43.2909 19.807 43.4371Z" fill="#AA2D29"/>
</g>
<g style="mix-blend-mode:multiply" opacity="0.3">
<path d="M17.5708 49.4069C17.1749 49.3643 16.706 49.005 16.6878 48.5909C16.6695 48.1464 16.6269 47.6896 16.5233 47.2573C16.2128 45.9967 15.9205 44.73 15.7682 43.439C15.6647 42.556 15.6099 41.6791 15.9083 40.8204C15.9286 40.7555 15.9509 40.6925 15.9753 40.6317C16.0179 40.6986 16.0301 40.7595 16.0301 40.8204C16.0666 41.332 16.0971 41.8435 16.1397 42.355C16.1641 42.6352 16.2067 42.9214 16.2554 43.2015C16.2919 43.3842 16.4198 43.4938 16.6025 43.506C16.7669 43.5243 16.9253 43.5304 17.0836 43.5304C17.7048 43.5182 18.3198 43.4877 18.941 43.4938C20.0919 43.4999 21.2368 43.5425 22.3877 43.5364C22.3877 43.5364 16.6878 45.0528 17.5708 49.4069Z" fill="#7280C4"/>
</g>
<g style="mix-blend-mode:multiply" opacity="0.3">
<path d="M31.5778 31.2225C31.5291 31.5635 31.4195 31.9045 31.4865 32.2699C31.3586 32.1968 31.2368 32.1238 31.1333 32.0263C30.8653 31.7584 30.5487 31.6183 30.1772 31.5757C30.0067 31.5574 29.8423 31.5026 29.6839 31.4478C29.4769 31.3686 29.282 31.2712 29.0628 31.2103C28.533 31.0703 28.0214 30.8571 27.5952 30.5039L27.4186 30.2481C27.5038 29.1033 27.4368 27.8184 27.3211 26.6369C27.3171 26.6085 27.315 26.5781 27.315 26.5456C27.242 25.8453 27.1506 25.1815 27.0593 24.6091C27.0593 24.605 27.0593 24.603 27.0593 24.603C26.9009 23.5616 26.7426 22.8126 26.7122 22.6786C26.7122 22.6665 26.7122 22.6604 26.7122 22.6604C27.5525 23.3059 28.4538 27.6417 28.4234 28.1594C28.3929 28.677 28.6974 29.9558 29.55 29.7122C30.4025 29.4687 30.3112 29.6514 30.7679 30.3638C30.9141 30.5953 31.2246 30.9058 31.5778 31.2225Z" fill="#EFC8AB"/>
</g>
<g style="mix-blend-mode:multiply" opacity="0.3">
<path d="M31.8582 32.3492C31.8582 32.3553 31.846 32.3675 31.846 32.3797C31.6329 32.3553 31.5842 32.331 31.5842 32.1239C31.5781 31.8743 31.6024 31.6246 31.6512 31.3749C31.6552 31.3505 31.6593 31.3262 31.6633 31.3018C31.6877 31.3201 31.7121 31.3444 31.7303 31.3627C31.6938 31.6976 31.706 32.0265 31.8582 32.3492Z" fill="#EFC8AB"/>
</g>
<g style="mix-blend-mode:multiply" opacity="0.3">
<path d="M32.2428 32.434C32.1271 32.4827 31.9992 32.4279 31.9565 32.3304C31.8165 32.0381 31.7799 31.7397 31.8165 31.4352C31.987 31.5814 32.1636 31.7275 32.328 31.8615C32.3361 31.9752 32.3503 32.0889 32.3706 32.2025C32.395 32.3426 32.3463 32.3913 32.2428 32.434Z" fill="#EFC8AB"/>
</g>
<g style="mix-blend-mode:multiply" opacity="0.3">
<path d="M18.5086 17.1855C18.4356 17.3621 18.2833 17.3926 18.1494 17.2951C18.3686 16.8567 18.1128 16.2477 18.0154 16.0528C18.1433 16.0833 18.2711 16.1198 18.3869 16.0955C18.5086 16.0711 18.5574 16.1076 18.6 16.1868C18.6365 16.2477 18.6548 16.3147 18.6731 16.3756C18.7583 16.674 18.6061 16.9298 18.5086 17.1855Z" fill="#4C4C4C"/>
</g>
<g style="mix-blend-mode:multiply" opacity="0.3">
<path d="M22.9669 10.3413C22.4858 10.1951 22.0413 10.0733 21.6089 9.92719C21.2618 9.81148 20.9208 9.79322 20.5736 9.8602C20.4092 9.89674 20.2448 9.90892 20.0804 9.94546C19.6541 10.049 19.2339 10.1708 18.9538 10.5544C18.9355 10.5849 18.9051 10.6031 18.8807 10.6214C18.6006 10.8163 18.3144 10.999 18.0403 11.1999C17.9246 11.2852 17.8089 11.3765 17.7358 11.4922C17.4922 11.8515 17.2608 12.2169 17.0355 12.5823C16.9685 12.6919 16.9137 12.8137 16.8589 12.9294C16.8041 12.7163 16.7432 12.5092 16.7006 12.3022C16.6762 12.1723 16.662 12.0464 16.658 11.9246C17.5958 10.6701 19.2156 9.89065 19.849 9.5679C20.3361 9.32431 21.8342 9.64706 22.6868 9.8602C22.7477 9.93328 22.8045 10.0084 22.8573 10.0855C22.8999 10.1525 22.9243 10.2317 22.9669 10.3413Z" fill="#E28242"/>
</g>
<g style="mix-blend-mode:multiply" opacity="0.3">
<path d="M23.6547 12.2955C23.606 12.2529 23.5816 12.2346 23.5573 12.2102C23.271 11.8692 22.9178 11.6135 22.5037 11.449C21.913 11.2176 21.3223 10.9862 20.7316 10.7731C20.2079 10.5843 19.672 10.4625 19.1118 10.5478C19.1077 10.5315 19.1016 10.5153 19.0935 10.499C19.1666 10.4442 19.2397 10.3833 19.3188 10.3346C19.8791 10.2128 20.8473 10.1032 21.5233 10.5478C22.2297 11.0227 23.1188 11.2481 23.7034 11.2359C23.7217 11.583 23.6791 11.9301 23.6547 12.2955Z" fill="#E28242"/>
</g>
<g style="mix-blend-mode:multiply" opacity="0.3">
<path d="M23.7537 13.726C23.705 13.9331 23.5406 14.0975 23.3457 14.2437C23.3275 14.0062 23.3153 13.793 23.2848 13.586C23.2787 13.519 23.2605 13.4398 23.2178 13.3911C23.0351 13.1719 22.7855 13.044 22.5297 12.9405C21.8436 12.6563 21.1352 12.4695 20.4044 12.3802C20.1852 12.3498 19.9781 12.3863 19.8076 12.5142C19.1134 13.044 18.474 13.6164 18.2182 14.4872C17.8833 14.1279 17.731 14.1036 17.4083 14.4324C17.3108 14.2558 17.2073 14.0853 17.1099 13.9148C17.7127 13.6651 18.6262 13.0074 19.2595 12.5446C20.1304 11.9052 20.4348 12.1123 21.7015 12.5446C22.5601 12.8308 23.3762 12.9039 23.8207 12.9222C23.8573 13.1901 23.8085 13.4581 23.7537 13.726Z" fill="#E28242"/>
</g>
<g style="mix-blend-mode:multiply" opacity="0.3">
<path d="M22.711 19.7441C22.4492 19.0255 21.7062 18.2643 21.4626 18.0207C21.755 18.0207 22.0533 17.9842 22.3517 17.8989C22.3457 17.9598 22.3457 18.0025 22.3457 18.0451C22.3396 18.1852 22.3091 18.3313 22.3396 18.4592C22.4126 18.7271 22.504 18.989 22.6136 19.2387C22.6867 19.4275 22.7232 19.5919 22.711 19.7441Z" fill="#F2AE6F"/>
</g>
<g style="mix-blend-mode:multiply" opacity="0.3">
<path d="M18.7227 16.96C18.7288 17.3559 18.808 18.7808 19.283 19.7978C19.0759 19.6151 18.8872 19.3898 18.7349 19.128C18.601 18.9026 18.5522 18.6651 18.5766 18.4033C18.607 18.0257 18.6253 17.6542 18.6618 17.2828C18.6679 17.1732 18.6923 17.0696 18.7227 16.96Z" fill="#F2AE6F"/>
</g>
<g style="mix-blend-mode:multiply" opacity="0.3">
<path d="M34.4577 29.7492C34.2872 29.8101 34.1228 29.8832 33.9644 29.9806C33.5321 30.2425 33.051 30.4373 32.5942 30.6566C32.5273 30.6931 32.4603 30.7235 32.3872 30.7601C32.375 30.7296 32.3689 30.7175 32.3689 30.6992C32.3507 29.8344 32.4298 28.9758 32.7343 28.1598C32.7526 28.0989 32.8257 28.0441 32.8866 28.0197C32.9434 27.9994 33.0002 27.9791 33.0571 27.9588C33.0632 28.3851 33.191 29.536 34.4577 29.7492Z" fill="#F2AE6F"/>
</g>
<g style="mix-blend-mode:multiply" opacity="0.3">
<path d="M36.5707 27.1001C36.5707 27.1001 36.2479 27.8613 35.7181 28.0196C35.1822 28.184 36.0287 28.7443 36.4854 28.653C36.9422 28.5616 39.1649 27.502 39.2014 27.4411C39.2014 27.4411 38.7203 27.3802 37.3502 28.044C37.3502 28.044 37.4232 27.6664 37.1857 27.5751C37.1857 27.5751 37.2284 27.0757 37.003 27.1001C36.7716 27.1244 36.7838 26.9722 36.5707 27.1001Z" fill="#F2AE6F"/>
</g>
<g style="mix-blend-mode:multiply" opacity="0.3">
<path d="M10.8049 32.7028C10.1777 32.5323 9.58091 32.3922 8.99021 32.2034C8.66745 32.106 8.3447 32.0512 8.00977 32.0268C9.78796 31.6919 9.93411 30.4922 9.9402 30.1695C9.9605 30.1938 9.97877 30.2202 9.99501 30.2486C10.0681 30.4191 10.1594 30.5836 10.2386 30.748C10.537 31.357 10.6771 32.0146 10.8049 32.7028Z" fill="#F2AE6F"/>
</g>
<g style="mix-blend-mode:multiply" opacity="0.3">
<path d="M5.76904 30.1082C5.76904 30.1082 6.00045 30.2666 5.88475 30.4371C5.88475 30.4371 6.09789 30.6076 5.97 30.7842C5.97 30.7842 6.17096 31.046 6.00654 31.247C6.00654 31.247 6.28058 31.789 7.29756 31.6672C8.32063 31.5454 7.95525 31.3383 7.95525 31.3383C7.95525 31.3383 6.94436 31.247 6.81038 30.4188C6.6825 29.5906 5.80558 30.1082 5.80558 30.1082" fill="#F2AE6F"/>
</g>
<g style="mix-blend-mode:multiply">
<path d="M4.69517 48.5196L4.58058 49.8838C4.58058 49.8838 5.60102 52.5632 2.37598 53.1143V52.1157L4.69517 48.5196Z" fill="#BCBEC0"/>
</g>
<path d="M4.30197 49.8351C4.46022 49.3003 4.6785 48.5472 4.69487 48.52C4.70579 48.4818 4.06732 48.7873 3.67443 48.9838C3.23241 48.6182 2.64852 48.4272 2.03735 48.4981C0.842279 48.64 -0.00900173 49.7205 0.132878 50.9155C0.274759 52.1052 1.35523 52.9619 2.5503 52.82C3.73991 52.6781 4.59119 51.5977 4.44931 50.4026C4.42748 50.2061 4.37291 50.0152 4.30197 49.8351Z" fill="#E6E7E8"/>
<path d="M2.34828 49.868C2.35192 49.8607 2.35737 49.8535 2.36465 49.8462C2.42468 49.7425 2.46287 49.6279 2.46833 49.5079C2.47379 49.4151 2.46833 49.2787 2.56656 49.235C2.64295 49.1968 2.74118 49.2459 2.77938 49.3223C2.82303 49.3987 2.81757 49.4915 2.81757 49.5733C2.80666 49.7225 2.79211 49.8717 2.77392 50.0208C2.91944 50.039 3.06496 50.059 3.21047 50.0808C3.29779 50.0918 3.3851 50.1027 3.45604 50.1518C3.53243 50.1954 3.58155 50.2827 3.55972 50.3701C3.52698 50.4847 3.37418 50.5119 3.25959 50.5065C3.39055 50.5229 3.5106 50.6484 3.50515 50.7848C3.49969 50.9212 3.35235 51.0413 3.22139 51.0031C3.3087 51.0085 3.37964 51.1067 3.36872 51.1941C3.36327 51.2868 3.29778 51.3687 3.22139 51.4123C3.13953 51.456 3.05222 51.4724 2.95946 51.4887C2.61567 51.5378 2.26097 51.5433 1.91718 51.4942C1.86807 51.4887 1.8135 51.4778 1.76984 51.4505C1.72073 51.4178 1.69345 51.3632 1.67708 51.3141C1.62251 51.1559 1.64434 50.9812 1.68253 50.8175C1.71528 50.6793 1.75529 50.5429 1.80259 50.4083C1.82441 50.3373 1.85716 50.2609 1.90627 50.2064C1.97175 50.1245 2.05906 50.13 2.14092 50.0754C2.22277 50.0208 2.29371 49.9499 2.34828 49.868Z" fill="#2551DE"/>
<path d="M1.5244 51.2656C1.54077 51.3256 1.55169 51.3856 1.51895 51.4238C1.49166 51.4566 1.44801 51.4566 1.40435 51.4566C1.33523 51.4566 1.26429 51.4566 1.19153 51.4566C1.1697 51.4566 1.14242 51.4566 1.12605 51.4457C1.08239 51.4293 1.06602 51.3747 1.05511 51.3311C0.973254 50.9764 1.03328 50.5944 1.21882 50.2888C1.24064 50.2506 1.26793 50.2124 1.30613 50.1906C1.33341 50.1796 1.37161 50.1742 1.40435 50.1742C1.4862 50.1687 1.56806 50.1633 1.64446 50.1633C1.69903 50.1633 1.75359 50.1578 1.72631 50.2288C1.69903 50.2997 1.64991 50.3706 1.62263 50.4416C1.56806 50.578 1.51895 50.7199 1.49712 50.8672C1.48075 50.9654 1.48075 51.0691 1.49712 51.1728C1.49712 51.1946 1.51349 51.2328 1.5244 51.2656Z" fill="#2551DE"/>
<path d="M54.0443 52.8152C52.8547 52.6733 52.0035 51.5928 52.1453 50.4032C52.2818 49.2081 53.3677 48.3568 54.5573 48.4987C55.7524 48.6406 56.6036 49.7211 56.4618 50.9161C56.3199 52.1058 55.2394 52.957 54.0443 52.8152Z" fill="#E6E7E8"/>
<path d="M53.2315 49.1318C53.2315 49.1318 51.8837 48.4661 51.9001 48.5152C51.9219 48.5643 52.4457 50.3705 52.4457 50.3705L53.2315 49.1318Z" fill="#E6E7E8"/>
<path d="M55.1368 50.0536C55.0112 49.9445 54.8312 49.9063 54.6729 49.9445C54.5201 49.9827 54.3837 50.0918 54.3018 50.2282C54.2254 50.0918 54.0945 49.9772 53.9362 49.939C53.778 49.9008 53.5979 49.9336 53.4724 50.0427C53.2978 50.201 53.265 50.4738 53.3469 50.6921C53.4287 50.9049 53.6088 51.0741 53.8107 51.1941C53.9799 51.2869 54.1054 51.3578 54.2964 51.3906C54.4874 51.3578 54.6183 51.2923 54.7821 51.1996C54.9894 51.085 55.1695 50.9158 55.2568 50.703C55.3441 50.4847 55.3059 50.2119 55.1368 50.0536Z" fill="#FF5C5C"/>
<g style="mix-blend-mode:multiply">
<path d="M12.7385 18.1192L13.8627 16.9678C13.8627 16.9678 15.3633 16.8041 15.9527 15.6527H13.8627L12.7385 18.1192Z" fill="#BCBEC0"/>
</g>
<path d="M10.7092 14.0369C10.7092 12.5854 11.8825 11.4121 13.3286 11.4121C14.7801 11.4121 15.9533 12.5854 15.9533 14.0369C15.9533 15.3902 14.922 16.5089 13.6014 16.6453L12.7392 18.1187L12.5591 16.5416C11.4896 16.2142 10.7092 15.2156 10.7092 14.0369Z" fill="white"/>
<path d="M13.3883 13.1097C13.3919 13.1024 13.3956 13.0933 13.3992 13.0824C13.4647 12.9842 13.5029 12.8641 13.5084 12.7441C13.5138 12.6513 13.5084 12.5203 13.6066 12.4712C13.683 12.433 13.7812 12.4876 13.8194 12.564C13.8576 12.6349 13.8576 12.7277 13.8521 12.815C13.8449 12.9642 13.8321 13.1115 13.8139 13.257C13.9595 13.2788 14.105 13.2988 14.2505 13.317C14.3378 13.328 14.4251 13.3443 14.4961 13.388C14.567 13.4316 14.6216 13.5244 14.5997 13.6063C14.5615 13.7208 14.4142 13.7536 14.2942 13.7427C14.4306 13.759 14.5506 13.8846 14.5397 14.021C14.5343 14.1629 14.3924 14.2775 14.256 14.2393C14.3487 14.2502 14.4142 14.3429 14.4088 14.4357C14.4033 14.5285 14.3378 14.6049 14.2614 14.6485C14.1796 14.6976 14.0868 14.714 13.9995 14.7249C13.6557 14.7795 13.301 14.7795 12.9572 14.7304C12.9026 14.7249 12.8481 14.714 12.8099 14.6867C12.7608 14.654 12.7335 14.6049 12.7116 14.5503C12.6571 14.3921 12.6844 14.2229 12.7226 14.0592C12.7517 13.9209 12.7899 13.7845 12.8372 13.6499C12.8644 13.5735 12.8917 13.5026 12.9408 13.4425C13.0063 13.3607 13.0991 13.3661 13.1809 13.3116C13.2628 13.257 13.3337 13.1915 13.3883 13.1097Z" fill="#2551DE"/>
<path d="M12.559 14.5012C12.5808 14.5613 12.5917 14.6213 12.559 14.6649C12.5317 14.6922 12.4826 14.6977 12.4444 14.6977C12.3716 14.6977 12.3007 14.6977 12.2316 14.6977C12.2097 14.6977 12.1825 14.6922 12.1606 14.6868C12.1224 14.6649 12.1006 14.6158 12.0951 14.5667C12.0133 14.2175 12.0733 13.8355 12.2589 13.5244C12.2807 13.4862 12.3025 13.4481 12.3462 13.4317C12.3735 13.4153 12.4062 13.4153 12.4389 13.4153C12.5208 13.4099 12.6026 13.3989 12.6845 13.4044C12.7391 13.4044 12.7882 13.3935 12.7664 13.4644C12.7391 13.5354 12.69 13.6063 12.6627 13.6827C12.6081 13.8191 12.559 13.961 12.5372 14.1029C12.5208 14.2066 12.5153 14.3102 12.5317 14.4085C12.5372 14.4358 12.5481 14.4685 12.559 14.5012Z" fill="#2551DE"/>
<defs>
<linearGradient id="paint0_linear_21_1017" x1="21.0797" y1="70.7694" x2="42.8043" y2="23.2701" gradientUnits="userSpaceOnUse">
<stop stop-color="#EEC272"/>
<stop offset="1" stop-color="#EEC272"/>
</linearGradient>
<linearGradient id="paint1_linear_21_1017" x1="60.4754" y1="3.9619" x2="43.5042" y2="57.5155" gradientUnits="userSpaceOnUse">
<stop stop-color="#A37010"/>
<stop offset="1" stop-color="#E7AF46"/>
</linearGradient>
<linearGradient id="paint2_linear_21_1017" x1="40.4364" y1="56.8029" x2="28.6872" y2="78.6227" gradientUnits="userSpaceOnUse">
<stop stop-color="#A37010"/>
<stop offset="1" stop-color="#A37010"/>
</linearGradient>
</defs>
</svg>
