<svg width="91" height="68" viewBox="0 0 91 68" fill="none" xmlns="http://www.w3.org/2000/svg">
<path d="M28.2128 2.20964L30.3825 2.03199C36.032 1.55371 38.0789 9.57517 32.7842 11.6249C32.3839 11.7798 31.9518 11.8937 31.4878 11.9666L19.9842 32.5736L13.3113 27.8045C13.3113 27.8045 11.5646 21.3955 16.9684 18.3619C14.8942 14.2896 16.9684 12.1442 18.7151 10.8734C18.6605 10.5545 18.6105 10.2311 18.565 9.90313C17.8691 4.57372 23.1501 0.419505 28.2128 2.20964Z" fill="#25232D"/>
<path d="M23.7769 14.2481L22.8354 20.7937C22.6034 22.4062 21.3889 23.6771 19.8059 23.9914L16.9812 24.538C16.9812 24.538 17.3633 33.5843 26.629 33.147C35.0895 32.7371 35.6217 25.7269 35.6217 25.7269L32.2375 24.538C30.7774 24.0324 29.7812 22.6795 29.6993 21.1354L29.5219 17.1861L23.7769 14.2481Z" fill="#E6BD81"/>
<path d="M29.6724 20.4657L29.5223 17.1861L27.2843 16.0382L24.7871 15.9698C24.7871 15.9698 25.2238 20.452 29.6724 20.4657Z" fill="#25232D"/>
<path d="M45.6924 44.5575L44.1095 36.3857H36.4813L36.0583 46.211C35.9082 49.5863 38.3645 52.5243 41.7077 52.9616L42.0353 53.0163C40.7798 52.6336 40.5069 50.2149 41.8306 48.3701C43.2907 46.3477 45.6924 44.5575 45.6924 44.5575Z" fill="#C16A5B"/>
<path d="M49.4184 51.4999L49.3502 57.5126L45.7204 58.1139C42.5545 57.7449 42.186 58.1002 42.3225 55.3399L42.3361 51.3906L49.4184 51.4999Z" fill="#C16A5B"/>
<path d="M32.238 24.5389C32.238 24.5389 31.3237 29.9913 26.6841 29.9503C23.5455 29.9093 20.6525 28.1192 19.8065 23.9923L12.9698 25.1812C9.66744 25.7688 7.04739 28.2695 6.29686 31.5355L4.74121 38.3681H13.1472L16.5996 49.1362L15.235 52.4295H37.0278V48.4666L39.5523 38.2041H45.4065L43.9327 31.2485C43.4278 28.8025 41.5583 26.8757 39.1429 26.2607L32.238 24.5389Z" fill="#FD934A"/>
<path d="M15.4529 38.3675L16.2307 34.3226C16.299 33.9536 16.8312 33.981 16.8585 34.3636C17.145 38.2172 18.4687 44.0249 24.009 43.3826L18.8781 50.8985L16.5992 49.1356L14.3066 41.9888L15.4529 38.3675Z" fill="#25232D"/>
<path d="M39.8533 37.2746L39.7168 37.2473L40.6857 33.2707L40.8221 33.298L39.8533 37.2746Z" fill="#25232D"/>
<path d="M33.37 24.826C32.8514 28.1193 30.5452 30.7976 27.4067 31.2896C23.4084 31.9045 19.6011 28.7615 18.8915 24.2657C18.8915 24.2247 18.8915 24.1837 18.8915 24.1564L17.8135 24.334C17.8226 24.3705 17.8271 24.4023 17.8271 24.4297C18.5504 29.0758 22.2621 32.4511 26.3968 32.4511C26.788 32.4511 27.1792 32.4192 27.5704 32.3555C31.1457 31.7952 33.8067 28.8025 34.4207 25.0856L33.37 24.826Z" fill="#F3DAC6"/>
<path d="M37.0277 52.429C37.0277 52.429 47.003 79.8823 47.6171 151.898H-2L8.13902 94.8593L18.2098 52.429H37.0277Z" fill="#F28F00"/>
<path d="M39.8515 145.106C39.7833 145.106 39.7424 145.051 39.7424 144.996C40.643 102.662 35.0345 62.1854 34.9799 61.7754C34.9663 61.7208 35.0208 61.6661 35.0754 61.6525C35.1437 61.6388 35.1982 61.6935 35.2119 61.7481C35.2665 62.1581 40.875 102.648 39.9607 144.996C39.9607 145.065 39.9198 145.106 39.8515 145.106Z" fill="#7F4800"/>
<path d="M29.4803 144.996H29.2483C29.2619 144.367 30.8995 82.7101 29.2483 63.2919L29.4803 63.2782C31.1314 82.6964 29.5076 144.381 29.4803 144.996Z" fill="#7F4800"/>
<path d="M18.3306 145.01L18.0986 144.982C18.1396 144.395 23.2978 85.8533 23.3251 63.2921H23.5571C23.5298 85.8669 18.3716 144.422 18.3306 145.01Z" fill="#7F4800"/>
<path d="M6.99077 145.024L6.75879 144.969C6.78608 144.846 9.28331 131.55 11.6031 115.043C13.7319 99.8196 16.12 78.666 15.4104 64.3585L15.6424 64.3448C16.352 78.6659 13.9639 99.847 11.8351 115.084C9.51529 131.591 7.00442 144.887 6.99077 145.024Z" fill="#7F4800"/>
<path d="M41.5031 74.7169C38.6648 89.161 28.4575 129.555 1.98417 136.333C0.114662 136.811 -1.61839 135.144 -1.24994 133.245L5.75048 97.483C6.10528 95.6929 6.24174 93.8618 6.21445 92.0443C5.88694 76.6983 10.2264 64.3587 15.2345 52.429H37.0272C37.0272 52.429 39.3607 56.4056 41.2029 63.7574C41.585 65.2606 41.817 66.7774 41.9125 68.3079C42.049 70.4397 41.9125 72.5988 41.5031 74.7169Z" fill="#FFA412"/>
<path d="M9.76183 67.242C8.49275 71.4782 7.48294 75.8511 6.85522 80.4972C22.7938 78.2835 30.6949 57.5671 32.4143 52.429H31.1179L9.76183 67.242Z" fill="#25232D"/>
<path d="M31.1721 24.5788C29.712 29.1703 22.2613 50.324 8.53332 53.8496L4.53503 75.6182C4.31669 76.7934 5.46296 77.75 6.56829 77.3401C13.7461 74.7027 34.2288 64.0438 39.8374 27.1342C39.9329 26.5056 39.5372 25.918 38.9367 25.7404L32.332 23.9502C31.8408 23.8136 31.3359 24.0869 31.1721 24.5788Z" fill="#EFC8AB"/>
<path d="M7.34682 72.5842L7.29224 72.4612C21.8935 66.0522 30.8863 49.0801 30.9818 48.9024L31.1046 48.9708C31.0773 49.0118 28.8257 53.3026 24.7865 58.3451C21.0611 62.9912 15.0023 69.2225 7.34682 72.5842Z" fill="#25232D"/>
<path d="M12.3527 65.3974L12.2844 65.2744C22.1778 59.7127 27.7045 49.2998 27.7591 49.2042L27.8955 49.2589C27.8409 49.3682 22.287 59.822 12.3527 65.3974Z" fill="#25232D"/>
<path d="M14.3341 59.9987L14.2795 59.8757C19.4105 57.58 24.4868 49.2715 24.5414 49.1895L24.6642 49.2715C24.6096 49.3535 19.5196 57.6893 14.3341 59.9987Z" fill="#25232D"/>
<path d="M44.7652 42.7812C44.7652 44.134 42.2543 45.2272 39.1703 45.2272C36.0727 45.2272 33.5754 44.134 33.5754 42.7812C33.5754 41.4283 36.0727 40.3351 39.1703 40.3351C42.2543 40.3351 44.7652 41.4283 44.7652 42.7812Z" fill="#F3DAC6"/>
<path d="M41.9128 68.3087C41.5944 68.3543 41.2715 68.3771 40.944 68.3771H36.8911C33.889 68.3771 31.0233 66.4366 29.3039 63.075C29.2857 63.0385 29.2675 63.0021 29.2493 62.9657C27.6936 59.8773 27.6254 55.9554 28.9081 52.6758C28.9354 52.5938 28.9673 52.5118 29.0037 52.4298H37.0276C37.0276 52.4298 39.361 56.4064 41.2032 63.7582C41.5853 65.2614 41.8173 66.7782 41.9128 68.3087Z" fill="#25232D"/>
<path d="M49.173 51.5129C48.3815 49.6681 47.208 47.509 45.5841 45.6232L46.8941 43.0815C47.2216 42.4529 46.7167 41.7286 45.9525 41.7286H39.1704H32.3747C31.6105 41.7286 31.1056 42.4529 31.4331 43.0815L32.7568 45.6232C31.1193 47.509 29.9594 49.6681 29.1542 51.5129C27.8715 54.4646 27.9397 58.0175 29.4954 60.8052C29.5136 60.8417 29.5318 60.8735 29.55 60.9009C31.283 63.9482 34.1351 65.6837 37.1372 65.6837H39.1704H41.2037C44.2058 65.6837 47.0579 63.9482 48.7773 60.9009C48.7955 60.8735 48.8137 60.8417 48.8319 60.8052C50.3875 58.0175 50.4557 54.4646 49.173 51.5129Z" fill="#90562A"/>
<path d="M44.4508 45.3095H33.957V45.6512H44.4508V45.3095Z" fill="#F0D39E"/>
<path d="M5.72296 38.3673H15.4526L13.7605 46.6347L27.2155 51.3356L31.0364 51.0213C31.9507 50.8436 36.5221 51.5952 36.5221 51.5952C36.9042 51.8685 36.9997 52.4014 36.7404 52.7977L35.2667 55.0935C35.062 55.4078 34.598 55.7221 34.0795 55.7357L31.8415 56.091C31.8415 56.091 30.0266 57.4166 27.0654 55.8997L11.9456 56.132C7.01933 55.6947 3.11656 51.7728 4.04449 46.9627L5.72296 38.3673Z" fill="#E6BD81"/>
<path d="M35.3076 52.4013L31.6641 52.128L31.6777 51.9777L35.3212 52.2646L35.3076 52.4013Z" fill="#25232D"/>
<path d="M34.6779 53.5761L31.1572 53.3028L31.1709 53.1661L34.6916 53.4258L34.6779 53.5761Z" fill="#25232D"/>
<path d="M33.8767 54.6562L30.6562 54.5332L30.6699 54.3829L33.8904 54.5196L33.8767 54.6562Z" fill="#25232D"/>
<path d="M27.7484 6.28123C26.9569 8.08504 25.374 10.9684 23.2861 11.2144V13.4554C23.2861 14.617 23.6819 15.7649 24.4597 16.6394C25.3467 17.637 26.8478 18.5799 29.2768 18.3476C32.6883 18.0333 33.4388 14.33 32.4972 12.1709L32.5927 10.3261C32.6746 8.52232 31.965 6.73219 30.5595 5.59798C30.5413 5.57976 30.5231 5.56609 30.5049 5.55698C29.577 4.81906 28.2124 5.20169 27.7484 6.28123Z" fill="#E6BD81"/>
<path d="M24.4465 11.829L23.7233 10.8314C23.1502 10.0525 21.9902 10.0662 21.4307 10.8451C21.035 11.419 21.0896 12.1843 21.5945 12.6762L22.9591 14.0291C23.3276 14.3844 23.928 14.2067 24.0371 13.7148L24.4465 11.829Z" fill="#E6BD81"/>
<path d="M23.6947 12.3756L22.9714 11.624C22.835 11.4873 22.6576 11.4053 22.4529 11.4053C22.2618 11.4053 22.0708 11.4736 21.9343 11.6103L21.9207 11.6376L21.8115 11.5283L21.8388 11.5146C22.0026 11.3507 22.2345 11.255 22.4529 11.255C22.6985 11.2687 22.9169 11.3507 23.0806 11.5283L23.8038 12.2799L23.6947 12.3756Z" fill="#25232D"/>
<path d="M23.7507 14.235C23.7507 14.563 23.4914 14.8226 23.1639 14.8226C22.8228 14.8226 22.5635 14.563 22.5635 14.235C22.5635 13.9071 22.8228 13.6338 23.1639 13.6338C23.4914 13.6338 23.7507 13.9071 23.7507 14.235Z" fill="#F3DAC6"/>
<path d="M24.4059 27.3802L22.1406 25.877L22.2225 25.7677L24.4877 27.2709L24.4059 27.3802Z" fill="#25232D"/>
<path d="M10.4482 46.8398L10.4346 46.6895L13.7642 46.5665V46.7032L10.4482 46.8398Z" fill="#25232D"/>
<path d="M30.3688 8.09941C30.3688 8.46837 30.205 8.75534 30.014 8.75534C29.823 8.75534 29.6729 8.46837 29.6729 8.09941C29.6729 7.74412 29.823 7.44348 30.014 7.44348C30.205 7.44348 30.3688 7.74412 30.3688 8.09941Z" fill="#AC2828"/>
<path opacity="0.4" d="M30.3688 8.09941C30.3688 8.46837 30.205 8.75534 30.014 8.75534C29.823 8.75534 29.6729 8.46837 29.6729 8.09941C29.6729 7.74412 29.823 7.44348 30.014 7.44348C30.205 7.44348 30.3688 7.74412 30.3688 8.09941Z" fill="black"/>
<path d="M28.5666 10.1067C27.0655 9.4234 26.1649 10.0793 26.1649 10.093L26.0693 9.98367C26.1103 9.94268 27.0519 9.25942 28.6212 9.97L28.5666 10.1067Z" fill="#25232D"/>
<path d="M32.2784 10.1084C31.3777 9.69845 30.6954 9.76678 30.2861 9.90343L30.2451 9.76678C30.6818 9.63013 31.405 9.54814 32.333 9.97176L32.2784 10.1084Z" fill="#25232D"/>
<path d="M27.7066 11.1462C27.7066 11.3922 27.5156 11.5835 27.2699 11.5835C27.0243 11.5835 26.8333 11.3922 26.8333 11.1462C26.8333 10.9002 27.0243 10.7089 27.2699 10.7089C27.5156 10.7089 27.7066 10.9002 27.7066 11.1462Z" fill="#25232D"/>
<path d="M31.6644 11.1464C31.6644 11.3924 31.4733 11.5837 31.2277 11.5837C30.9821 11.5837 30.791 11.3924 30.791 11.1464C30.791 10.9004 30.9821 10.7091 31.2277 10.7091C31.4733 10.7091 31.6644 10.9004 31.6644 11.1464Z" fill="#25232D"/>
<path d="M30.3277 13.4139H29.4817V13.2773H30.3277C30.4642 13.2773 30.6007 13.1953 30.6825 13.0723C30.7508 12.9493 30.7508 12.799 30.6825 12.6624L29.6182 10.6809L29.741 10.6126L30.8054 12.594C30.9009 12.7717 30.9009 12.9767 30.8054 13.1543C30.6962 13.3183 30.5188 13.4139 30.3277 13.4139Z" fill="#25232D"/>
<path d="M28.2393 14.1935H30.6137C30.6137 14.1935 30.5727 15.6147 29.522 15.6147C28.3348 15.6147 28.2393 14.1935 28.2393 14.1935Z" fill="white"/>
<path opacity="0.5" d="M27.6668 13.7291C27.6668 14.221 27.271 14.631 26.7661 14.631C26.2612 14.631 25.8655 14.221 25.8655 13.7291C25.8655 13.2235 26.2612 12.8135 26.7661 12.8135C27.271 12.8135 27.6668 13.2235 27.6668 13.7291Z" fill="#AC2828"/>
<path opacity="0.5" d="M32.8648 13.7291C32.8648 14.221 32.469 14.631 31.9641 14.631C31.4729 14.631 31.0635 14.221 31.0635 13.7291C31.0635 13.2235 31.4729 12.8135 31.9641 12.8135C32.469 12.8135 32.8648 13.2235 32.8648 13.7291Z" fill="#AC2828"/>
<path d="M50.414 50.5831C51.8195 50.5831 52.0515 56.3772 51.0008 56.6095L46.1428 56.3225C44.8874 56.2268 44.1914 55.6256 44.1914 54.915V53.1385C44.1914 51.936 45.5287 51.2937 47.1526 51.0887L50.414 50.5831Z" fill="#C16A5B"/>
<path d="M45.4062 52.9889L45.3789 52.8523L49.6228 52.087L49.6501 52.2237L45.4062 52.9889Z" fill="#25232D"/>
<path d="M45.3936 54.0409V53.8906L49.4328 53.5353V53.6856L45.3936 54.0409Z" fill="#25232D"/>
<path d="M45.3936 55.1072V54.9706L49.6784 54.9159V55.0525L45.3936 55.1072Z" fill="#25232D"/>
<path d="M66.828 26.1506H60.0596V18.5664H66.828V26.1506Z" fill="#C16A5B"/>
<path d="M60.0596 23.0896C60.66 23.3219 61.2604 23.4859 61.8199 23.4859C62.7888 23.4859 63.9214 22.9939 64.9176 22.4063C65.6954 21.9554 66.3368 21.2994 66.828 20.5479V18.5664H60.0596V23.0896Z" fill="#25232D"/>
<path d="M78.0584 29.7718L69.1475 26.9295C68.4652 26.7108 68.0013 26.0412 68.0013 25.2623V24.5107H63.4435H58.8857V25.2623C58.8857 26.0412 58.4217 26.7108 57.7394 26.9295L48.8285 29.7718L43.3701 79.8957H63.4435H83.5168L78.0584 29.7718Z" fill="#EFC8AB"/>
<path d="M63.4445 79.3216C63.1988 79.3216 62.9941 79.1166 62.9941 78.8707V26.6834C62.9941 26.4374 63.1988 26.2324 63.4445 26.2324C63.6901 26.2324 63.8948 26.4374 63.8948 26.6834V78.8707C63.8948 79.1166 63.6901 79.3216 63.4445 79.3216Z" fill="black"/>
<path d="M63.4447 7.9209L56.9492 9.24642L57.4541 16.161C57.5906 18.1698 58.6686 20.0009 60.3471 20.9985C61.3432 21.5861 62.4759 22.0643 63.4447 22.0643C64.4273 22.0643 65.5462 21.5861 66.5424 20.9985C68.2345 20.0009 69.2989 18.1698 69.4354 16.161L69.9403 9.24642L63.4447 7.9209Z" fill="#C16A5B"/>
<path opacity="0.5" d="M61.357 16.1206C61.357 16.8585 60.7566 17.4597 60.0197 17.4597C59.2828 17.4597 58.6824 16.8585 58.6824 16.1206C58.6824 15.3826 59.2828 14.7814 60.0197 14.7814C60.7566 14.7814 61.357 15.3826 61.357 16.1206Z" fill="#AE2828"/>
<path opacity="0.5" d="M68.2066 16.1196C68.2066 16.8575 67.6062 17.4588 66.8693 17.4588C66.1324 17.4588 65.532 16.8575 65.532 16.1196C65.532 15.3817 66.1324 14.7804 66.8693 14.7804C67.6062 14.7804 68.2066 15.3817 68.2066 16.1196Z" fill="#AE2828"/>
<path d="M56.7984 12.3215C56.3345 11.8979 55.5976 11.9252 55.1882 12.4171C54.5878 13.1004 54.5468 14.1116 55.079 14.8495L55.9387 16.0384C56.2935 16.5303 56.894 16.8036 57.508 16.749L58.0266 16.6943L56.7984 12.3215Z" fill="#C16A5B"/>
<path d="M70.0885 12.3215C70.5525 11.8979 71.2894 11.9252 71.6988 12.4171C72.2992 13.1004 72.3538 14.1116 71.8079 14.8495L70.9619 16.0384C70.5934 16.5303 69.993 16.8036 69.3789 16.749L68.874 16.6943L70.0885 12.3215Z" fill="#C16A5B"/>
<path d="M58.8322 9.95703C58.8322 9.95703 59.0505 12.0888 57.8087 13.8379L57.4403 16.161L56.3349 13.5646C55.9938 12.7584 55.9256 11.8565 56.1575 11.0093L56.4168 10.0527L58.8322 9.95703Z" fill="#25232D"/>
<path d="M68.0699 9.95703C68.0699 9.95703 67.8379 12.0888 69.0797 13.8379L69.4481 16.161L70.5535 13.5646C70.8946 12.7584 70.9629 11.8565 70.7309 11.0093L70.4716 10.0527L68.0699 9.95703Z" fill="#25232D"/>
<path d="M61.545 13.3874C61.545 13.6607 61.313 13.8931 61.0401 13.8931C60.7535 13.8931 60.5352 13.6607 60.5352 13.3874C60.5352 13.1141 60.7535 12.8818 61.0401 12.8818C61.313 12.8818 61.545 13.1141 61.545 13.3874Z" fill="#25232D"/>
<path d="M66.2823 13.3872C66.2823 13.6605 66.064 13.8928 65.7774 13.8928C65.5045 13.8928 65.2861 13.6605 65.2861 13.3872C65.2861 13.1139 65.5045 12.8816 65.7774 12.8816C66.064 12.8816 66.2823 13.1139 66.2823 13.3872Z" fill="#25232D"/>
<path d="M62.0536 12.3209C60.6481 11.9383 59.5291 12.3209 59.5154 12.3209L59.4199 12.0476C59.4745 12.0339 60.6208 11.6376 62.1218 12.0476L62.0536 12.3209Z" fill="#25232D"/>
<path d="M64.8356 12.3209L64.7673 12.0476C66.2684 11.6376 67.4147 12.0339 67.4693 12.0476L67.3737 12.3209C67.3601 12.3209 66.2548 11.9383 64.8356 12.3209Z" fill="#25232D"/>
<path d="M63.9911 16.0787H63.0359C62.8585 16.0787 62.6811 15.9967 62.5719 15.8464C62.4628 15.7098 62.4082 15.5321 62.4491 15.3681C62.6948 14.2476 63.3088 13.4277 63.4453 13.2637L63.2406 12.1158C63.2406 12.0748 63.2543 12.0338 63.2952 12.0338C63.3361 12.0202 63.3771 12.0475 63.3771 12.0885L63.5818 13.2774C63.5909 13.2956 63.5863 13.3138 63.5681 13.332C63.5681 13.3457 62.8585 14.2066 62.5856 15.3955C62.5583 15.5184 62.5992 15.6551 62.6811 15.7644C62.763 15.8737 62.8995 15.9284 63.0359 15.9284H63.9911C64.0321 15.9284 64.0594 15.9694 64.0594 16.0104C64.0594 16.0377 64.0321 16.0787 63.9911 16.0787Z" fill="#25232D"/>
<path d="M65.8996 16.243C65.3674 16.0791 64.8216 16.0107 64.2621 16.0107H63.4434H62.6246C62.0651 16.0107 61.5193 16.0791 60.9871 16.243C60.5777 16.3797 60.1274 16.5983 59.8271 16.9126C59.8271 16.9126 61.3828 17.8145 63.4434 17.8145C65.5176 17.8145 67.0596 16.9126 67.0596 16.9126C66.7593 16.5983 66.309 16.3797 65.8996 16.243Z" fill="#25232D"/>
<path d="M72.0003 7.66162C71.8911 7.60696 71.7728 7.5523 71.6455 7.49764L71.5363 5.52986C71.5227 5.1199 71.1952 4.77828 70.7721 4.73728L70.1717 4.66895C67.961 1.7856 63.5124 0.71972 63.4442 0.706055C63.376 0.71972 58.9273 1.7856 56.7167 4.66895L56.1299 4.73728C55.6932 4.77828 55.3657 5.1199 55.3521 5.52986L55.2429 7.49764C55.1155 7.5523 54.9973 7.60696 54.8881 7.66162C54.4924 7.85294 54.2877 8.29022 54.4105 8.71385C54.5743 9.31511 54.8335 10.2033 55.1474 11.0369C55.2975 11.4332 55.7615 11.6245 56.1572 11.4469C57.2625 10.9823 59.6915 10.1214 63.4442 9.69773C67.1969 10.1214 69.6395 10.9823 70.7448 11.4469C71.1269 11.6245 71.5909 11.4332 71.741 11.0369C72.0549 10.2033 72.3278 9.31511 72.4779 8.71385C72.6007 8.29022 72.396 7.85294 72.0003 7.66162Z" fill="#4A5C42"/>
<path d="M68.3033 9.36912C67.7711 9.31446 64.5779 9.56043 63.4453 9.69709C64.164 9.77908 64.8327 9.87473 65.4513 9.98406C66.1745 9.82007 67.2935 9.56044 68.3033 9.36912Z" fill="#25232D"/>
<path d="M71.6042 6.64972C69.9531 6.28076 65.5045 5.3242 63.2119 5.2832C65.8729 5.72049 70.5535 7.04601 71.6452 7.49696L71.6042 6.64972Z" fill="#25232D"/>
<path d="M69.2842 3.69922C67.1144 3.9042 61.3558 5.22972 59.4727 6.39126C61.7106 5.46203 68.7793 4.54646 70.1712 4.66945C69.9119 4.31415 69.6117 3.99985 69.2842 3.69922Z" fill="#25232D"/>
<path d="M49.0333 29.7713C45.5809 30.8782 39.5084 44.9397 36.6427 53.7537C35.9331 55.9265 36.3288 58.3179 37.7071 60.1353C39.754 62.841 47.5868 60.7639 47.5868 60.7639L46.7681 49.3945L49.0333 29.7713Z" fill="#EFC8AB"/>
<path d="M77.8555 29.7715C81.3079 30.8784 87.3804 46.197 90.2461 55.0111C90.9557 57.1838 90.56 59.5752 89.1953 61.3927C87.1348 64.0984 79.3156 62.0213 79.3156 62.0213L80.1207 49.3947L77.8555 29.7715Z" fill="#EFC8AB"/>
<path d="M46.3049 48.5885C46.3049 48.5885 49.5527 32.2176 49.5118 32.5592C49.4708 32.9145 48.3655 47.8916 48.3655 47.8916L46.3049 48.5885Z" fill="#25232D"/>
<path d="M80.5842 48.5882C80.5842 48.5882 77.3364 32.2174 77.3773 32.559C77.4183 32.9143 78.5236 47.8913 78.5236 47.8913L80.5842 48.5882Z" fill="#25232D"/>
<path d="M53.002 50.5429L53.0838 57.2115L57.0958 57.8811C60.6028 57.4712 61.0122 57.8538 60.8621 54.7928L60.8348 50.4336L53.002 50.5429Z" fill="#C16A5B"/>
<path d="M53.0035 50.5431C51.5024 51.8276 51.8435 55.0936 53.0853 57.2117L58.4619 56.8974C59.8674 56.7881 60.618 56.1185 60.618 55.3396V53.3581C60.618 52.0463 59.1442 51.322 57.3429 51.0897L53.0035 50.5431Z" fill="#C16A5B"/>
<path d="M59.2811 53.2075L59.3084 53.0572L54.6005 52.1963L54.5732 52.3603L59.2811 53.2075Z" fill="#25232D"/>
<path d="M59.2923 54.3552L59.306 54.2049L54.8301 53.8086L54.8164 53.9726L59.2923 54.3552Z" fill="#25232D"/>
<path d="M59.2928 55.5438V55.3935L54.5576 55.3252V55.4892L59.2928 55.5438Z" fill="#25232D"/>
<path d="M75.4544 50.4474C76.9554 51.7319 76.6143 54.9979 75.3725 57.116L69.9959 56.8017C68.5904 56.6923 67.8398 56.0227 67.8398 55.2438V53.2624C67.8398 51.9505 69.3136 51.2263 71.1149 50.994L75.4544 50.4474Z" fill="#C16A5B"/>
<path d="M69.1757 53.1118L69.1484 52.9615L73.8427 52.1006L73.87 52.2646L69.1757 53.1118Z" fill="#25232D"/>
<path d="M69.1621 54.2595L69.1484 54.1092L73.6243 53.7129L73.638 53.8769L69.1621 54.2595Z" fill="#25232D"/>
<path d="M69.1641 55.4481V55.2978L73.8992 55.2295V55.3935L69.1641 55.4481Z" fill="#25232D"/>
</svg>
