<svg width="35" height="35" viewBox="0 0 35 35" fill="none" xmlns="http://www.w3.org/2000/svg">
<path d="M15.5548 1.2281C15.5548 0.902387 15.4182 0.590015 15.1751 0.359702C14.932 0.129389 14.6023 0 14.2586 0C13.9148 0 13.5851 0.129389 13.342 0.359702C13.0989 0.590015 12.9623 0.902387 12.9623 1.2281V2.4562H6.80522C5.68793 2.4562 4.6164 2.87671 3.82635 3.62523C3.03631 4.37375 2.59246 5.38896 2.59246 6.44752V13.2021C2.59246 14.2606 3.03631 15.2758 3.82635 16.0244C4.6164 16.7729 5.68793 17.1934 6.80522 17.1934H20.6295L21.2841 15.253C21.3593 15.0718 21.4549 14.8989 21.5693 14.7372H6.80522C5.91082 14.7372 5.18493 14.0495 5.18493 13.2021V6.44752C5.18493 5.60013 5.91082 4.9124 6.80522 4.9124H21.7119C22.6063 4.9124 23.3322 5.60013 23.3322 6.44752V13.2021C23.3322 13.3437 23.3132 13.4792 23.2751 13.6086C23.4929 13.5586 23.715 13.5337 23.9414 13.5337C24.6234 13.5345 25.2816 13.7712 25.7924 14.1993C25.8797 13.8792 25.9238 13.5468 25.9246 13.2021V6.44752C25.9246 5.38896 25.4808 4.37375 24.6908 3.62523C23.9007 2.87671 22.8292 2.4562 21.7119 2.4562H15.5548V1.2281ZM4.21275 20.8777H15.2255C15.0181 21.2547 14.908 21.676 14.9067 22.1058C14.917 22.5368 15.0363 22.9581 15.2567 23.3339H4.21275C3.31835 23.3339 2.59246 24.0216 2.59246 24.869V25.4217C2.59246 27.1778 3.4739 28.7461 5.34307 29.9263C7.25112 31.1299 10.213 31.9306 14.2586 31.9306C17.875 31.9306 20.6269 31.2907 22.5337 30.2935C23.0005 30.5604 23.5394 30.6923 24.0842 30.6731C24.629 30.6539 25.156 30.4844 25.6006 30.1855C25.3972 30.5226 25.2858 30.9025 25.2765 31.2907C25.2765 31.3644 25.28 31.4365 25.2869 31.5069C25.0684 31.6697 24.8431 31.8242 24.6116 31.9699C22.1396 33.5296 18.6217 34.3868 14.2586 34.3868C9.89544 34.3868 6.37746 33.5296 3.90555 31.9699C1.39604 30.3856 0 28.0879 0 25.4217V24.869C0 23.8104 0.443842 22.7952 1.23389 22.0467C2.02393 21.2982 3.09546 20.8777 4.21275 20.8777ZM11.9901 9.82479C11.9901 10.3948 11.7512 10.9414 11.3257 11.3445C10.9003 11.7475 10.3234 11.974 9.72174 11.974C9.12012 11.974 8.54314 11.7475 8.11773 11.3445C7.69233 10.9414 7.45333 10.3948 7.45333 9.82479C7.45333 9.2548 7.69233 8.70815 8.11773 8.3051C8.54314 7.90205 9.12012 7.67562 9.72174 7.67562C10.3234 7.67562 10.9003 7.90205 11.3257 8.3051C11.7512 8.70815 11.9901 9.2548 11.9901 9.82479ZM18.7954 11.974C19.0933 11.974 19.3882 11.9184 19.6634 11.8104C19.9387 11.7024 20.1887 11.5441 20.3994 11.3445C20.61 11.1449 20.7771 10.908 20.8911 10.6472C21.0051 10.3865 21.0638 10.107 21.0638 9.82479C21.0638 9.54256 21.0051 9.26309 20.8911 9.00234C20.7771 8.74159 20.61 8.50467 20.3994 8.3051C20.1887 8.10553 19.9387 7.94722 19.6634 7.83922C19.3882 7.73121 19.0933 7.67562 18.7954 7.67562C18.1937 7.67562 17.6168 7.90205 17.1914 8.3051C16.766 8.70815 16.527 9.2548 16.527 9.82479C16.527 10.3948 16.766 10.9414 17.1914 11.3445C17.6168 11.7475 18.1937 11.974 18.7954 11.974ZM21.3723 24.5755C21.8654 25.0466 22.2368 25.6196 22.4572 26.2494L23.1676 28.3163C23.2264 28.4761 23.3362 28.6146 23.4818 28.7126C23.6274 28.8107 23.8017 28.8633 23.9803 28.8633C24.1589 28.8633 24.3331 28.8107 24.4788 28.7126C24.6244 28.6146 24.7342 28.4761 24.793 28.3163L25.5034 26.2494C25.7243 25.6211 26.0966 25.0503 26.591 24.5822C27.0853 24.114 27.688 23.7615 28.3512 23.5525L30.534 22.8807C30.7021 22.8244 30.8477 22.7202 30.9506 22.5823C31.0535 22.4444 31.1088 22.2796 31.1088 22.1107C31.1088 21.9418 31.0535 21.777 30.9506 21.6391C30.8477 21.5012 30.7021 21.397 30.534 21.3407L30.49 21.3309L28.3084 20.6591C27.645 20.4503 27.042 20.0978 26.5475 19.6296C26.0529 19.1615 25.6803 18.5906 25.4593 17.9622L24.7503 15.8953C24.6917 15.735 24.5819 15.5961 24.4362 15.4977C24.2904 15.3993 24.1158 15.3465 23.9369 15.3465C23.7579 15.3465 23.5834 15.3993 23.4376 15.4977C23.2918 15.5961 23.182 15.735 23.1235 15.8953L22.4144 17.9622L22.3963 18.0138C22.1745 18.6263 21.8082 19.183 21.3253 19.6413C20.8424 20.0997 20.2556 20.4478 19.6094 20.6591L17.4265 21.3309C17.2585 21.3871 17.1129 21.4914 17.01 21.6293C16.907 21.7672 16.8518 21.932 16.8518 22.1009C16.8518 22.2698 16.907 22.4345 17.01 22.5724C17.1129 22.7103 17.2585 22.8146 17.4265 22.8709L19.6094 23.5414C20.2744 23.7514 20.8784 24.1064 21.3723 24.5755ZM33.47 30.5281L34.6599 30.8941L34.6846 30.899C34.7767 30.9293 34.8566 30.986 34.9131 31.0612C34.9696 31.1365 35 31.2266 35 31.319C35 31.4114 34.9696 31.5015 34.9131 31.5767C34.8566 31.652 34.7767 31.7087 34.6846 31.739L33.4933 32.105C33.132 32.2197 32.8037 32.4122 32.5342 32.6675C32.2648 32.9228 32.0615 33.2339 31.9405 33.5762L31.5529 34.7036C31.5203 34.7903 31.4602 34.8654 31.3808 34.9184C31.3015 34.9715 31.2067 35 31.1096 35C31.0124 35 30.9177 34.9715 30.8383 34.9184C30.7589 34.8654 30.6988 34.7903 30.6663 34.7036L30.2787 33.5762C30.1592 33.2325 29.9566 32.92 29.6869 32.6637C29.4173 32.4074 29.0882 32.2144 28.7258 32.1001L27.5346 31.7341C27.4424 31.7038 27.3626 31.6471 27.306 31.5718C27.2495 31.4965 27.2191 31.4065 27.2191 31.3141C27.2191 31.2217 27.2495 31.1316 27.306 31.0563C27.3626 30.9811 27.4424 30.9243 27.5346 30.8941L28.7258 30.5281C29.0828 30.4105 29.4065 30.2166 29.6717 29.9615C29.937 29.7064 30.1367 29.3968 30.2554 29.0568L30.6429 27.9294C30.6755 27.8427 30.7356 27.7677 30.815 27.7146C30.8943 27.6616 30.9891 27.6331 31.0862 27.6331C31.1834 27.6331 31.2781 27.6616 31.3575 27.7146C31.4369 27.7677 31.497 27.8427 31.5295 27.9294L31.9158 29.0568C32.0361 29.3998 32.2393 29.7114 32.5091 29.9668C32.7789 30.2222 33.1079 30.4144 33.47 30.5281Z" fill="white"/>
</svg>
