<svg width="61" height="65" viewBox="0 0 61 65" fill="none" xmlns="http://www.w3.org/2000/svg">
<path d="M13.1612 1.25416C13.1612 1.25416 25.421 -0.606264 32.0518 0.204695C38.6826 1.01565 45.7188 1.11106 45.7188 1.11106C45.7188 1.11106 51.4194 0.204683 51.9203 1.0872C52.445 1.94586 49.392 6.11993 49.392 6.11993C49.392 6.11993 52.3258 24.7004 53.9954 31.0211C55.6889 37.3419 55.832 57.3773 55.832 57.3773C55.832 57.3773 59.3382 60.5973 59.3382 60.9789C59.3382 61.3606 53.5422 60.9789 53.5422 60.9789C53.5422 60.9789 19.0764 65.153 8.12847 60.9789C8.12847 60.9789 1.02065 63.0779 1.13991 62.2669C1.23532 61.456 4.69381 56.3994 4.69381 56.3994C4.69381 56.3994 5.50478 32.4522 5.91026 29.4708C6.31574 26.4893 9.55958 5.80985 9.55958 5.80985C9.55958 5.80985 6.81662 1.70734 6.81662 1.20646C6.81662 0.681718 13.1612 1.25416 13.1612 1.25416Z" fill="#774D38"/>
<path d="M46.1485 12.4883C47.2695 13.824 48.9869 25.3205 50.4657 33.5255C51.9206 41.7067 51.1812 51.7483 50.4657 52.6069C49.7263 53.4656 33.5071 55.3022 30.6687 55.3022C27.8304 55.3022 9.34525 53.8234 8.6774 52.6069C8.00955 51.3905 7.62792 36.8886 8.6774 32.9531C9.72687 28.9937 11.802 12.1544 12.3029 11.6535C12.7799 11.1287 28.856 10.4132 30.6687 10.4609C32.4814 10.5325 45.0036 11.1526 46.1485 12.4883Z" fill="#FFE892"/>
<path d="M20.4592 22.3141C20.4592 27.3945 24.5856 31.497 29.666 31.497C34.7464 31.497 38.8728 27.3945 38.8728 22.3141C38.8728 17.2337 34.7464 13.1073 29.666 13.1073C24.5856 13.1073 20.4592 17.2337 20.4592 22.3141Z" fill="#FFC349"/>
<path d="M34.8641 15.9935C34.4666 16.2161 34.069 16.4467 33.6715 16.6852C33.3376 16.8999 32.9798 17.1145 32.6936 17.4008C32.4312 17.6393 32.2166 17.9493 32.0257 18.2356C31.5249 18.975 31.0955 19.7382 30.8809 20.5969C30.6662 21.4556 30.69 22.3858 31.0478 23.1729C32.3358 22.8867 33.6715 22.0041 34.5779 21.0262C35.0549 20.5015 35.5558 19.9529 35.8897 19.3089C36.0805 18.9273 36.1998 18.5218 36.3191 18.1163C36.6848 16.9237 37.0505 15.7391 37.4162 14.5624C36.5576 15.0394 35.7069 15.5165 34.8641 15.9935Z" fill="#79933A"/>
<path d="M27.0415 19.3332C26.1351 18.403 24.871 17.9021 23.6307 17.4728C22.9469 17.2343 22.2711 17.0037 21.6033 16.7811C21.6669 17.2581 21.7305 17.7352 21.7941 18.2122C22.0087 19.9295 22.295 21.7423 23.4876 23.0064C24.0839 23.6504 24.871 24.1036 25.6819 24.4852C26.5406 24.9146 27.924 25.01 28.9019 24.9623C29.3074 23.6027 28.7826 22.1477 28.1148 20.8836C27.8286 20.335 27.4947 19.7864 27.0415 19.3332Z" fill="#79933A"/>
<path d="M35.6981 16.3505C35.6981 16.3505 34.8633 17.3045 34.4101 17.7577C32.6451 19.4273 31.5479 21.7171 30.9516 24.0784C30.3315 26.4398 30.1645 28.8726 29.9976 31.3055" stroke="#68822B" stroke-width="1.5" stroke-linecap="round" stroke-linejoin="round"/>
<path d="M24.9658 20.334C26.8978 21.2881 28.2335 23.1963 28.9729 25.2237C29.7362 27.2272 29.7839 29.1592 29.9985 31.3058" stroke="#68822B" stroke-width="1.5" stroke-linecap="round" stroke-linejoin="round"/>
<path d="M6.67358 53.418C6.67358 53.418 8.29549 59.524 13.519 60.2634" stroke="#2B2B2B" stroke-width="1.5" stroke-linecap="round" stroke-linejoin="round"/>
<path d="M8.93896 55.4695C8.93896 55.4695 11.6104 60.2399 17.1201 60.0491" stroke="#2B2B2B" stroke-width="1.5" stroke-linecap="round" stroke-linejoin="round"/>
<path d="M48.5095 6.11941C48.5095 6.11941 41.4971 6.69185 39.8513 6.11941C38.2294 5.54696 27.1384 3.63882 25.588 4.06815C24.0376 4.49748 12.2549 6.59644 10.7522 5.95244" stroke="#2B2B2B" stroke-width="1.5" stroke-linecap="round" stroke-linejoin="round"/>
<path d="M52.9932 33.8601C52.9932 33.8601 54.4481 40.9918 54.1142 43.9256" stroke="#2B2B2B" stroke-width="1.5" stroke-linecap="round" stroke-linejoin="round"/>
<path d="M52.4446 36.7217C52.4446 36.7217 53.5179 42.9708 52.9932 45.3799" stroke="#2B2B2B" stroke-width="1.5" stroke-linecap="round" stroke-linejoin="round"/>
<path d="M51.9454 18.6541V18.5099C51.9454 16.9471 50.6712 15.6809 49.1084 15.6809H47.73C46.1672 15.6809 44.893 16.9471 44.893 18.5099V18.6541C44.893 19.4716 44.5404 20.249 43.9233 20.7859L37.3757 26.492C36.7586 27.0289 36.406 27.8063 36.406 28.6237V61.3776C36.406 62.9403 37.6722 64.2065 39.235 64.2065H57.6034C59.1662 64.2065 60.4324 62.9403 60.4324 61.3776V28.6237C60.4324 27.8063 60.0798 27.0289 59.4627 26.492L52.9151 20.7859C52.2981 20.249 51.9454 19.4716 51.9454 18.6541Z" fill="#CDEDEA"/>
<path d="M59.462 26.492L52.9145 20.7859C52.2974 20.249 51.9448 19.4716 51.9448 18.6541V18.5099C51.9448 16.9471 50.6705 15.6809 49.1078 15.6809H48.651C49.0917 16.1778 49.3562 16.8349 49.3562 17.5562V17.6924C49.3562 18.5099 49.7088 19.2873 50.3259 19.8242L56.8735 25.5303C57.4986 26.0672 57.8512 26.8446 57.8512 27.662V60.4159C57.8512 61.9786 56.585 63.2529 55.0142 63.2529H37.1106C37.6315 63.8379 38.3929 64.2065 39.2343 64.2065H57.6028C59.1655 64.2065 60.4318 62.9403 60.4318 61.3776V28.6237C60.4318 27.8063 60.0791 27.0289 59.462 26.492Z" fill="#B3CECB"/>
<path d="M52.5468 19.4159H44.2922V15.3287H52.5468V19.4159Z" fill="#EF4538"/>
<path d="M42.9055 15.3286H53.933L53.0835 12.7961H43.8592L42.9055 15.3286Z" fill="#EF4538"/>
<path d="M51.4404 12.7957H45.3977V11.7379H51.4404V12.7957Z" fill="#EF4538"/>
<path d="M48.2673 11.7381H44.4365C44.4365 11.7381 45.4543 9.10141 48.3795 9.10141C51.505 9.10141 52.4026 11.7381 52.4026 11.7381H48.2673Z" fill="#EF4538"/>
<path d="M44.2922 15.3287H52.5468V19.4159H51.4409L50.7116 16.7232L44.2922 15.6813V15.3287Z" fill="#CE3932"/>
<path d="M45.3977 11.7379H51.4404V12.7957H45.3977V11.7379Z" fill="#CE3932"/>
<path d="M46.0789 10.3836C45.9908 10.4878 45.9187 10.6 45.8866 10.7362C45.8465 10.8645 45.8625 11.0167 45.9427 11.1289C46.0549 11.2652 46.2472 11.2972 46.4235 11.3213C46.8002 11.3693 47.241 11.3693 47.4814 11.0808C47.6176 10.9286 47.6577 10.7122 47.7379 10.5198C47.818 10.3355 47.9382 10.1672 48.0905 10.031C48.1947 9.93481 48.3149 9.84666 48.3469 9.71843C48.371 9.61425 48.3309 9.50205 48.2508 9.43794C47.9863 9.22957 47.3532 9.47801 47.0967 9.59822C46.704 9.76652 46.3434 10.039 46.0789 10.3836Z" fill="#FC675B"/>
<path d="M44.5479 13.6295C44.4678 13.7844 44.3903 13.9421 44.3155 14.1023C44.2594 14.2145 44.2033 14.3267 44.1873 14.4469C44.1713 14.5752 44.2033 14.7114 44.2995 14.7916C44.3556 14.8316 44.4277 14.8557 44.4918 14.8717C44.7803 14.9358 45.0769 14.9038 45.3734 14.8797C45.4776 14.8717 45.5897 14.8557 45.6779 14.7996C45.8222 14.7114 45.8783 14.5351 45.9183 14.3748C45.9771 14.1664 46.0359 13.9581 46.0947 13.7497C46.2309 13.2368 45.9103 13.0124 45.4135 12.9884C44.9967 12.9723 44.7162 13.2849 44.5479 13.6295Z" fill="#FC675B"/>
<path d="M44.9739 16.7311C44.9338 17.3402 44.9338 17.9493 44.9899 18.5503C44.9979 18.6385 45.0059 18.7267 45.054 18.7908C45.1021 18.8709 45.1902 18.919 45.2784 18.9591C45.4867 19.0472 45.7753 19.0953 45.9195 18.911C45.9756 18.8389 45.9916 18.7427 46.0077 18.6545C46.1199 17.9894 46.1199 17.3001 46.0157 16.635C45.9997 16.5228 45.9756 16.4026 45.8955 16.3144C45.5268 15.9297 45.0059 16.3144 44.9739 16.7311Z" fill="#FC675B"/>
<path d="M44.7888 19.4156H52.0496L52.5465 20.2731L44.6365 19.8404L44.7888 19.4156Z" fill="#9DB2AF"/>
<path opacity="0.5" d="M40.4539 25.4502C40.2375 25.6426 40.0211 25.851 39.8929 26.1154C39.7647 26.3719 39.7486 26.7085 39.9169 26.9489C40.1013 27.2134 40.4619 27.2855 40.7825 27.3256C41.8484 27.4618 43.0425 27.4057 43.8278 26.6844C44.0923 26.444 44.2847 26.1555 44.485 25.867C45.1742 24.8412 45.8715 23.7993 46.2722 22.6293C46.4645 22.0763 46.5527 20.9944 45.7032 20.9383C45.07 20.8982 44.4369 21.932 44.0362 22.3247C42.8982 23.4307 41.624 24.3764 40.4539 25.4502Z" fill="white"/>
<path d="M51.5768 57.7154H36.406V30.2109H51.5768V57.7154Z" fill="#5BA93A"/>
<path d="M50.7113 56.3609H36.406V30.8919H50.7113V56.3609Z" fill="#93D850"/>
<path d="M39.3476 51.8968C41.6236 49.0919 45.0617 47.2486 48.66 46.904C47.8987 48.9877 46.5443 50.839 44.7892 52.1773C42.978 53.5638 40.0768 55.1105 37.7848 55.3429C37.7207 54.1087 38.6022 52.8185 39.3476 51.8968Z" fill="#5BA93A"/>
<path d="M42.7303 41.8788C42.7223 41.8869 43.2432 44.243 43.2672 44.4834C43.3474 45.4612 43.3073 46.4469 43.155 47.4086C42.8505 49.2999 42.1052 51.1592 40.9511 52.6979C39.9413 54.0523 37.6092 57.5305 37.5371 53.4994C37.505 51.7443 37.8256 48.5146 38.4587 46.9037C39.3403 44.6838 40.9992 43.081 42.7303 41.8788Z" fill="#5BA93A"/>
<path d="M37.3276 36.462L36.406 34.6589V36.8788L36.5422 37.1432C36.6224 37.2982 36.6651 37.4024 36.6705 37.4558C36.6758 37.5039 36.6491 37.544 36.5903 37.576C36.5423 37.6027 36.4995 37.6001 36.4621 37.568C36.4461 37.5573 36.4274 37.5333 36.406 37.4959V38.2652C36.5663 38.2332 36.7319 38.1744 36.9029 38.0889C37.0899 37.9927 37.2395 37.8832 37.3517 37.7603C37.4639 37.6375 37.536 37.5012 37.5681 37.3516C37.6001 37.2074 37.6001 37.0845 37.5681 36.983C37.5307 36.8761 37.4505 36.7025 37.3276 36.462Z" fill="#5BA93A"/>
<path fill-rule="evenodd" clip-rule="evenodd" d="M36.5984 34.0577L37.512 33.5849C37.7578 33.462 37.9554 33.3846 38.105 33.3525C38.2546 33.3151 38.3802 33.3124 38.4817 33.3445C38.5832 33.3765 38.6687 33.4353 38.7382 33.5208C38.813 33.6009 38.8984 33.7399 38.9946 33.9375L39.1389 34.21C39.2404 34.4077 39.2938 34.5653 39.2992 34.6829C39.2992 34.8004 39.2511 34.9153 39.1549 35.0275C39.0587 35.1397 38.9118 35.2465 38.7141 35.348L38.4657 35.4682L39.1228 36.7345L38.2172 37.1993L36.5984 34.0577ZM37.7765 34.1299L38.1932 34.9313C38.2199 34.9206 38.2413 34.9099 38.2573 34.8992C38.3428 34.8565 38.3909 34.8084 38.4016 34.755C38.4176 34.7016 38.3935 34.6161 38.3294 34.4985L38.2012 34.2421C38.1424 34.1352 38.0863 34.0764 38.0329 34.0658C37.9795 34.0497 37.894 34.0711 37.7765 34.1299Z" fill="#5BA93A"/>
<path d="M38.8025 32.919L40.3091 32.1496L40.6377 32.7747L40.0286 33.0873L40.3412 33.6803L40.9022 33.3918L41.2147 33.9929L40.6457 34.2814L41.0064 34.9706L41.6635 34.634L41.9921 35.2591L40.4213 36.0685L38.8025 32.919Z" fill="#5BA93A"/>
<path fill-rule="evenodd" clip-rule="evenodd" d="M40.6301 31.9816L41.2713 31.6531C41.6987 31.434 41.9952 31.3004 42.1608 31.2523C42.3265 31.2043 42.4867 31.2176 42.6417 31.2924C42.802 31.3672 42.9516 31.5382 43.0905 31.8053C43.2134 32.0511 43.2641 32.2327 43.2427 32.3503C43.216 32.4678 43.1092 32.5854 42.9222 32.7029C43.1199 32.6495 43.2668 32.6415 43.363 32.6789C43.4591 32.7163 43.5313 32.759 43.5793 32.8071C43.6221 32.8552 43.7076 33.0048 43.8358 33.2559L44.2686 34.0894L43.4271 34.5221L42.8901 33.4723C42.8046 33.3066 42.7352 33.2105 42.6818 33.1838C42.6337 33.1624 42.5482 33.1838 42.4253 33.2479L43.1546 34.6584L42.249 35.1232L40.6301 31.9816ZM41.8082 32.0618L42.1689 32.759C42.2704 32.7056 42.3345 32.6548 42.3612 32.6067C42.3932 32.564 42.3719 32.4732 42.2971 32.3343L42.2089 32.1579C42.1608 32.0618 42.1074 32.0083 42.0486 31.9977C41.9952 31.987 41.9151 32.0083 41.8082 32.0618Z" fill="#5BA93A"/>
<path d="M39.7397 40.0924H38.6578V39.283C38.6578 39.0479 38.6471 38.901 38.6257 38.8422C38.6043 38.7834 38.5536 38.754 38.4734 38.754C38.3826 38.754 38.3265 38.7888 38.3051 38.8582C38.2784 38.9277 38.265 39.0826 38.265 39.323V41.4869C38.265 41.7166 38.2784 41.8662 38.3051 41.9356C38.3265 42.0051 38.3799 42.0398 38.4654 42.0398C38.5455 42.0398 38.599 42.0051 38.6257 41.9356C38.6471 41.8662 38.6578 41.7032 38.6578 41.4468V40.8537H39.7397V41.0381C39.7397 41.5243 39.7103 41.8662 39.6515 42.0639C39.5874 42.2669 39.4512 42.4459 39.2428 42.6008C39.0398 42.7504 38.786 42.8252 38.4814 42.8252C38.1609 42.8252 37.8991 42.7611 37.6961 42.6329C37.4877 42.5047 37.3514 42.3257 37.2873 42.0959C37.2232 41.8715 37.1912 41.5296 37.1912 41.0701V39.7077C37.1912 39.3711 37.1992 39.1173 37.2152 38.9464C37.2366 38.7807 37.298 38.6205 37.3995 38.4655C37.5011 38.3106 37.6426 38.1877 37.8243 38.0969C38.0059 38.006 38.2143 37.9606 38.4494 37.9606C38.7646 37.9606 39.0264 38.0301 39.2348 38.169C39.4431 38.3079 39.5794 38.4816 39.6435 38.6899C39.7076 38.8929 39.7397 39.2135 39.7397 39.6516V40.0924Z" fill="#CDEDEA"/>
<path d="M41.205 38.0565V41.7911H41.8621V42.7287H40.123V38.0565H41.205Z" fill="#CDEDEA"/>
<path d="M42.1284 38.0565H43.9236V38.9941H43.2103V39.8757H43.8835V40.7652H43.2103V41.7911H43.9957V42.7287H42.1284V38.0565Z" fill="#CDEDEA"/>
<path fill-rule="evenodd" clip-rule="evenodd" d="M46.1736 38.0565L46.7907 42.7287H45.6848L45.6287 41.8872H45.244L45.1799 42.7287H44.0659L44.6109 38.0565H46.1736ZM45.6046 41.0618C45.5512 40.5328 45.4951 39.8783 45.4363 39.0983C45.3295 39.9959 45.2627 40.6504 45.236 41.0618H45.6046Z" fill="#CDEDEA"/>
<path d="M49.3883 38.0565V42.7287H48.4426L47.8817 40.605V42.7287H46.9761V38.0565H47.8817L48.4827 40.1642V38.0565H49.3883Z" fill="#CDEDEA"/>
<path d="M20.7507 35.1243H19.6687V34.3148C19.6687 34.0797 19.658 33.9328 19.6367 33.874C19.6153 33.8153 19.5646 33.7859 19.4844 33.7859C19.3936 33.7859 19.3375 33.8206 19.3161 33.8901C19.2894 33.9595 19.276 34.1145 19.276 34.3549V36.5187C19.276 36.7485 19.2894 36.8981 19.3161 36.9675C19.3375 37.037 19.3909 37.0717 19.4764 37.0717C19.5565 37.0717 19.61 37.037 19.6367 36.9675C19.658 36.8981 19.6687 36.7351 19.6687 36.4786V35.8856H20.7507V36.0699C20.7507 36.5561 20.7213 36.8981 20.6625 37.0957C20.5984 37.2988 20.4621 37.4777 20.2538 37.6327C20.0508 37.7823 19.797 37.8571 19.4924 37.8571C19.1719 37.8571 18.9101 37.793 18.707 37.6647C18.4987 37.5365 18.3624 37.3575 18.2983 37.1278C18.2342 36.9034 18.2021 36.5615 18.2021 36.102V34.7396C18.2021 34.403 18.2102 34.1492 18.2262 33.9782C18.2476 33.8126 18.309 33.6523 18.4105 33.4974C18.512 33.3424 18.6536 33.2196 18.8353 33.1287C19.0169 33.0379 19.2253 32.9925 19.4604 32.9925C19.7756 32.9925 20.0374 33.0619 20.2458 33.2009C20.4541 33.3398 20.5904 33.5134 20.6545 33.7218C20.7186 33.9248 20.7507 34.2454 20.7507 34.6835V35.1243Z" fill="#CDEDEA"/>
<path opacity="0.5" d="M38.5453 30.315C38.759 35.7005 38.9701 41.0834 39.1785 46.4635C39.1945 46.8242 39.2105 47.1928 39.3628 47.5214C39.507 47.85 39.8276 48.1305 40.1882 48.1144C40.8053 48.0904 41.0858 47.3371 41.1339 46.72C41.182 45.9025 41.1018 45.0851 41.0297 44.2676C40.6931 40.0923 40.8534 35.8848 41.5186 31.7495C41.6308 31.0443 41.759 30.299 41.5266 29.6258C41.2942 28.9366 40.4046 28.2954 39.6513 28.3756C38.6656 28.4798 38.5133 29.5296 38.5453 30.315Z" fill="white"/>
<path opacity="0.5" d="M38.9952 58.8376C39.0112 59.2463 39.0272 59.6631 39.1875 60.0397C39.3478 60.4164 39.6764 60.753 40.0851 60.793C40.574 60.8411 41.0228 60.4565 41.2071 59.9996C41.3994 59.5428 41.3834 59.038 41.3594 58.5411C41.3006 56.997 41.2418 55.4503 41.1831 53.9009C41.151 53.1155 41.1189 52.3301 41.0869 51.5447C41.0709 50.9998 41.2151 50.0942 40.9747 49.6053C40.6461 48.9241 39.5882 48.9562 39.1795 49.5652C38.5865 50.4628 38.9391 52.6026 38.9231 53.6524C38.907 55.3782 38.9311 57.1065 38.9952 58.8376Z" fill="white"/>
<path d="M12.5201 15.7618H10.9172V12.2756H12.5201V15.7618Z" fill="#6D6D6D"/>
<path d="M13.9544 14.2471H11.7505H9.55459C9.55459 14.2471 1.07562 20.7626 0.971436 20.7626H11.7505H22.5295C22.4253 20.7626 13.9544 14.2471 13.9544 14.2471Z" fill="#B8C2C4"/>
<path d="M22.4093 63.6468H0.971436V21.8771H22.4093V63.6468Z" fill="#D66E18"/>
<path d="M22.4084 63.6468H16.9668V21.8771H22.4084V63.6468Z" fill="#C16017"/>
<path d="M22.5278 22.1173H0.681203C0.304538 22.1173 0 21.8127 0 21.4361C0 21.0674 0.304538 20.7629 0.681203 20.7629H22.5278C22.9044 20.7629 23.209 21.0674 23.209 21.4361C23.209 21.8127 22.9044 22.1173 22.5278 22.1173Z" fill="#999999"/>
<path opacity="0.5" d="M12.8704 21.4362H0.921301C0.809103 21.4362 0.720947 21.348 0.720947 21.2438V21.2038C0.720947 21.0916 0.809103 21.0034 0.921301 21.0034H12.8704C12.9746 21.0034 13.0627 21.0916 13.0627 21.2038V21.2438C13.0627 21.348 12.9746 21.4362 12.8704 21.4362Z" fill="white"/>
<path d="M22.6193 64.9999H0.772755C0.39609 64.9999 0.0915527 64.7034 0.0915527 64.3267C0.0915527 63.95 0.39609 63.6455 0.772755 63.6455H22.6193C22.996 63.6455 23.3005 63.95 23.3005 64.3267C23.3005 64.7034 22.996 64.9999 22.6193 64.9999Z" fill="#999999"/>
<path opacity="0.5" d="M12.9632 64.3272H1.01407C0.901876 64.3272 0.813721 64.239 0.813721 64.1268V64.0948C0.813721 63.9826 0.901876 63.8944 1.01407 63.8944H12.9632C13.0673 63.8944 13.1555 63.9826 13.1555 64.0948V64.1268C13.1555 64.239 13.0673 64.3272 12.9632 64.3272Z" fill="white"/>
<path d="M0.971436 22.1171V22.7582L22.4093 23.4875L22.5295 22.1171H0.971436Z" fill="#C16017"/>
<path opacity="0.5" d="M10.3312 14.2471L4.37671 20.7626L8.28762 20.7145L11.0685 14.2471H10.3312Z" fill="white"/>
<path d="M13.9545 14.2471H13.2893H13.0649L17.4166 20.7626H22.5297L13.9545 14.2471Z" fill="#ADADAD"/>
<path d="M13.8014 13.1252H9.40967V6.82605H13.8014V13.1252Z" fill="#ADADAD"/>
<path d="M11.2847 9.81596C11.2847 10.8177 10.9321 11.6352 10.4833 11.6352C10.0425 11.6352 9.68188 10.8177 9.68188 9.81596C9.68188 8.80618 10.0425 7.98874 10.4833 7.98874C10.9321 7.98874 11.2847 8.80618 11.2847 9.81596Z" fill="#999999"/>
<path d="M11.285 9.98373C11.285 10.689 11.0366 11.266 10.724 11.266C10.4115 11.266 10.155 10.689 10.155 9.98373C10.155 9.27848 10.4115 8.70146 10.724 8.70146C11.0366 8.70146 11.285 9.27848 11.285 9.98373Z" fill="#6D6D6D"/>
<path d="M13.2326 13.1252H12.2549V6.82605H13.2326V13.1252Z" fill="#999999"/>
<path d="M13.8023 38.3782C13.8023 42.6658 11.4622 46.1439 8.58513 46.1439C5.70805 46.1439 3.36792 42.6658 3.36792 38.3782C3.36792 34.0907 5.70805 30.6125 8.58513 30.6125C11.4622 30.6125 13.8023 34.0907 13.8023 38.3782Z" fill="#5BA93A"/>
<path d="M12.7443 38.3777C12.7443 42.1764 10.8129 45.2619 8.4327 45.2619C6.0525 45.2619 4.12109 42.1764 4.12109 38.3777C4.12109 34.571 6.0525 31.4936 8.4327 31.4936C10.8129 31.4936 12.7443 34.571 12.7443 38.3777Z" fill="#93D850"/>
<path opacity="0.2" d="M7.76785 63.6468H4.64233V21.8771H7.76785V63.6468Z" fill="white"/>
</svg>
