<svg width="32" height="29" viewBox="0 0 32 29" fill="none" xmlns="http://www.w3.org/2000/svg">
<path d="M30.0833 14.5983C30.0833 5.90583 23.3383 0 15.8333 0C8.4075 0 1.58333 5.77917 1.58333 14.6933C0.633333 15.2317 0 16.245 0 17.4167V20.5833C0 22.325 1.425 23.75 3.16667 23.75H4.75V14.0917C4.75 7.96417 9.70583 3.00833 15.8333 3.00833C21.9608 3.00833 26.9167 7.96417 26.9167 14.0917V25.3333H14.25V28.5H26.9167C28.6583 28.5 30.0833 27.075 30.0833 25.3333V23.4017C31.0175 22.9108 31.6667 21.945 31.6667 20.805V17.1633C31.6667 16.055 31.0175 15.0892 30.0833 14.5983Z" fill="white"/>
<path d="M11.0833 17.4167C11.9578 17.4167 12.6667 16.7078 12.6667 15.8333C12.6667 14.9589 11.9578 14.25 11.0833 14.25C10.2089 14.25 9.5 14.9589 9.5 15.8333C9.5 16.7078 10.2089 17.4167 11.0833 17.4167Z" fill="white"/>
<path d="M20.5833 17.4167C21.4578 17.4167 22.1667 16.7078 22.1667 15.8333C22.1667 14.9589 21.4578 14.25 20.5833 14.25C19.7089 14.25 19 14.9589 19 15.8333C19 16.7078 19.7089 17.4167 20.5833 17.4167Z" fill="white"/>
<path d="M25.3332 12.7142C24.9557 10.4882 23.8028 8.46761 22.0786 7.01002C20.3544 5.55243 18.1702 4.75185 15.9124 4.75C11.1149 4.75 5.95324 8.72417 6.36491 14.9625C8.31737 14.1635 10.0418 12.8939 11.3844 11.2667C12.7271 9.63946 13.6462 7.70532 14.0599 5.63667C16.1341 9.80083 20.3932 12.6667 25.3332 12.7142Z" fill="white"/>
</svg>
