<svg width="44" height="65" viewBox="0 0 44 65" fill="none" xmlns="http://www.w3.org/2000/svg">
<path d="M26.4158 64.907C26.2915 64.8567 26.1636 64.7475 26.1316 64.6642C26.0996 64.5808 26.0666 63.7477 26.0583 62.8126C26.0431 61.1241 25.9847 60.8346 25.6593 60.8346C25.4108 60.8346 23.8735 60.031 22.9755 59.4317C21.9433 58.7428 19.8628 56.662 19.1221 55.5777C18.4847 54.6445 17.9047 53.5269 17.6468 52.7345C17.4725 52.1988 17.4564 52.184 16.9791 52.1186C16.7102 52.0817 14.9105 52.0516 12.9799 52.0516C9.86672 52.0516 9.39786 52.0292 8.83373 51.8536C7.64587 51.4839 6.93724 50.8439 6.37938 49.6371C6.11277 49.0603 6.0803 48.8573 6.04163 47.5261L5.99885 46.0534H4.89036C3.55993 46.0534 2.86543 45.8359 2.13067 45.1891C1.40211 44.5478 1.04252 43.7354 1.04252 42.7307C1.04252 42.0328 1.09066 41.8273 1.4026 41.1937C1.65617 40.6786 1.87093 40.3984 2.12866 40.2463L2.49465 40.0304L2.00201 39.5037C1.28533 38.7375 1.05212 38.1517 1.04895 37.1096C1.04571 36.0703 1.31693 35.4115 2.02443 34.7396L2.48986 34.2977L2.11669 34.013C1.38737 33.4567 0.888805 32.1118 1.03002 31.0815C1.17521 30.0222 1.91161 28.9789 2.76049 28.6298C3.02284 28.5219 3.23767 28.4034 3.23789 28.3665C3.2387 28.2357 2.96202 28.075 2.23781 27.7855C0.700297 27.171 -0.016817 26.2412 0.000299117 24.8844C0.0197713 23.3406 1.05387 22.2063 2.55536 22.0818C3.0949 22.0371 5.22921 22.4672 5.72598 22.7208C5.86999 22.7943 5.92328 22.7614 5.96736 22.5717C5.99849 22.4379 6.03581 18.0145 6.05033 12.742L6.07672 3.15559L6.3268 2.536C6.66072 1.70871 7.56129 0.740437 8.28731 0.428109C8.61556 0.286902 9.23574 0.152063 9.81476 0.0960085C11.1977 -0.0378683 32.8357 -0.0290888 34.0133 0.105827C35.7683 0.306898 36.7318 1.06584 37.477 2.83426C37.5266 2.95208 37.5913 7.43466 37.6208 12.7955L37.6743 22.5426L38.3855 22.5056C39.5596 22.4445 40.3695 22.9318 40.6118 23.8451C40.6769 24.0902 40.8991 25.7772 41.1057 27.594C41.8784 34.3887 42.3125 37.8593 42.9323 42.1974C43.5833 46.7542 43.5491 48.0643 42.6939 51.3266L42.2089 53.1762L42.1122 57.7939C42.059 60.3337 41.9943 62.5268 41.9683 62.6675C41.9424 62.8082 41.9175 62.9759 41.9132 63.0403C41.9081 63.1152 41.7605 63.1339 41.5035 63.0923L41.1019 63.0272L41.0153 61.9577C40.9676 61.3695 40.9546 59.2012 40.9863 57.1393C41.049 53.0667 41.0255 53.2584 41.8363 50.2007C42.4431 47.9123 42.4347 46.2492 41.7955 42.1566C41.4871 40.182 40.609 33.2662 40.0327 28.273C39.6319 24.8004 39.4708 23.8547 39.2514 23.6856C38.9912 23.4849 38.1919 23.5793 37.5563 23.8857C36.0019 24.6352 34.943 26.7087 34.943 29.0033C34.943 29.4701 35.0224 30.5692 35.1195 31.4457C35.2165 32.3223 35.297 33.8588 35.2983 34.8603C35.3023 37.95 34.9853 38.8102 33.1357 40.7294C30.6976 43.2592 29.4817 45.1773 28.4647 48.0983C27.9258 49.6459 27.6755 50.9813 27.5499 52.9778C27.4875 53.9706 27.4158 54.8431 27.3907 54.9168C27.3323 55.0876 26.6722 55.0916 26.5027 54.9221C26.416 54.8355 26.3742 54.3442 26.3742 53.4141V52.0347L22.5609 52.0626C19.5649 52.0845 18.7363 52.1201 18.6946 52.2287C18.63 52.397 19.4278 53.9181 20.1299 54.9654C21.5496 57.0828 24.2475 59.1995 26.5039 59.9662L27.0704 60.1587L27.1007 62.3443C27.1174 63.5464 27.1044 64.6384 27.0719 64.7709C27.01 65.0229 26.807 65.065 26.4158 64.907ZM26.4544 50.8466C26.5129 50.7729 26.6442 50.3271 26.7461 49.8558C27.5305 46.2291 29.2976 43.0072 32.1144 40.0676C32.757 39.397 33.3678 38.7222 33.4718 38.5681C34.149 37.5637 34.3334 35.4394 34.0333 32.0988C33.6089 27.3739 34.0235 25.4444 35.8535 23.6282L36.4961 22.9903V13.2336V3.47693L36.2647 2.97611C35.9338 2.26011 35.2321 1.54204 34.64 1.31357C34.1684 1.13156 33.4336 1.12049 21.822 1.12049H9.50426L8.89288 1.42072C8.22181 1.75026 7.75641 2.26026 7.39081 3.06674L7.1563 3.58404L7.18974 16.0558L7.22318 28.5276L7.75377 29.0047C8.04559 29.2671 8.41379 29.7279 8.572 30.0288C8.82221 30.5047 8.85967 30.7013 8.85986 31.5399C8.86011 32.6441 8.68554 33.0872 7.92527 33.912L7.48616 34.3884L7.88302 34.7155C8.10129 34.8954 8.41033 35.2908 8.56976 35.5942C8.82254 36.0751 8.85964 36.269 8.85964 37.1096C8.85964 37.9502 8.82256 38.1442 8.56976 38.6251C8.41033 38.9284 8.10253 39.3228 7.88577 39.5015L7.49166 39.8263L7.93063 40.325C8.65871 41.1522 8.86185 41.6784 8.86011 42.7329C8.85849 43.8458 8.60205 44.4087 7.69133 45.3007L7.0928 45.8869L7.1502 47.068C7.18178 47.7176 7.23445 48.4162 7.26725 48.6203C7.43882 49.6883 8.47114 50.6833 9.61139 50.8798C9.84703 50.9204 13.7092 50.9597 18.1939 50.967C24.602 50.9776 26.3707 50.9518 26.4544 50.8466ZM15.0191 41.0905C13.4776 40.7523 12.5348 39.5129 12.5192 37.8042C12.5109 36.9027 12.8756 36.1101 13.618 35.4156C14.4672 34.6213 14.4785 34.62 20.858 34.5512C26.8252 34.4869 28.5382 34.5571 29.3079 34.8976C29.8964 35.1579 30.5688 35.8389 30.8877 36.4976C31.2191 37.1823 31.2259 38.4924 30.9017 39.2171C30.601 39.8892 29.8565 40.6806 29.2662 40.9554C28.7949 41.1748 28.6373 41.1803 22.1969 41.1999C17.3754 41.2147 15.4513 41.1853 15.0191 41.0905ZM28.7842 39.9309C30.5976 38.927 30.3264 36.1923 28.3714 35.7689C27.9905 35.6864 25.865 35.6599 21.4927 35.6833L15.1653 35.7172L14.7239 36.0094C13.9671 36.5103 13.5127 37.5323 13.6711 38.3768C13.7431 38.7604 14.4402 39.6438 14.844 39.8629C15.3152 40.1186 15.9656 40.142 22.1433 40.1256C27.8121 40.1105 28.4959 40.0904 28.7842 39.9309ZM21.4246 32.5437C21.3183 32.478 21.2741 31.6677 21.2329 29.0276L21.1793 25.5967L20.0011 25.5504C17.9589 25.4701 16.5595 24.8864 15.2325 23.5612C14.398 22.7279 13.8469 21.8303 13.4564 20.6682C13.2084 19.9303 13.1763 17.7006 13.401 16.8251L13.5489 16.2489L14.5257 16.3074C15.7332 16.3796 16.5318 16.591 17.665 17.1382C19.31 17.9326 20.597 19.1732 21.442 20.7791L21.8369 21.5296L21.9861 21.2328C22.6062 19.9992 23.6492 18.715 24.6672 17.9316C25.9481 16.946 28.0463 16.2252 29.4259 16.2968C30.1879 16.3364 30.2597 16.4322 30.4509 17.6642C30.7596 19.6542 30.1037 21.768 28.7031 23.2965C27.2607 24.8706 25.5461 25.5922 23.2426 25.5944L22.414 25.5953L22.3857 29.1031L22.3575 32.611L21.9602 32.62C21.7416 32.6249 21.5007 32.5906 21.4246 32.5437ZM21.1492 24.2931C21.2467 24.0007 21.0041 22.7644 20.7168 22.0892C20.0933 20.6242 19.3094 19.6606 17.9833 18.7293C17.0777 18.0934 15.6978 17.5412 14.9669 17.5223L14.4313 17.5084L14.4 18.4067C14.3611 19.5222 14.5007 20.2161 14.9548 21.163C15.7354 22.7911 17.3305 24.017 19.0401 24.3028C19.8728 24.442 21.1014 24.4364 21.1492 24.2931ZM24.9035 24.2597C26.9591 23.8241 28.6621 22.1001 29.1557 19.955C29.2915 19.3646 29.3546 17.5076 29.2426 17.3956C29.1101 17.2631 27.3747 17.7824 26.4813 18.2219C25.2569 18.8242 23.9362 20.129 23.3547 21.3108C22.7667 22.5061 22.3606 24.1167 22.5896 24.3456C22.7157 24.4717 24.1552 24.4182 24.9035 24.2597ZM23.5357 15.8369C22.4364 14.7355 21.261 14.7175 20.0805 15.784C19.5865 16.2303 19.3823 16.2627 19.1503 15.9315C18.89 15.5599 18.9481 15.3424 19.4388 14.8521C20.1559 14.1354 20.7912 13.8802 21.8755 13.8734C22.916 13.8669 23.3772 14.05 24.1771 14.7873C24.7598 15.3245 24.831 15.6402 24.4513 16.004C24.2948 16.1539 24.1211 16.2743 24.0654 16.2714C24.0097 16.2686 23.7714 16.073 23.5357 15.8369ZM25.9408 12.6915C24.5764 11.5349 23.2653 11.0822 21.5071 11.1606C20.0984 11.2234 19.2388 11.5461 17.9957 12.4792C17.4891 12.8594 17.0036 13.1704 16.9167 13.1704C16.6933 13.1704 16.389 12.6647 16.4661 12.4216C16.5743 12.0807 17.6264 11.1996 18.4287 10.778C20.4715 9.70455 23.0545 9.68003 25.1042 10.7146C26.2751 11.3056 27.2311 12.0995 27.2311 12.4808C27.2311 12.7103 26.8597 13.2775 26.7095 13.2775C26.6669 13.2775 26.3209 13.0138 25.9408 12.6915ZM28.0807 9.526C26.3888 8.27633 24.8443 7.61523 23.0537 7.37431C20.538 7.03581 17.8921 7.78579 15.6459 9.47408C14.6761 10.203 14.3525 10.3102 14.1673 9.96416C13.9683 9.5923 14.0491 9.34855 14.5129 8.92099C16.9625 6.66306 20.7348 5.66312 24.1248 6.3731C26.0061 6.76709 28.102 7.85385 29.2929 9.05289C29.7236 9.48646 29.761 9.59921 29.5573 9.85001C29.1784 10.3166 29.1394 10.308 28.0807 9.526ZM6.62528 44.5999C7.3557 44.1484 7.77974 43.3332 7.70009 42.5339C7.63024 41.8329 7.26382 41.2415 6.64596 40.8326C6.22273 40.5526 6.1345 40.5372 4.95206 40.5372C3.77303 40.5372 3.68044 40.5532 3.26317 40.8293C2.7263 41.1846 2.26521 41.9375 2.1932 42.5763C2.08541 43.5326 2.89793 44.6269 3.90619 44.8834C4.0985 44.9323 4.67352 44.9599 5.18403 44.9448C5.99922 44.9205 6.17467 44.8785 6.62528 44.5999ZM6.30515 39.185C6.75841 39.047 7.50069 38.277 7.63034 37.8104C7.94914 36.6628 7.40794 35.5342 6.32116 35.0802C5.80991 34.8667 4.12074 34.8544 3.63651 35.0607C3.20662 35.2439 2.55671 35.8927 2.33495 36.36C1.89326 37.2908 2.4651 38.7044 3.45251 39.1227C4.03635 39.37 5.58638 39.4039 6.30515 39.185ZM6.4424 33.5261C7.77741 32.8451 8.14687 31.1285 7.18244 30.0878C6.68456 29.5506 6.06365 29.3477 4.88083 29.3356C3.67985 29.3234 3.41064 29.4117 2.84205 30.0044C1.72535 31.1686 2.07904 32.9236 3.55962 33.5649C4.14444 33.8182 5.9166 33.7944 6.4424 33.5261ZM6.02316 26.0325C6.02316 24.9769 5.99389 24.037 5.95815 23.9438C5.9224 23.8506 5.78984 23.7748 5.6636 23.7752C5.53735 23.7756 4.79694 23.6261 4.01824 23.4427L2.60243 23.1093L2.14381 23.3393C1.46278 23.6809 1.16986 24.1121 1.11634 24.8521C1.07327 25.4475 1.08687 25.4866 1.48736 25.9159C1.84622 26.3006 2.17394 26.4703 3.8828 27.1558C4.97163 27.5926 5.89865 27.9504 5.94283 27.9509C5.98701 27.9513 6.02316 27.088 6.02316 26.0325Z" fill="#A15329"/>
<path d="M19.4062 24.3218C17.497 24.0767 15.8772 22.9172 15.001 21.1683C14.5476 20.2634 14.4038 19.4942 14.4372 18.1534L14.4528 17.5304L14.9296 17.5581C15.7537 17.6061 16.9317 18.0735 17.9577 18.7596C18.5904 19.1828 19.534 20.1071 19.9121 20.6743C20.6388 21.7645 21.1641 23.2336 21.1132 24.0338C21.0975 24.2817 21.0841 24.3039 20.9321 24.3362C20.696 24.3863 19.8466 24.3783 19.4062 24.3218Z" fill="#00A600"/>
<path d="M22.6396 24.3061C22.5879 24.2544 22.5457 24.1416 22.5457 24.0554C22.5457 23.5832 22.999 22.1037 23.3662 21.3777C24.0009 20.1226 25.3046 18.8379 26.5621 18.2281C27.1205 17.9573 28.1776 17.5909 28.7552 17.4679C29.2991 17.352 29.2946 17.343 29.2544 18.4754C29.2187 19.4806 29.1603 19.9138 28.9935 20.41C28.3425 22.3471 26.7353 23.8369 24.8761 24.2268C24.598 24.2852 24.0156 24.3464 23.556 24.3656C22.823 24.3963 22.7234 24.3898 22.6396 24.3061Z" fill="#00A600"/>
<path d="M9.5521 50.7887C9.02123 50.6815 8.52625 50.4051 8.09712 49.9759C7.4981 49.3769 7.34546 48.9182 7.228 47.3637L7.12158 45.9554L7.77305 45.277C8.63976 44.3744 8.81237 44.0149 8.87344 42.9852C8.93878 41.8834 8.75942 41.2629 8.16452 40.5325C7.90463 40.2134 7.69199 39.9207 7.69199 39.882C7.69199 39.8433 7.86922 39.6155 8.08584 39.3757C8.70911 38.6858 8.89042 38.1744 8.89319 37.0985C8.89521 36.31 8.85135 36.0738 8.61469 35.5989C8.46019 35.2889 8.16745 34.8892 7.96416 34.7107L7.59455 34.3861L8.02749 33.8943C8.70118 33.1289 8.89078 32.6084 8.89078 31.5241C8.89078 30.3706 8.69571 29.897 7.85934 29.0202L7.25431 28.3859V15.945V3.50424L7.48565 3.04357C7.86624 2.28567 8.22148 1.88624 8.8204 1.54274L9.38797 1.21723L21.6975 1.2168C30.1088 1.21648 34.1407 1.25347 34.4289 1.3335C34.9614 1.48138 35.7429 2.19585 36.1519 2.90891L36.467 3.45824L36.468 13.1838L36.4691 22.9093L35.7305 23.6886C34.9004 24.5646 34.3918 25.441 34.1045 26.4908C33.8776 27.3199 33.8451 29.5405 33.9996 33.6577C34.1013 36.3686 34.0234 37.277 33.616 38.1292C33.4971 38.378 32.8541 39.1724 32.1871 39.8946C29.2644 43.059 27.8035 45.6021 26.8762 49.1402C26.6632 49.9527 26.4389 50.6791 26.3777 50.7543C26.2903 50.8617 24.5133 50.8884 18.1008 50.8785C13.6097 50.8716 9.76273 50.8312 9.5521 50.7887ZM29.2725 41.0203C29.8086 40.7804 30.5863 39.9705 30.905 39.3201C31.2668 38.582 31.2693 37.1637 30.9102 36.4312C30.5548 35.7062 29.7307 34.9733 29.0147 34.7454C27.7746 34.3505 15.3259 34.4297 14.3487 34.8386C13.7944 35.0706 13.0856 35.8103 12.7716 36.4846C12.5709 36.9158 12.5083 37.2366 12.5075 37.8389C12.505 39.6619 13.5466 40.9269 15.2419 41.1598C15.5728 41.2052 18.7733 41.2336 22.3541 41.2227C28.1707 41.205 28.9079 41.1834 29.2725 41.0203ZM22.4635 29.1169V25.6155L23.4209 25.6136C25.5332 25.6094 27.0093 25.0165 28.4293 23.602C29.3761 22.6588 29.726 22.1184 30.1984 20.87C30.4652 20.1649 30.4939 19.9477 30.4964 18.6127C30.4998 16.7267 30.3723 16.3653 29.6667 16.2608C29.097 16.1765 27.9249 16.3518 27.0133 16.6577C25.0131 17.3287 23.3008 18.7843 22.168 20.7765L21.8398 21.3538L21.3164 20.4483C20.9727 19.8536 20.4882 19.2413 19.9049 18.6644C19.1718 17.9393 18.8163 17.6862 17.8679 17.2139C16.5422 16.5537 15.8731 16.3636 14.496 16.2559L13.5069 16.1785L13.3952 16.6023C13.2022 17.3349 13.1386 18.8498 13.2603 19.8163C13.519 21.8712 14.9907 23.8973 16.9186 24.8526C17.9132 25.3454 19.0853 25.6055 20.3399 25.6117L21.1159 25.6155L21.1808 28.9254C21.2164 30.7458 21.2787 32.3214 21.3192 32.4268C21.3753 32.573 21.5191 32.6182 21.9281 32.6182H22.4635V29.1169ZM24.4927 16.0463C24.9078 15.6312 24.8372 15.3554 24.1497 14.7053C23.3863 13.9833 22.671 13.74 21.5811 13.8313C20.6343 13.9107 20.1839 14.1078 19.5115 14.7368C18.9187 15.2912 18.8162 15.6442 19.1432 16.0054C19.405 16.2947 19.5856 16.2568 20.2103 15.7815C20.993 15.186 21.222 15.0861 21.8044 15.0861C22.4114 15.0861 22.7867 15.2631 23.4494 15.862C23.7196 16.1062 24.0044 16.308 24.0824 16.3104C24.1603 16.3129 24.345 16.194 24.4927 16.0463ZM27.0967 12.9394C27.3891 12.4388 27.2631 12.1259 26.5372 11.5501C25.2162 10.5023 23.6173 9.94431 21.9164 9.93767C20.6363 9.93267 19.8008 10.1017 18.773 10.5738C17.9353 10.9584 16.7399 11.8113 16.5556 12.1557C16.3833 12.4776 16.4257 12.8712 16.6552 13.0788C16.9037 13.3038 16.8776 13.3152 18.326 12.3468C19.6126 11.4866 20.3593 11.2495 21.807 11.2414C23.4585 11.2322 24.5908 11.6772 26.1837 12.9614C26.4545 13.1797 26.7249 13.3426 26.7845 13.3233C26.8441 13.3041 26.9846 13.1313 27.0967 12.9394ZM15.9812 9.33411C17.2804 8.4757 18.4121 7.95163 19.728 7.59897C20.7947 7.31311 23.0076 7.3405 24.1595 7.65382C25.3355 7.9737 26.655 8.61962 27.8864 9.4781C28.446 9.86826 28.9895 10.1875 29.0943 10.1875C29.3693 10.1875 29.6851 9.86475 29.6851 9.58369C29.6851 9.08896 28.2116 7.94341 26.5862 7.17443C24.805 6.3318 24.1297 6.19264 21.8617 6.2008C20.2047 6.20677 19.7589 6.24479 19.0523 6.44043C17.298 6.92618 15.6151 7.81663 14.5033 8.84738C14.0192 9.2962 13.8873 9.77391 14.1696 10.0562C14.4126 10.2993 14.6845 10.1909 15.9812 9.33411Z" fill="#EFC8AB"/>
</svg>
