<svg width="104" height="101" viewBox="0 0 104 101" fill="none" xmlns="http://www.w3.org/2000/svg">
<path d="M26.25 50.6183C13.131 61.3022 15.3137 74.8461 31.1249 80.8678C46.9362 86.8894 70.3863 83.1102 83.5054 72.4263C96.6244 61.7424 94.4417 48.1985 78.6305 42.1768C62.8205 36.163 39.3703 39.9422 26.25 50.6183Z" fill="#F5F5F5"/>
<path fill-rule="evenodd" clip-rule="evenodd" d="M69.9949 48.1403C70.8986 50.0454 71.1111 52.8051 70.7324 55.8545C70.2478 59.7726 68.8065 64.1598 66.5987 67.8365C62.6839 74.3414 57.8675 76.1339 55.7998 71.8704C54.1311 71.1187 52.5192 70.6201 50.9024 70.4981C49.806 70.4185 48.6013 70.6295 47.8319 70.812C47.5485 71.0287 47.26 71.1898 46.9938 71.2871C46.9756 71.2925 46.9594 71.2996 46.9452 71.3083L41.233 73.4352C40.4748 73.6784 39.7732 73.6189 39.3013 73.1848C38.3455 73.1709 37.5709 72.7419 37.1677 71.8916C36.2559 69.9593 37.575 66.5714 40.1214 64.3291C40.3259 64.1495 40.5351 63.9807 40.749 63.8227C41.4877 62.8121 42.3935 62.095 43.2479 61.7363L43.3238 61.707C43.3623 61.6978 43.3947 61.6837 43.4271 61.6695L49.0249 59.5811C49.2861 59.4899 49.5351 59.4503 49.7781 59.4675C50.513 59.0916 51.678 58.4464 52.9048 57.5541C54.8056 56.1735 56.9877 54.2452 59.2385 52.0243C63.1524 45.5701 67.9566 43.8292 69.9949 48.1403Z" fill="#E0E0E0"/>
<path d="M21.2109 60.5571C24.1942 63.0415 28.6263 62.6372 31.1158 59.6478C33.6003 56.6644 33.1959 52.2323 30.2126 49.7479C27.2293 47.2634 22.7911 47.6627 20.3066 50.646C17.8222 53.6294 18.2215 58.0676 21.2109 60.5571Z" fill="#455A64"/>
<path d="M24.1429 58.4199C25.5287 57.9173 29.1243 56.5899 32.7421 55.2604C32.7204 56.8064 32.1833 58.3656 31.1156 59.6477C28.6261 62.6371 24.194 63.0414 21.2107 60.557C20.0866 59.6209 19.331 58.4154 18.9539 57.1136C19.9334 58.7422 21.3784 59.4413 24.1429 58.4199Z" fill="#37474F"/>
<path d="M31.405 56.7936L32.367 51.215C35.756 55.9924 41.7342 62.0719 46.77 65.7614L46.384 67.9919C42.7703 66.4745 36.7389 61.7809 31.405 56.7936Z" fill="#37474F"/>
<path d="M37.9359 59.0826L37.6681 60.6398L39.6246 62.2691L39.8924 60.712L37.9359 59.0826Z" fill="#263238"/>
<path d="M39.5861 62.1545L38.1024 60.4764L37.7329 60.6112L39.5861 62.1545Z" fill="#BA68C8"/>
<path opacity="0.2" d="M39.5861 62.1545L38.1024 60.4764L37.7329 60.6112L39.5861 62.1545Z" fill="black"/>
<path d="M38.1026 60.4769L38.3491 59.0571L37.9798 59.1918L37.7333 60.6116L38.1026 60.4769Z" fill="#BA68C8"/>
<path opacity="0.3" d="M38.1026 60.4769L38.3491 59.0571L37.9798 59.1918L37.7333 60.6116L38.1026 60.4769Z" fill="black"/>
<path d="M39.8328 60.734L39.5862 62.1545L38.1025 60.4764L38.3491 59.0559L39.8328 60.734Z" fill="#BA68C8"/>
<path opacity="0.3" d="M39.8328 60.734L39.5862 62.1545L38.1025 60.4764L38.3491 59.0559L39.8328 60.734Z" fill="white"/>
<path d="M38.5562 60.2163L38.6148 59.8742C38.6208 59.8176 38.5915 59.7417 38.5378 59.7073C38.4842 59.6729 38.4295 59.6891 38.4235 59.7458L38.3649 60.0878C38.3477 60.1455 38.3882 60.2204 38.4419 60.2548C38.4955 60.2892 38.5501 60.2729 38.5562 60.2163Z" fill="#BA68C8"/>
<path d="M36.6749 67.7257L36.6268 65.8445L37.7212 67.4451L36.6749 67.7257Z" fill="#37474F"/>
<path d="M27.5586 61.3376L30.9026 61.4368C31.7518 62.1303 32.5994 62.8259 33.4454 63.5235C34.0847 64.0491 34.724 64.5746 35.3633 65.1002C35.8433 65.4999 36.8904 66.0837 36.847 66.7783C36.8279 67.0607 36.7227 67.323 36.6914 67.5953C36.6026 68.3445 37.1383 69.048 37.8147 69.3849C38.485 69.7167 39.2676 69.7408 40.0168 69.7061C42.3432 69.6061 44.2564 68.8533 46.3558 67.988C43.8831 66.5462 41.4904 65.1195 39.2038 63.3799C36.5 61.3135 33.9116 59.0962 31.4052 56.7928L27.5586 61.3376Z" fill="#455A64"/>
<path opacity="0.2" d="M31.4053 56.7929L27.5587 61.3378L30.9026 61.4369C31.5541 61.9726 32.2036 62.5066 32.851 63.0389L36.8201 61.4977C36.8201 61.4977 38.3657 60.6549 39.1124 59.0541C36.5036 56.4288 34.0942 53.6506 32.3673 51.2143L31.4053 56.7929Z" fill="black"/>
<path d="M39.6127 65.3978L40.8517 64.9479C41.1017 64.8577 41.3335 64.5671 41.3769 64.3048L41.4022 64.1509C41.4456 63.8887 41.3068 63.5364 41.1002 63.3644L40.9726 63.2581C40.7721 63.0912 40.5707 63.1601 40.5272 63.4223C40.5138 63.4797 40.502 63.535 40.4919 63.5883C40.4484 63.8506 40.2106 64.1361 39.9606 64.2263L38.7438 64.6742C38.4948 64.7755 38.4574 64.981 38.664 65.1531L38.7916 65.2593C38.9921 65.4263 39.3576 65.494 39.6127 65.3978ZM43.0273 64.7325C42.8268 64.5656 42.6203 64.6405 42.5768 64.9028C42.5633 64.9601 42.5515 65.0155 42.5414 65.0688C42.498 65.331 42.2602 65.6166 42.0101 65.7068L40.7934 66.1547C40.5494 66.2499 40.507 66.4615 40.7136 66.6335L40.8412 66.7398C41.0417 66.9068 41.4122 66.9684 41.6623 66.8782L42.9013 66.4283C43.1513 66.3382 43.383 66.0475 43.4265 65.7853L43.4518 65.6314C43.4891 65.3641 43.3615 65.0108 43.1549 64.8388L43.0273 64.7325Z" fill="#BA68C8"/>
<g opacity="0.6">
<path d="M38.7434 64.6745C38.4945 64.7758 38.4572 64.9812 38.6636 65.1532L38.7912 65.2594C38.9916 65.4263 39.3569 65.494 39.6119 65.3978L40.8504 64.9481C40.9424 64.9116 41.0426 64.8407 41.1306 64.7597C40.8114 64.5419 40.4957 64.3201 40.1832 64.0942C40.1104 64.157 40.0416 64.2025 39.9596 64.2268L38.7434 64.6745Z" fill="white"/>
<path d="M42.2841 65.5251C42.2073 65.605 42.1071 65.6759 42.009 65.7073L40.7927 66.155C40.5489 66.2502 40.5065 66.4617 40.713 66.6337L40.8405 66.7399C41.0409 66.9068 41.4113 66.9684 41.6612 66.8782L42.8997 66.4285C43.0353 66.3769 43.1658 66.2696 43.2609 66.143C42.9356 65.9408 42.6101 65.7348 42.2841 65.5251Z" fill="white"/>
</g>
<path d="M31.3829 44.2389C30.3676 44.6179 29.5651 45.6063 29.1981 47.1219C29.1603 47.2826 29.1249 47.4486 29.0919 47.6201C29.0545 47.8256 29.0283 48.0301 29.0081 48.2397C28.9758 48.5832 28.9631 48.9362 28.97 49.2987C28.9793 49.9547 29.0524 50.633 29.1761 51.3122C29.522 53.1334 30.2788 54.9676 31.3079 56.4626C31.8315 57.2177 32.42 57.8826 33.0701 58.424C34.4433 59.5676 35.8111 59.9144 36.9226 59.5435L29.1099 62.4628L29.1089 62.4516C27.7129 62.9046 26.09 62.6541 24.7411 61.5307C24.1214 61.0146 23.5532 60.3871 23.0498 59.6695C21.9853 58.1553 21.2082 56.2837 20.8472 54.4189C20.7234 53.7397 20.6453 53.0675 20.641 52.4054C20.6308 52.047 20.6435 51.694 20.6791 51.3464C20.7013 51.1385 20.7276 50.934 20.7579 50.7328C20.7909 50.5614 20.83 50.395 20.8752 50.2337C21.2797 48.7595 22.2725 47.7033 23.4892 47.1936L23.4943 47.1876L23.5975 47.1501C23.641 47.1349 23.6896 47.1136 23.7392 47.1035L31.3829 44.2389Z" fill="#FFB93E"/>
<path opacity="0.1" d="M29.1104 62.4634L29.1093 62.4523C27.7134 62.9053 26.0905 62.6547 24.7416 61.5314C24.1218 61.0153 23.5537 60.3878 23.0503 59.6702L31.3083 56.4632C31.832 57.2183 32.4204 57.8833 33.0705 58.4247C34.4437 59.5683 35.8116 59.9151 36.9231 59.5442L29.1104 62.4634Z" fill="black"/>
<path opacity="0.2" d="M24.1942 57.1342L28.1958 55.6407C28.8851 55.3813 29.1815 54.63 28.916 53.9355C28.8809 53.8377 28.8478 53.7415 28.8167 53.647C28.5674 52.9455 27.8708 52.5712 27.1703 52.8316L23.1749 54.3302C22.4744 54.5906 22.0474 55.3875 22.2967 56.089C22.3318 56.1869 22.3686 56.2827 22.4071 56.3765C22.6615 57.072 23.4998 57.3997 24.1942 57.1342Z" fill="black"/>
<path d="M28.1958 55.6407C28.8851 55.3813 29.1815 54.63 28.9161 53.9356C28.8809 53.8378 28.8478 53.7416 28.8167 53.6471C28.7266 53.3971 28.5777 53.1805 28.3893 53.0236C28.122 52.9245 27.8183 52.9185 27.5085 53.031L23.5131 54.5296C22.8126 54.79 22.3917 55.592 22.6349 56.2884C22.67 56.3863 22.7069 56.4821 22.7454 56.5759C22.8214 56.7936 22.9672 56.9767 23.1373 57.1184C23.4694 57.2509 23.8471 57.267 24.1943 57.1343L28.1958 55.6407Z" fill="#BA68C8"/>
<path opacity="0.2" d="M28.1958 55.6407C28.8851 55.3813 29.1815 54.63 28.9161 53.9356C28.8809 53.8378 28.8478 53.7416 28.8167 53.6471C28.7266 53.3971 28.5777 53.1805 28.3893 53.0236C28.122 52.9245 27.8183 52.9185 27.5085 53.031L23.5131 54.5296C22.8126 54.79 22.3917 55.592 22.6349 56.2884C22.67 56.3863 22.7069 56.4821 22.7454 56.5759C22.8214 56.7936 22.9672 56.9767 23.1373 57.1184C23.4694 57.2509 23.8471 57.267 24.1943 57.1343L28.1958 55.6407Z" fill="white"/>
<path d="M29.7929 58.1337L25.8025 59.6263C25.1081 59.8918 24.923 60.5711 25.479 61.065C25.5438 61.119 25.6086 61.173 25.6734 61.2269C26.2547 61.6904 27.3805 61.7224 28.0699 61.463L32.0491 59.9715C32.7496 59.7111 32.7474 59.2565 32.1712 58.787C32.1104 58.7364 32.0493 58.6821 31.9879 58.624C31.4269 58.1362 30.4873 57.8683 29.7929 58.1337Z" fill="#BA68C8"/>
<path opacity="0.2" d="M29.7929 58.1337L25.8025 59.6263C25.1081 59.8918 24.923 60.5711 25.479 61.065C25.5438 61.119 25.6086 61.173 25.6734 61.2269C26.2547 61.6904 27.3805 61.7224 28.0699 61.463L32.0491 59.9715C32.7496 59.7111 32.7474 59.2565 32.1712 58.787C32.1104 58.7364 32.0493 58.6821 31.9879 58.624C31.4269 58.1362 30.4873 57.8683 29.7929 58.1337Z" fill="black"/>
<path d="M29.7928 58.1346L25.8025 59.6271C25.4603 59.7538 25.2407 59.9928 25.18 60.251C25.2267 60.3927 25.3178 60.5304 25.4636 60.6518C25.5251 60.7098 25.5882 60.7658 25.653 60.8198C26.2343 61.2833 27.3601 61.3153 28.0545 61.0498L32.0287 59.5644C32.2888 59.462 32.4568 59.3344 32.5226 59.1937C32.4618 59.0607 32.3447 58.9255 32.1711 58.7878C32.1104 58.7372 32.0493 58.6829 31.9879 58.6249C31.4268 58.1371 30.4872 57.8691 29.7928 58.1346Z" fill="#BA68C8"/>
<path opacity="0.2" d="M29.7928 58.1346L25.8025 59.6271C25.4603 59.7538 25.2407 59.9928 25.18 60.251C25.2267 60.3927 25.3178 60.5304 25.4636 60.6518C25.5251 60.7098 25.5882 60.7658 25.653 60.8198C26.2343 61.2833 27.3601 61.3153 28.0545 61.0498L32.0287 59.5644C32.2888 59.462 32.4568 59.3344 32.5226 59.1937C32.4618 59.0607 32.3447 58.9255 32.1711 58.7878C32.1104 58.7372 32.0493 58.6829 31.9879 58.6249C31.4268 58.1371 30.4872 57.8691 29.7928 58.1346Z" fill="white"/>
<path opacity="0.2" d="M21.7014 50.2429C21.6798 50.3347 21.662 50.4262 21.6478 50.5173C21.5286 51.2412 22.1099 51.6429 22.8043 51.3774L26.8108 49.8778C27.5063 49.6235 28.0547 48.8043 28.1841 48.0682C28.1942 47.9737 28.21 47.8806 28.2316 47.7888C28.3842 47.0618 28.1128 46.7329 27.4183 46.9984L23.3895 48.5C22.6951 48.7655 21.8429 49.517 21.7014 50.2429Z" fill="black"/>
<path d="M27.734 47.2613L23.7113 48.768C23.0108 49.0284 22.1586 49.7799 22.0171 50.5058C21.9955 50.5976 21.9777 50.6891 21.9635 50.7802C21.9241 51.0252 21.9718 51.2398 22.065 51.3997C22.2745 51.4817 22.5276 51.4867 22.804 51.3772L26.8106 49.8776C27.506 49.6232 28.0544 48.804 28.1838 48.068C28.1939 47.9735 28.2097 47.8803 28.2313 47.7886C28.2859 47.5253 28.2898 47.3228 28.2372 47.1761C28.1066 47.1599 27.9345 47.1812 27.734 47.2613Z" fill="#BA68C8"/>
<path opacity="0.2" d="M27.734 47.2613L23.7113 48.768C23.0108 49.0284 22.1586 49.7799 22.0171 50.5058C21.9955 50.5976 21.9777 50.6891 21.9635 50.7802C21.9241 51.0252 21.9718 51.2398 22.065 51.3997C22.2745 51.4817 22.5276 51.4867 22.804 51.3772L26.8106 49.8776C27.506 49.6232 28.0544 48.804 28.1838 48.068C28.1939 47.9735 28.2097 47.8803 28.2313 47.7886C28.2859 47.5253 28.2898 47.3228 28.2372 47.1761C28.1066 47.1599 27.9345 47.1812 27.734 47.2613Z" fill="white"/>
<path d="M35.3338 45.3279C38.148 47.6818 39.9303 52.5104 39.3059 56.1268C38.9946 57.9462 38.1294 59.1087 36.9876 59.5161C36.966 59.5255 36.9444 59.535 36.9228 59.5444C35.8113 59.9153 34.4434 59.5685 33.0703 58.425C30.251 56.0771 28.4676 51.2375 29.0921 47.621C29.4053 45.8239 30.2534 44.6573 31.383 44.2399C32.5127 43.8224 33.9181 44.1489 35.3338 45.3279Z" fill="#BA68C8"/>
<path opacity="0.2" d="M35.3338 45.3279C38.148 47.6818 39.9303 52.5104 39.3059 56.1268C38.9946 57.9462 38.1294 59.1087 36.9876 59.5161C36.966 59.5255 36.9444 59.535 36.9228 59.5444C35.8113 59.9153 34.4434 59.5685 33.0703 58.425C30.251 56.0771 28.4676 51.2375 29.0921 47.621C29.4053 45.8239 30.2534 44.6573 31.383 44.2399C32.5127 43.8224 33.9181 44.1489 35.3338 45.3279Z" fill="black"/>
<path d="M43.9188 31.9171C43.9188 31.9171 42.4954 38.2845 45.9214 47.5893C46.5881 49.4205 47.3368 51.0421 48.0956 52.4663C51.1923 58.2866 54.5563 60.8205 54.5563 60.8205C50.1915 59.439 46.3086 58.5413 42.8421 58.3915C39.8039 58.2589 36.8774 59.1659 36.8774 59.1659L36.8764 59.1548C35.8499 59.5348 34.5722 59.191 33.3084 58.1385C32.4699 57.4402 31.7295 56.5253 31.1228 55.4746C30.7368 54.8136 30.4025 54.103 30.134 53.3752C29.4389 51.4792 29.1567 49.4333 29.4579 47.6878C29.7418 46.0618 30.4846 44.9722 31.5221 44.5912L31.5161 44.5862C31.5161 44.5862 33.9981 43.4839 36.248 41.4989C38.8461 39.207 41.4944 35.8045 43.9188 31.9171Z" fill="#BA68C8"/>
<path opacity="0.6" d="M43.9188 31.9171C43.9188 31.9171 42.4954 38.2845 45.9214 47.5893C46.5881 49.4205 47.3368 51.0421 48.0956 52.4663C51.1923 58.2866 54.5563 60.8205 54.5563 60.8205C50.1915 59.439 46.3086 58.5413 42.8421 58.3915C39.8039 58.2589 36.8774 59.1659 36.8774 59.1659L36.8764 59.1548C35.8499 59.5348 34.5722 59.191 33.3084 58.1385C32.4699 57.4402 31.7295 56.5253 31.1228 55.4746C30.7368 54.8136 30.4025 54.103 30.134 53.3752C29.4389 51.4792 29.1567 49.4333 29.4579 47.6878C29.7418 46.0618 30.4846 44.9722 31.5221 44.5912L31.5161 44.5862C31.5161 44.5862 33.9981 43.4839 36.248 41.4989C38.8461 39.207 41.4944 35.8045 43.9188 31.9171Z" fill="white"/>
<path opacity="0.3" d="M31.192 51.9813C31.192 51.9813 33.1141 50.6494 36.1065 46.8337L35.6791 43.3188C33.9656 44.6598 32.4341 45.4115 31.2183 45.747C30.4402 47.1261 30.3684 50.462 31.192 51.9813ZM37.4837 41.745L37.8197 44.5047C39.5288 41.9458 40.7529 39.2403 41.1523 37.4634C39.8954 39.195 38.6598 40.6046 37.4837 41.745Z" fill="white"/>
<path opacity="0.3" d="M31.8665 56.6082C32.301 57.1861 32.7861 57.7033 33.3087 58.1385C34.5725 59.1909 35.8502 59.5347 36.8767 59.1547L36.8777 59.1659C36.8777 59.1659 39.8042 58.2588 42.8424 58.3915C46.3089 58.5412 50.1917 59.4389 54.5566 60.8205C54.5566 60.8205 51.5298 58.5365 48.573 53.3266C42.1036 52.8165 36.4945 54.6588 31.8665 56.6082Z" fill="#BA68C8"/>
<path d="M57.2849 28.8169C60.2257 31.266 62.692 34.8531 64.4083 38.8343C66.6038 43.9451 67.5766 49.6841 66.7378 54.5216C65.2544 63.1233 58.6109 65.5654 51.903 59.9791C50.3658 58.699 48.9692 57.114 47.7274 55.3184C44.6807 50.9084 42.6551 45.2599 42.2322 39.948C42.1752 39.2009 42.149 38.4622 42.1535 37.7319C42.1483 37.4292 42.1594 37.1194 42.1775 36.8258C42.1983 36.3972 42.2289 35.9734 42.2692 35.5542C42.3163 35.127 42.3749 34.7024 42.445 34.2806C43.9334 25.6727 50.577 23.2307 57.2849 28.8169Z" fill="#068042"/>
<path opacity="0.2" d="M44.3312 47.4485C44.3312 47.4485 45.3914 47.9301 46.7649 46.9851C45.5072 43.108 44.5772 37.8985 45.4859 33.4589C44.6963 33.6657 43.9016 33.8785 43.1069 34.0914C42.3348 38.3052 43.1697 43.3943 44.3312 47.4485ZM43.4082 32.7782C44.2089 32.5704 45.0087 32.3515 45.8155 32.1487C45.8613 31.9948 45.9109 31.8406 45.9641 31.686C46.0444 31.4579 46.1277 31.2426 46.214 31.04C45.4102 31.2144 44.6078 31.4037 43.8067 31.6078C43.6543 31.9885 43.5215 32.3786 43.4082 32.7782ZM45.3265 29.0044C45.0026 29.3933 44.7142 29.8014 44.4623 30.2398C45.2722 30.0499 46.0834 29.8748 46.8959 29.7146C49.1382 26.1077 52.0512 27.0827 52.8915 27.3092C52.8915 27.3092 49.0233 24.6023 45.3265 29.0044Z" fill="white"/>
<path opacity="0.1" d="M64.4083 38.8347C66.6038 43.9456 67.5766 49.6845 66.7379 54.522C65.2545 63.1238 58.6109 65.5658 51.903 59.9795C50.3658 58.6994 48.9692 57.1144 47.7274 55.3188C48.9252 55.6475 51.3386 55.2701 50.996 53.9146C52.1132 55.5138 53.3639 56.9156 54.7128 58.0389C56.6389 59.6429 58.5485 60.5129 60.2473 60.5488C61.687 60.5747 62.9249 59.9901 63.9116 58.8053C64.873 57.6509 65.5609 55.96 65.9136 53.9178C66.628 49.8103 65.8732 44.86 64.1182 40.3321C64.1182 40.3321 64.7317 40.2256 64.4083 38.8347Z" fill="#068042"/>
<path d="M57.0593 29.8534C60.0183 32.3176 62.5009 36.1446 64.1181 40.3314C65.873 44.8592 66.6278 49.8096 65.9134 53.9171C65.5608 55.9592 64.8729 57.6501 63.9115 58.8046C62.9248 59.9894 61.6868 60.5739 60.2472 60.5481C58.5484 60.5122 56.6387 59.6421 54.7126 58.0381C53.3638 56.9148 52.113 55.5131 50.9958 53.9138C50.5778 53.3119 50.1781 52.684 49.7965 52.0302C49.1371 50.8945 48.5272 49.6869 48.0095 48.4428C47.9041 48.1904 47.8021 47.934 47.7035 47.6735C47.5302 47.2514 47.3671 46.8171 47.2262 46.3808C46.7094 44.9009 46.307 43.3824 46.0352 41.8801C46.0281 41.8639 46.0261 41.8417 46.0241 41.8194C45.8375 40.8202 45.7187 39.8261 45.6465 38.8502C45.601 38.1469 45.5846 37.4541 45.5972 36.7717C45.6012 36.4869 45.6129 36.2051 45.6324 35.9264C45.6505 35.5916 45.678 35.2578 45.7151 34.9251C45.7534 34.6072 45.7996 34.2923 45.8535 33.9805C46.2051 31.9272 46.9041 30.2353 47.8604 29.0869C49.9856 26.535 53.4259 26.8275 57.0593 29.8534Z" fill="#BA68C8"/>
<path opacity="0.4" d="M57.0593 29.8534C60.0183 32.3176 62.5009 36.1446 64.1181 40.3314C65.873 44.8592 66.6278 49.8096 65.9134 53.9171C65.5608 55.9592 64.8729 57.6501 63.9115 58.8046C62.9248 59.9894 61.6868 60.5739 60.2472 60.5481C58.5484 60.5122 56.6387 59.6421 54.7126 58.0381C53.3638 56.9148 52.113 55.5131 50.9958 53.9138C50.5778 53.3119 50.1781 52.684 49.7965 52.0302C49.1371 50.8945 48.5272 49.6869 48.0095 48.4428C47.9041 48.1904 47.8021 47.934 47.7035 47.6735C47.5302 47.2514 47.3671 46.8171 47.2262 46.3808C46.7094 44.9009 46.307 43.3824 46.0352 41.8801C46.0281 41.8639 46.0261 41.8417 46.0241 41.8194C45.8375 40.8202 45.7187 39.8261 45.6465 38.8502C45.601 38.1469 45.5846 37.4541 45.5972 36.7717C45.6012 36.4869 45.6129 36.2051 45.6324 35.9264C45.6505 35.5916 45.678 35.2578 45.7151 34.9251C45.7534 34.6072 45.7996 34.2923 45.8535 33.9805C46.2051 31.9272 46.9041 30.2353 47.8604 29.0869C49.9856 26.535 53.4259 26.8275 57.0593 29.8534Z" fill="#FF7D24"/>
<path d="M53.2764 39.586L56.6354 48.4646C54.5785 49.3035 52.065 50.3076 50.1807 52.6691C50.0531 52.46 49.9251 52.2471 49.7968 52.0304C49.1374 50.8948 48.5387 49.6862 48.0098 48.4431C47.9078 48.1867 47.8058 47.9302 47.7038 47.6738C47.5356 47.2456 47.3725 46.8113 47.2266 46.3811C46.7098 44.9012 46.3073 43.3827 46.0355 41.8804C46.0335 41.8581 46.0264 41.8419 46.0244 41.8197C45.9879 41.604 45.9453 41.3834 45.9138 41.1616C48.9289 41.7175 53.2764 39.586 53.2764 39.586Z" fill="#37474F"/>
<path d="M55.2676 44.8561C54.2109 45.5813 53.1683 46.3389 51.983 46.8232C50.5 47.4301 48.6788 47.5289 47.3846 46.5746C47.3441 46.5409 47.3019 46.5092 47.258 46.4795C47.3992 46.8784 47.5478 47.2765 47.7039 47.674C47.8059 47.9304 47.9079 48.1869 48.0099 48.4433C48.5387 49.6864 49.1375 50.895 49.7969 52.0307C49.9252 52.2473 50.0532 52.4602 50.1808 52.6694C52.0651 50.3078 54.5786 49.3037 56.6355 48.4648L55.2676 44.8561Z" fill="#263238"/>
<path d="M57.147 48.0474C56.4942 48.8312 55.4727 48.7728 54.4155 47.8924L54.3851 47.8671C52.7253 46.4745 51.6665 43.6068 52.0333 41.4736L52.0464 41.4331C52.1404 40.863 52.3387 40.3902 52.6119 40.0621C53.2646 39.2783 54.2862 39.3367 55.3434 40.2171L55.3798 40.2475C57.0447 41.6339 58.0975 44.4966 57.7307 46.6298L57.7236 46.6754C57.6235 47.2403 57.4253 47.7132 57.147 48.0474Z" fill="#068042"/>
<path opacity="0.2" d="M52.7108 42.1309C52.719 42.4053 52.792 42.6513 52.9328 42.8406C53.2316 43.2231 53.5301 42.9264 54.2003 42.826C54.749 42.7478 55.2826 42.9967 55.714 43.2942C56.2122 43.6474 56.5383 43.9601 57.2513 44.9449C57.0463 43.4983 56.3928 41.9354 55.3042 40.9567C54.8758 40.5691 54.2713 40.2818 53.6883 40.4136C53.0778 40.5535 52.6792 41.4152 52.7108 42.1309Z" fill="white"/>
<path d="M89.212 30.588L77.1491 32.7665L78.3984 36.0605L69.7607 39.3525L81.1829 37.3504L80.1674 34.0351L89.212 30.588Z" fill="#FACA32"/>
<path d="M84.5266 47.8529L76.6568 43.2541L75.7646 45.7216L69.2876 43.4043L76.718 47.8017L77.7478 45.4284L84.5266 47.8529Z" fill="#BA68C8"/>
<path opacity="0.6" d="M84.5266 47.8529L76.6568 43.2541L75.7646 45.7216L69.2876 43.4043L76.718 47.8017L77.7478 45.4284L84.5266 47.8529Z" fill="#FF7D24"/>
<path d="M75.9959 19.892L68.8063 27.6108L71.3631 29.2359L67.1092 35.9626L73.9466 28.6914L71.5345 26.9296L75.9959 19.892Z" fill="#BA68C8"/>
<path opacity="0.6" d="M75.9959 19.892L68.8063 27.6108L71.3631 29.2359L67.1092 35.9626L73.9466 28.6914L71.5345 26.9296L75.9959 19.892Z" fill="#FF7D24"/>
<path d="M42.7089 25.0673L42.724 25.0491C42.8748 24.8556 42.8494 24.5772 42.655 24.4153L36.8301 19.5233C36.6296 19.3563 36.3401 19.3827 36.1782 19.5772L36.163 19.5954C36.0122 19.7888 36.0437 20.0723 36.232 20.2291L42.063 25.1262C42.1541 25.2021 42.2756 25.2416 42.3981 25.2304C42.5206 25.2192 42.633 25.1584 42.7089 25.0673Z" fill="#E0E0E0"/>
<path d="M39.4114 32.5496L39.4215 32.5375C39.468 32.4734 39.4974 32.4052 39.5095 32.333C39.554 32.0819 39.3858 31.839 39.1347 31.7945L31.6426 30.4737C31.4715 30.4444 31.3035 30.5103 31.1982 30.649C31.151 30.7057 31.1196 30.7722 31.1041 30.8485C31.0597 31.0996 31.2329 31.3364 31.484 31.3809L38.971 32.7077C39.1421 32.737 39.3051 32.6772 39.4114 32.5496Z" fill="#E0E0E0"/>
<path d="M63.0928 18.7048C62.8963 18.5823 62.6301 18.6179 62.4833 18.7941C62.4732 18.8062 62.4614 18.8204 62.4479 18.8366L58.2668 25.1917C58.198 25.2991 58.1757 25.4246 58.198 25.5461C58.2254 25.6615 58.2973 25.7728 58.3986 25.8366C58.5363 25.9307 58.7165 25.9367 58.8613 25.8617C58.9186 25.8341 58.9675 25.7959 59.008 25.7473C59.0181 25.7351 59.0299 25.721 59.0434 25.7048L63.2246 19.3496C63.2934 19.2423 63.3106 19.1228 63.2882 19.0013C63.2659 18.8799 63.195 18.7797 63.0928 18.7048Z" fill="#E0E0E0"/>
<path d="M50.0782 21.5318C50.1241 21.5014 50.1656 21.4639 50.2027 21.4193C50.2674 21.3292 50.2978 21.231 50.2987 21.1186L50.0371 13.5126C50.0371 13.3891 49.9823 13.2818 49.8902 13.1948C49.798 13.1077 49.6816 13.0622 49.5642 13.0673C49.4245 13.0744 49.2959 13.1423 49.2099 13.2456C49.1451 13.3357 49.1097 13.44 49.1138 13.5463L49.3754 21.1523C49.3755 21.2759 49.4251 21.3892 49.5173 21.4763C49.6094 21.5633 49.7309 21.6027 49.8484 21.5976C49.9324 21.5956 50.0144 21.5713 50.0782 21.5318Z" fill="#E0E0E0"/>
</svg>
