<svg width="20" height="32" viewBox="0 0 20 32" fill="none" xmlns="http://www.w3.org/2000/svg">
<path d="M6.99995 2.39369e-06H12.9999C13.6992 -0.000346668 14.3767 0.243634 14.9153 0.689775C15.4538 1.13592 15.8195 1.75618 15.9493 2.44337C16.0791 3.13056 15.9646 3.84149 15.6259 4.45328C15.2871 5.06507 14.7452 5.53929 14.0939 5.79396C14.3359 6.76795 15.0479 7.50595 16.1379 8.57994L16.1579 8.59994C16.9259 9.35594 17.8359 10.2519 18.6319 11.4459C18.6519 11.4726 18.6685 11.5006 18.6819 11.5299C19.6436 13.0237 20.0994 14.7872 19.9819 16.5599C19.9939 16.7066 19.9999 16.8532 19.9999 16.9999V26.9998C19.9998 27.8775 19.7688 28.7397 19.3299 29.4997C18.8911 30.2598 18.2599 30.891 17.4998 31.3298C16.7397 31.7686 15.8775 31.9997 14.9999 31.9997C14.1222 31.9996 13.26 31.7686 12.4999 31.3298C11.7398 31.7687 10.8776 31.9997 9.99993 31.9998C9.12224 31.9997 8.26003 31.7687 7.49995 31.3298C6.73987 31.7686 5.87766 31.9996 5 31.9997C4.12233 31.9997 3.26012 31.7686 2.50004 31.3298C1.73995 30.891 1.10876 30.2598 0.669916 29.4997C0.231069 28.7397 2.22959e-05 27.8775 0 26.9998V16.9999C0 16.8532 0.00666708 16.7066 0.0200003 16.5599C0.00679628 16.3735 0.000125116 16.1867 0 15.9999C0 13.3399 1.27799 10.9759 3.25998 9.34794C3.48664 9.10794 3.70531 8.87994 3.91597 8.66394L3.91997 8.66194C4.98596 7.56195 5.68196 6.81195 5.91396 5.79796C5.26065 5.54527 4.71635 5.07194 4.37544 4.46002C4.03454 3.8481 3.9185 3.13617 4.04746 2.44767C4.17642 1.75917 4.54225 1.1375 5.08151 0.690438C5.62077 0.243379 6.29948 -0.000882095 6.99995 2.39369e-06ZM17.9999 23.9998V16.9999C17.9999 16.8906 17.9945 16.7832 17.9839 16.6779C17.9768 16.6161 17.9754 16.5539 17.9799 16.4919C18.0885 15.0761 17.7157 13.6652 16.9219 12.4879C16.8108 12.3218 16.6947 12.1591 16.5739 11.9999H3.43598C2.41015 13.2628 1.90384 14.869 2.01999 16.4919C2.0251 16.5538 2.02443 16.6161 2.01799 16.6779C2.00766 16.7849 2.00165 16.8924 1.99999 16.9999V23.9998H17.9999ZM1.99999 25.9998V26.9998C2.00011 27.5648 2.15981 28.1183 2.46068 28.5966C2.76156 29.0749 3.19138 29.4584 3.70066 29.7031C4.20995 29.9479 4.77799 30.0438 5.33939 29.9799C5.90079 29.9159 6.43273 29.6947 6.87395 29.3418C7.05147 29.1993 7.2723 29.1216 7.49995 29.1216C7.72759 29.1216 7.94842 29.1993 8.12594 29.3418C8.63994 29.7538 9.28994 29.9998 9.99993 29.9998C10.7099 29.9998 11.3599 29.7538 11.8739 29.3418C12.0514 29.1993 12.2723 29.1216 12.4999 29.1216C12.7276 29.1216 12.9484 29.1993 13.1259 29.3418C13.5671 29.6947 14.0991 29.9159 14.6605 29.9799C15.2219 30.0438 15.7899 29.9479 16.2992 29.7031C16.8085 29.4584 17.2383 29.0749 17.5392 28.5966C17.8401 28.1183 17.9997 27.5648 17.9999 26.9998V25.9998H1.99999ZM12.0919 5.99996H7.91194C7.59795 7.74395 6.48395 8.89194 5.43196 9.97393L5.40996 9.99993H14.7319L14.6479 9.91793C13.5799 8.86794 12.4239 7.72795 12.0939 5.99996M6.99995 3.99997H12.9999C13.2651 3.99997 13.5195 3.89462 13.707 3.70708C13.8945 3.51955 13.9999 3.2652 13.9999 2.99998C13.9999 2.73477 13.8945 2.48041 13.707 2.29288C13.5195 2.10534 13.2651 1.99999 12.9999 1.99999H6.99995C6.73474 1.99999 6.48038 2.10534 6.29285 2.29288C6.10531 2.48041 5.99996 2.73477 5.99996 2.99998C5.99996 3.2652 6.10531 3.51955 6.29285 3.70708C6.48038 3.89462 6.73474 3.99997 6.99995 3.99997Z" fill="black"/>
</svg>
