<svg width="160" height="127" viewBox="0 0 160 127" fill="none" xmlns="http://www.w3.org/2000/svg">
<path d="M74.3049 0.299332C65.4394 1.59781 57.1112 7.06039 52.8576 14.314C51.5143 16.5975 49.4546 22.284 49.4546 23.672C49.4546 24.3884 49.2308 24.478 48.0218 24.2541C44.798 23.5825 38.3504 23.4481 35.8877 23.9855C29.2162 25.3735 22.4551 30.6122 19.3657 36.836C17.7985 39.9702 17.0821 42.5224 16.5448 46.8656L16.2762 48.9701L12.918 50.179C6.91813 52.373 2.84358 56.2236 0.828692 61.5967C-0.245914 64.5071 -0.29069 72.2532 0.783917 75.2531C3.29133 82.2829 10.5897 88.0141 18.0672 88.7305L20.5746 88.9991L22.2313 86.3574L23.9327 83.7604L20.8432 83.447C12.2016 82.5515 6.20173 77.0889 5.66442 69.6115C5.26144 63.7459 7.63453 59.2236 12.4703 56.8057C13.724 56.1789 16.4553 55.1043 18.5597 54.4774L22.3656 53.2685L22.4104 49.0596C22.4551 42.7463 24.0223 38.8061 27.9625 34.8211C32.2162 30.6122 38.216 28.5973 43.9921 29.448C45.4696 29.6719 48.1114 30.6122 50.3054 31.7316C52.365 32.7614 54.2456 33.6569 54.4695 33.7465C54.6486 33.836 54.8277 32.1345 54.8277 29.9406C54.8277 27.7466 55.1411 24.7914 55.4993 23.4034C57.7828 14.6722 64.723 8.17978 73.8572 6.29922C84.1555 4.15 94.9911 9.43349 99.5582 18.7915C101.394 22.6422 101.931 25.6869 101.752 31.5077C101.707 34.239 101.707 36.5225 101.797 36.5225C101.931 36.5225 103.767 34.8211 105.871 32.7166C110.17 28.5078 112.946 26.9406 117.558 26.1347C125.214 24.7914 133.856 29.4033 137.259 36.7016C138.96 40.3732 139.587 44.0448 139.005 47.4925C138.334 51.567 138.334 51.6118 140.348 51.9252C148.318 53.1789 154.229 59.4027 154.229 66.5667C154.229 73.0591 150.289 79.5516 144.602 82.2829L142.677 83.2231L143.572 85.8649C144.602 88.8648 144.736 88.9096 148.721 86.5365C153.109 83.9395 156.871 79.462 158.796 74.5367C160.229 70.7756 160.408 64.7757 159.199 60.7907C157.497 55.1938 153.647 50.8954 147.647 48.0745L144.826 46.7313V43.7313C144.826 34.5076 138.289 25.3287 129.155 21.7467C122.573 19.1497 116.17 19.6423 107.842 23.3586C107.528 23.4929 107.125 22.7317 106.812 21.4333C106.006 18.2542 103.498 13.3289 101.304 10.6872C94.812 2.89629 84.2002 -1.17825 74.3049 0.299332Z" fill="black"/>
<path d="M73.1855 70.8654C73.1855 76.5071 70.2752 86.7158 67.2752 91.8202C65.6633 94.462 65.3947 95.3575 65.3499 97.4619C65.3499 99.5216 65.5738 100.238 66.6484 101.626C70.3647 106.507 78.9616 105.969 81.469 100.73C82.6779 98.1335 82.4988 95.5366 80.8421 93.0292C77.7079 88.1039 75.5586 81.9249 74.3049 73.9101C73.499 68.9848 73.1855 68.1341 73.1855 70.8654Z" fill="black"/>
<path d="M109.453 74.94C109.453 76.9996 107.707 82.7309 106.274 85.2831C105.2 87.1188 104.976 88.0144 105.155 89.1337C105.871 92.7605 110.886 94.059 113.662 91.283C115.185 89.8054 115.185 87.6562 113.707 85.1487C112.274 82.6861 110.886 78.7011 110.528 75.8803C110.215 73.5519 109.453 72.8803 109.453 74.94Z" fill="black"/>
<path d="M41.8876 83.7161C41.7981 86.5817 40.41 94.5517 39.3354 98.2233C38.7534 100.372 36.9176 104.805 35.3057 108.074C32.6639 113.402 32.3505 114.253 32.5744 116.044C32.6639 117.118 33.2908 118.82 33.9176 119.76C37.8579 125.76 47.8875 125.223 51.1561 118.909C52.6785 115.954 52.365 113.223 49.992 109.507C46.589 104.134 43.9921 96.0741 42.5593 86.6712C42.2011 84.3429 41.9324 82.9997 41.8876 83.7161Z" fill="black"/>
<path d="M97.4089 95.2231C97.3194 100.596 94.991 108.745 91.9911 114.297C89.8419 118.282 89.618 120.655 91.2299 122.939C92.7971 125.267 94.3642 126.208 97.0955 126.431C103.23 126.924 107.752 121.327 105.021 116.67C101.439 110.536 99.5581 105.342 98.4835 98.4021C97.6328 93.1186 97.4537 92.5366 97.4089 95.2231Z" fill="black"/>
</svg>
