<svg width="29" height="28" viewBox="0 0 29 28" fill="none" xmlns="http://www.w3.org/2000/svg">
<path d="M18.3477 10.0219V9.52187V6.51312C18.3477 5.4518 17.9183 4.43203 17.1508 3.67868C16.383 2.92502 15.3397 2.5 14.25 2.5C13.1603 2.5 12.117 2.92502 11.3492 3.67868C10.5817 4.43204 10.1523 5.4518 10.1523 6.51312V9.52187V10.0219H9.65232L7.13903 10.0219C7.13899 10.0219 7.13896 10.0219 7.13892 10.0219C6.70569 10.022 6.28821 10.1747 5.96217 10.4503C5.63636 10.7257 5.42375 11.1051 5.3604 11.5185C5.36039 11.5185 5.36038 11.5186 5.36037 11.5187L3.78648 21.8278C3.78648 21.8278 3.78647 21.8279 3.78647 21.8279C3.71598 22.2903 3.74791 22.7623 3.88019 23.2117C4.01248 23.6612 4.24219 24.0781 4.55422 24.4337C4.86628 24.7894 5.2534 25.0754 5.68953 25.2717C6.12566 25.4681 6.60019 25.5699 7.08068 25.57C7.08071 25.57 7.08074 25.57 7.08077 25.57H21.4178H21.4179C21.8985 25.5701 22.3732 25.4684 22.8096 25.2721C23.2459 25.0759 23.6331 24.7899 23.9453 24.4342C24.2575 24.0786 24.4874 23.6616 24.6197 23.2121C24.7521 22.7625 24.784 22.2905 24.7135 21.828C24.7135 21.8279 24.7135 21.8279 24.7135 21.8278L23.1381 11.5187C23.0748 11.1054 22.8624 10.7261 22.5368 10.4507C22.211 10.1752 21.794 10.0224 21.3611 10.0219C21.3609 10.0219 21.3608 10.0219 21.3606 10.0219M18.3477 10.0219L21.3611 9.52187L21.3606 10.0219M18.3477 10.0219H18.8477L21.3606 10.0219M18.3477 10.0219L21.3606 10.0219M17.3151 10.0219H17.8151V9.52187V6.51312C17.8151 5.57952 17.4372 4.68607 16.7676 4.0288C16.0984 3.37183 15.1926 3.00437 14.25 3.00437C13.3074 3.00437 12.4016 3.37183 11.7324 4.0288C11.0628 4.68607 10.6849 5.57952 10.6849 6.51312V9.52187V10.0219H11.1849H17.3151ZM17.8151 11.0262V10.5262H17.3151H11.1849H10.6849V11.0262V13.2828C10.6849 13.3467 10.6591 13.4098 10.6102 13.4579C10.5609 13.5062 10.4922 13.535 10.4186 13.535C10.345 13.535 10.2763 13.5062 10.227 13.4579L9.87676 13.8147L10.227 13.4579C10.1781 13.4098 10.1523 13.3467 10.1523 13.2828V11.0262V10.5262H9.65232L7.13892 10.5262L7.13745 10.5263C6.83733 10.5271 6.54612 10.6335 6.31677 10.828L6.6402 11.2093L6.31677 10.828C6.08727 11.0227 5.93464 11.2932 5.88911 11.5916C5.8891 11.5916 5.88909 11.5917 5.88908 11.5918L4.31366 21.8979C4.25339 22.2914 4.28036 22.693 4.39261 23.0752C4.50486 23.4573 4.69958 23.8105 4.96291 24.1108C5.22621 24.4111 5.55183 24.6514 5.91719 24.8159C6.28252 24.9805 6.67931 25.0655 7.08057 25.0656H7.08068H21.4193H21.4194C21.8207 25.0655 22.2175 24.9805 22.5828 24.8159C22.9482 24.6514 23.2738 24.4111 23.5371 24.1108C23.8004 23.8105 23.9951 23.4573 24.1074 23.0752C24.2196 22.693 24.2466 22.2914 24.1863 21.8979L22.6109 11.5918C22.6109 11.5917 22.6109 11.5916 22.6109 11.5916C22.5653 11.2928 22.4123 11.0219 22.1823 10.8272C21.9524 10.6326 21.6606 10.5265 21.36 10.5262H21.3595H18.8477H18.3477V11.0262V13.2828C18.3477 13.3467 18.3219 13.4098 18.273 13.4579C18.2237 13.5062 18.155 13.535 18.0814 13.535C18.0078 13.535 17.9391 13.5062 17.8898 13.4579C17.8409 13.4098 17.8151 13.3467 17.8151 13.2828V11.0262Z" fill="#676767" stroke="#676767"/>
</svg>
