<svg width="28" height="28" viewBox="0 0 28 28" fill="none" xmlns="http://www.w3.org/2000/svg">
<path d="M18.0977 10.0219V9.52187V6.51312C18.0977 5.4518 17.6683 4.43203 16.9008 3.67868C16.133 2.92502 15.0897 2.5 14 2.5C12.9103 2.5 11.867 2.92502 11.0992 3.67868C10.3317 4.43204 9.90232 5.4518 9.90232 6.51312V9.52187V10.0219H9.40232L6.88903 10.0219C6.88899 10.0219 6.88896 10.0219 6.88892 10.0219C6.45569 10.022 6.03821 10.1747 5.71217 10.4503C5.38636 10.7257 5.17375 11.1051 5.1104 11.5185C5.11039 11.5185 5.11038 11.5186 5.11037 11.5187L3.53648 21.8278C3.53648 21.8278 3.53647 21.8279 3.53647 21.8279C3.46598 22.2903 3.49791 22.7623 3.63019 23.2117C3.76248 23.6612 3.99219 24.0781 4.30422 24.4337C4.61628 24.7894 5.0034 25.0754 5.43953 25.2717C5.87566 25.4681 6.35019 25.5699 6.83068 25.57C6.83071 25.57 6.83074 25.57 6.83077 25.57H21.1678H21.1679C21.6485 25.5701 22.1232 25.4684 22.5596 25.2721C22.9959 25.0759 23.3831 24.7899 23.6953 24.4342C24.0075 24.0786 24.2374 23.6616 24.3697 23.2121C24.5021 22.7625 24.534 22.2905 24.4635 21.828C24.4635 21.8279 24.4635 21.8279 24.4635 21.8278L22.8881 11.5187C22.8248 11.1054 22.6124 10.7261 22.2868 10.4507C21.961 10.1752 21.544 10.0224 21.1111 10.0219C21.1109 10.0219 21.1108 10.0219 21.1106 10.0219M18.0977 10.0219L21.1111 9.52187L21.1106 10.0219M18.0977 10.0219H18.5977L21.1106 10.0219M18.0977 10.0219L21.1106 10.0219M17.0651 10.0219H17.5651V9.52187V6.51312C17.5651 5.57952 17.1872 4.68607 16.5176 4.0288C15.8484 3.37183 14.9426 3.00437 14 3.00437C13.0574 3.00437 12.1516 3.37183 11.4824 4.0288C10.8128 4.68607 10.4349 5.57952 10.4349 6.51312V9.52187V10.0219H10.9349H17.0651ZM17.5651 11.0262V10.5262H17.0651H10.9349H10.4349V11.0262V13.2828C10.4349 13.3467 10.4091 13.4098 10.3602 13.4579C10.3109 13.5062 10.2422 13.535 10.1686 13.535C10.095 13.535 10.0263 13.5062 9.97702 13.4579L9.62676 13.8147L9.97701 13.4579C9.92808 13.4098 9.90232 13.3467 9.90232 13.2828V11.0262V10.5262H9.40232L6.88892 10.5262L6.88745 10.5263C6.58733 10.5271 6.29612 10.6335 6.06677 10.828L6.3902 11.2093L6.06677 10.828C5.83727 11.0227 5.68464 11.2932 5.63911 11.5916C5.6391 11.5916 5.63909 11.5917 5.63908 11.5918L4.06366 21.8979C4.00339 22.2914 4.03036 22.693 4.14261 23.0752C4.25486 23.4573 4.44958 23.8105 4.71291 24.1108C4.97621 24.4111 5.30183 24.6514 5.66719 24.8159C6.03252 24.9805 6.42931 25.0655 6.83057 25.0656H6.83068H21.1693H21.1694C21.5707 25.0655 21.9675 24.9805 22.3328 24.8159C22.6982 24.6514 23.0238 24.4111 23.2871 24.1108C23.5504 23.8105 23.7451 23.4573 23.8574 23.0752C23.9696 22.693 23.9966 22.2914 23.9363 21.8979L22.3609 11.5918C22.3609 11.5917 22.3609 11.5916 22.3609 11.5916C22.3153 11.2928 22.1623 11.0219 21.9323 10.8272C21.7024 10.6326 21.4106 10.5265 21.11 10.5262H21.1095H18.5977H18.0977V11.0262V13.2828C18.0977 13.3467 18.0719 13.4098 18.023 13.4579C17.9737 13.5062 17.905 13.535 17.8314 13.535C17.7578 13.535 17.6891 13.5062 17.6398 13.4579C17.5909 13.4098 17.5651 13.3467 17.5651 13.2828V11.0262Z" fill="#676767" stroke="#676767"/>
</svg>
