<svg width="23" height="25" viewBox="0 0 23 25" fill="none" xmlns="http://www.w3.org/2000/svg">
<path d="M15.3477 8.02188V7.52187V4.51312C15.3477 3.4518 14.9183 2.43203 14.1508 1.67868C13.383 0.925022 12.3397 0.5 11.25 0.5C10.1603 0.5 9.11699 0.925022 8.34921 1.67868C7.58174 2.43204 7.15232 3.4518 7.15232 4.51312V7.52187V8.02188H6.65232L4.13903 8.02187C4.13899 8.02187 4.13896 8.02188 4.13892 8.02188C3.70569 8.022 3.28821 8.17474 2.96217 8.45033C2.63636 8.72572 2.42375 9.10507 2.3604 9.51849C2.36039 9.51854 2.36038 9.5186 2.36037 9.51866L0.786483 19.8278C0.786478 19.8278 0.786472 19.8279 0.786467 19.8279C0.715983 20.2903 0.747911 20.7623 0.880189 21.2117C1.01248 21.6612 1.24219 22.0781 1.55422 22.4337C1.86628 22.7894 2.2534 23.0754 2.68953 23.2717C3.12566 23.4681 3.60019 23.5699 4.08068 23.57C4.08071 23.57 4.08074 23.57 4.08077 23.57H18.4178H18.4179C18.8985 23.5701 19.3732 23.4684 19.8096 23.2721C20.2459 23.0759 20.6331 22.7899 20.9453 22.4342C21.2575 22.0786 21.4874 21.6616 21.6197 21.2121C21.7521 20.7625 21.784 20.2905 21.7135 19.828C21.7135 19.8279 21.7135 19.8279 21.7135 19.8278L20.1381 9.51866C20.0748 9.10538 19.8624 8.72612 19.5368 8.45071C19.211 8.17522 18.794 8.02236 18.3611 8.02188C18.3609 8.02188 18.3608 8.02187 18.3606 8.02187M15.3477 8.02188L18.3611 7.52187L18.3606 8.02187M15.3477 8.02188H15.8477L18.3606 8.02187M15.3477 8.02188L18.3606 8.02187M14.3151 8.02188H14.8151V7.52187V4.51312C14.8151 3.57952 14.4372 2.68607 13.7676 2.0288C13.0984 1.37183 12.1926 1.00437 11.25 1.00437C10.3074 1.00437 9.40165 1.37183 8.73238 2.0288C8.06279 2.68607 7.68488 3.57952 7.68488 4.51312V7.52187V8.02188H8.18488H14.3151ZM14.8151 9.02625V8.52625H14.3151H8.18488H7.68488V9.02625V11.2828C7.68488 11.3467 7.65912 11.4098 7.61019 11.4579C7.56093 11.5062 7.49218 11.535 7.4186 11.535C7.34501 11.535 7.27627 11.5062 7.22702 11.4579L6.87676 11.8147L7.22701 11.4579C7.17808 11.4098 7.15232 11.3467 7.15232 11.2828V9.02625V8.52625H6.65232L4.13892 8.52625L4.13745 8.52625C3.83733 8.52713 3.54612 8.63346 3.31677 8.82798L3.6402 9.20929L3.31677 8.82799C3.08727 9.02265 2.93464 9.29319 2.88911 9.59156C2.8891 9.59163 2.88909 9.59169 2.88908 9.59176L1.31366 19.8979C1.25339 20.2914 1.28036 20.693 1.39261 21.0752C1.50486 21.4573 1.69958 21.8105 1.96291 22.1108C2.22621 22.4111 2.55183 22.6514 2.91719 22.8159C3.28252 22.9805 3.67931 23.0655 4.08057 23.0656H4.08068H18.4193H18.4194C18.8207 23.0655 19.2175 22.9805 19.5828 22.8159C19.9482 22.6514 20.2738 22.4111 20.5371 22.1108C20.8004 21.8105 20.9951 21.4573 21.1074 21.0752C21.2196 20.693 21.2466 20.2914 21.1863 19.8979L19.6109 9.59176C19.6109 9.59169 19.6109 9.59163 19.6109 9.59156C19.5653 9.29276 19.4123 9.02189 19.1823 8.82717C18.9524 8.6326 18.6606 8.52654 18.36 8.52625H18.3595H15.8477H15.3477V9.02625V11.2828C15.3477 11.3467 15.3219 11.4098 15.273 11.4579C15.2237 11.5062 15.155 11.535 15.0814 11.535C15.0078 11.535 14.9391 11.5062 14.8898 11.4579C14.8409 11.4098 14.8151 11.3467 14.8151 11.2828V9.02625Z" fill="#676767" stroke="#676767"/>
</svg>
