<svg width="324" height="270" viewBox="0 0 324 270" fill="none" xmlns="http://www.w3.org/2000/svg">
<path d="M301.158 135.58C301.158 141.727 300.745 147.781 299.943 153.706C299.654 155.902 299.303 158.071 298.901 160.226C287.332 222.695 232.548 270 166.719 270C152.448 270 138.702 267.778 125.798 263.658C121.588 262.318 117.467 260.771 113.448 259.036C75.7827 242.764 47.038 209.775 36.5693 169.42C35.3405 164.706 34.369 159.885 33.6638 154.988C32.7412 148.65 32.2709 142.171 32.2709 135.58C32.2709 126.333 33.2024 117.303 34.9857 108.583C35.6421 105.355 36.414 102.175 37.2967 99.0347C39.8916 89.8274 43.4448 81.0192 47.8453 72.7253C52.1615 64.5781 57.2893 56.923 63.1313 49.8844C69.6567 41.9988 77.0779 34.8673 85.2268 28.6492C89.219 25.6066 93.3843 22.777 97.7138 20.1913C100.02 18.8031 102.376 17.4859 104.776 16.2485C108.852 14.1196 113.058 12.1992 117.374 10.5005C132.651 4.46877 149.295 1.16016 166.714 1.16016C198.16 1.16016 227.083 11.9508 249.981 30.0372C253.747 33.0088 257.353 36.1843 260.778 39.5418C263.87 42.5666 266.82 45.751 269.61 49.0685C269.787 49.2726 269.96 49.4853 270.133 49.6938C272.738 52.8206 275.198 56.0625 277.509 59.4246C278.065 60.2227 278.611 61.0343 279.142 61.8505C282.177 66.4586 284.937 71.2751 287.394 76.2601C288.16 77.817 288.898 79.387 289.602 80.9792C293.452 89.6322 296.417 98.7641 298.377 108.264C299.606 114.203 300.44 120.288 300.848 126.488C301.05 129.491 301.153 132.524 301.153 135.58H301.158Z" fill="#B0F7E9"/>
<path d="M282.723 163.69L234.974 154.598C229.03 153.468 225.215 147.857 226.346 141.914L246.49 36.1893C247.621 30.2464 253.232 26.432 259.176 27.5631L306.926 36.6551C312.868 37.7861 316.684 43.3964 315.552 49.3394L295.41 155.064C294.279 161.007 288.666 164.821 282.723 163.69Z" fill="#333333"/>
<path d="M290.96 147.21L251.471 139.692L248.073 139.045L233.576 136.282L240.199 101.524L244.098 81.0645L252.313 37.9329L309.693 48.8611L290.96 147.21Z" fill="white"/>
<path d="M36.9237 97.5294C36.7774 98.3189 36.2363 100.661 34.1292 102.634C31.9554 104.67 29.4893 105.025 28.7041 105.109C29.5246 105.216 32.0265 105.637 34.2089 107.744C36.2938 109.753 36.8438 112.099 37.0036 112.928C37.1146 112.165 37.5625 109.775 39.6386 107.744C41.7942 105.628 44.3139 105.269 45.0637 105.189C44.3096 105.113 41.6169 104.75 39.3991 102.474C37.5183 100.545 37.0568 98.341 36.9237 97.5294Z" fill="#62CFE8"/>
<path d="M311.099 166.606C310.951 167.395 310.411 169.737 308.305 171.711C306.131 173.746 303.664 174.101 302.878 174.186C303.699 174.292 306.202 174.713 308.383 176.82C310.468 178.829 311.018 181.175 311.178 182.004C311.288 181.242 311.737 178.851 313.813 176.82C315.97 174.704 318.489 174.345 319.237 174.265C318.484 174.19 315.792 173.826 313.573 171.551C311.693 169.622 311.232 167.417 311.099 166.606Z" fill="#7DDAEA"/>
<path d="M17.1348 63.6122C16.8598 65.0848 15.8484 69.4667 11.9137 73.1567C7.85488 76.9621 3.2416 77.6274 1.77332 77.7781C3.31259 77.9733 7.98356 78.7628 12.0646 82.6967C15.9638 86.4532 16.9929 90.835 17.2857 92.3875C17.4941 90.9592 18.3325 86.4931 22.205 82.6967C26.2328 78.7449 30.9394 78.0753 32.3455 77.9244C30.935 77.7827 25.9001 77.1085 21.757 72.8552C18.2437 69.2493 17.3788 65.1291 17.1348 63.6122Z" fill="#4CC0D3"/>
<path d="M125.793 263.665C121.583 262.326 117.462 260.778 113.444 259.044C112.831 236.385 112.29 215.362 111.807 195.963C111.767 194.371 111.727 192.792 111.691 191.222C111.62 188.321 111.545 185.474 111.487 182.658C111.483 182.653 111.487 182.653 111.487 182.653C111.483 182.604 111.483 182.551 111.483 182.502C111.048 164.757 110.675 148.481 110.361 133.654V133.641C110.223 127.094 110.094 120.828 109.97 114.849C109.522 91.6401 109.23 72.6753 109.11 57.9063C109.088 55.303 109.07 52.8281 109.061 50.4907V50.4732C109.017 42.6494 109.034 36.2763 109.11 31.3399C109.154 28.1734 109.225 25.5964 109.323 23.6095C109.482 20.2388 109.704 18.5534 110.001 18.5446C110.303 18.5357 110.676 20.3009 111.119 23.8667C111.368 25.9291 111.652 28.5946 111.958 31.8589C112.512 37.8861 113.155 45.9715 113.887 56.1235V56.1367C113.994 57.6625 114.109 59.2414 114.22 60.8647V60.8822C115.351 77.1549 116.668 98.1463 118.181 123.941C118.181 123.941 118.181 123.945 118.181 123.954C118.43 128.234 118.687 132.656 118.949 137.206C120.009 155.652 121.153 176.262 122.386 199.077C122.542 201.982 122.697 204.913 122.857 207.889C122.959 209.712 123.052 211.539 123.149 213.38C123.287 215.939 123.429 218.524 123.566 221.137C124.285 234.629 125.026 248.803 125.798 263.674L125.793 263.665Z" fill="#48C15C"/>
<path d="M145.7 87.0723C135.506 95.4234 118.854 111.967 114.919 136.311C114.44 139.269 114.183 142.148 114.099 144.928C115.305 145.31 116.512 145.691 117.719 146.077C117.94 143.585 118.344 140.174 119.138 136.173C122.154 120.939 128.254 109.997 131.288 105.066C134.326 100.125 138.94 93.6716 145.7 87.0766V87.0723Z" fill="#48C15C"/>
<path d="M82.8887 79.1801C93.0823 87.5315 109.735 104.074 113.669 128.419C114.148 131.377 114.406 134.256 114.49 137.036C113.283 137.418 112.077 137.799 110.87 138.185C110.648 135.692 110.245 132.282 109.451 128.282C106.434 113.047 100.335 102.105 97.3007 97.1735C94.2622 92.2327 89.6489 85.7795 82.8887 79.1844V79.1801Z" fill="#48C15C"/>
<path d="M94.7101 32.389C100.388 37.0414 109.663 46.2576 111.855 59.8159C112.121 61.4613 112.267 63.0667 112.312 64.6146C111.642 64.8274 110.968 65.0404 110.298 65.2531C110.174 63.8651 109.947 61.9667 109.508 59.736C107.827 51.2515 104.434 45.1576 102.739 42.4079C101.045 39.6582 98.476 36.0613 94.7101 32.389Z" fill="#48C15C"/>
<path d="M126.05 40.84C121.206 44.8092 113.288 52.6727 111.421 64.2441C111.194 65.65 111.07 67.0159 111.03 68.3422C111.602 68.5239 112.175 68.7059 112.751 68.8876C112.858 67.7033 113.049 66.0801 113.426 64.1774C114.858 56.9349 117.759 51.7326 119.201 49.3909C120.647 47.0446 122.839 43.9755 126.055 40.84H126.05Z" fill="#48C15C"/>
<path d="M72.8815 151.725C84.9737 156.954 105.534 168.29 116.007 190.616C117.28 193.326 118.318 196.023 119.166 198.675C118.11 199.376 117.059 200.072 116.003 200.773C115.107 198.44 113.776 195.269 111.917 191.641C104.829 177.821 95.9616 168.973 91.6897 165.066C87.4091 161.149 81.2031 156.209 72.8904 151.729L72.8815 151.725Z" fill="#48C15C"/>
<path d="M165.082 161.051C152.989 166.28 132.429 177.616 121.956 199.942C120.683 202.652 119.645 205.349 118.797 208.001C119.853 208.702 120.904 209.398 121.96 210.099C122.856 207.766 124.187 204.595 126.046 200.967C133.134 187.147 142.001 178.299 146.273 174.392C150.554 170.475 156.76 165.535 165.073 161.055L165.082 161.051Z" fill="#48C15C"/>
<path d="M180.279 62.758C179.884 68.9318 178.19 80.9508 169.557 91.6928C158.011 106.062 136.536 115.035 128.915 109.163C128.756 109.047 128.609 108.923 128.467 108.79C127.922 108.289 127.447 107.686 127.052 106.994C123.57 100.967 125.708 88.2689 132.633 77.7754C134.833 74.4268 137.521 71.3134 140.666 68.7098C141.265 68.2087 141.882 67.7254 142.516 67.2686C158.312 55.8303 177.777 61.9285 180.283 62.758H180.279Z" fill="#51D36A"/>
<path d="M180.279 62.758C179.884 68.9318 178.19 80.9508 169.557 91.6928C158.011 106.062 136.536 115.035 128.915 109.163C128.756 109.047 128.609 108.923 128.467 108.79C127.922 108.289 127.447 107.686 127.052 106.994C123.57 100.967 125.708 88.2689 132.633 77.7754C134.833 74.4268 137.521 71.3134 140.666 68.7098C141.265 68.2087 141.882 67.7254 142.516 67.2686C158.312 55.8303 177.777 61.9285 180.283 62.758H180.279Z" fill="#51D36A"/>
<path d="M95.6731 92.715C90.1549 100.228 66.8839 97.3455 54.459 83.6365C41.8565 69.7324 45.6449 50.4706 46.1773 47.9868C52.1257 47.712 63.8099 48.0757 74.9928 55.2028C90.2613 64.938 101.236 85.1399 95.6731 92.7196V92.715Z" fill="#51D36A"/>
<path d="M95.6731 92.715C90.1549 100.228 66.8839 97.3455 54.459 83.6365C41.8565 69.7324 45.6449 50.4706 46.1773 47.9868C52.1257 47.712 63.8099 48.0757 74.9928 55.2028C90.2613 64.938 101.236 85.1399 95.6731 92.7196V92.715Z" fill="#51D36A"/>
<path d="M104.824 43.6042C102.411 48.6113 92.9625 47.2276 88.1762 38.5703C83.3232 29.7886 85.2794 17.1707 85.5502 15.543C87.9853 15.237 92.754 15.2281 97.1677 19.6278C103.201 25.6374 107.255 38.5568 104.82 43.6042H104.824Z" fill="#51D36A"/>
<path d="M104.824 43.6042C102.411 48.6113 92.9625 47.2276 88.1762 38.5703C83.3232 29.7886 85.2794 17.1707 85.5502 15.543C87.9853 15.237 92.754 15.2281 97.1677 19.6278C103.201 25.6374 107.255 38.5568 104.82 43.6042H104.824Z" fill="#51D36A"/>
<path d="M118.962 54.4561C115.138 54.5625 113.004 48.3533 116.788 42.6941C120.625 36.9595 128.956 34.1742 130.034 33.824C130.987 35.2164 132.5 38.1259 131.2 42.2108C129.43 47.7946 122.812 54.3454 118.957 54.4518L118.962 54.4561Z" fill="#51D36A"/>
<path d="M118.962 54.4561C115.138 54.5625 113.004 48.3533 116.788 42.6941C120.625 36.9595 128.956 34.1742 130.034 33.824C130.987 35.2164 132.5 38.1259 131.2 42.2108C129.43 47.7946 122.812 54.3454 118.957 54.4518L118.962 54.4561Z" fill="#51D36A"/>
<path d="M112.458 23.4086C109.184 25.3867 104.265 21.0358 104.766 14.2501C105.276 7.36676 111.149 0.838239 111.917 0C113.434 0.740667 116.184 2.52803 117.071 6.72365C118.282 12.4539 115.758 21.4172 112.458 23.4086Z" fill="#51D36A"/>
<path d="M112.458 23.4086C109.184 25.3867 104.265 21.0358 104.766 14.2501C105.276 7.36676 111.149 0.838239 111.917 0C113.434 0.740667 116.184 2.52803 117.071 6.72365C118.282 12.4539 115.758 21.4172 112.458 23.4086Z" fill="#51D36A"/>
<path d="M209.787 187.034C198.879 170.726 191.653 167.754 186.893 168.597C185.624 168.827 184.582 169.311 183.659 169.998C182.328 170.983 181.25 172.38 180.11 173.972C177.799 177.21 175.235 181.263 169.735 184.377C160.836 189.411 145.652 191.189 139.633 182.953C139.389 182.616 139.158 182.266 138.95 181.907C138.364 180.904 137.925 179.804 137.61 178.638C136.115 173.01 137.73 165.745 141.886 159.225C144.046 156.391 154.107 143.813 168.963 143.263C187.243 142.585 206.619 160.334 209.782 187.034H209.787Z" fill="#51D36A"/>
<path d="M209.787 187.034C198.879 170.726 191.653 167.754 186.893 168.597C185.624 168.827 184.582 169.311 183.659 169.998C182.328 170.983 181.25 172.38 180.11 173.972C177.799 177.21 175.235 181.263 169.735 184.377C160.836 189.411 145.652 191.189 139.633 182.953C139.389 182.616 139.158 182.266 138.95 181.907C138.364 180.904 137.925 179.804 137.61 178.638C136.115 173.01 137.73 165.745 141.886 159.225C144.046 156.391 154.107 143.813 168.963 143.263C187.243 142.585 206.619 160.334 209.782 187.034H209.787Z" fill="#51D36A"/>
<path d="M100.877 154.692C98.3303 151.353 86.4953 136.553 69.0091 135.905C47.4949 135.107 24.6942 155.996 20.9725 187.419C33.8146 168.228 42.3136 164.725 47.9207 165.723C55.9808 167.16 56.2602 177.586 68.1086 184.292C78.5816 190.222 96.454 192.316 103.529 182.616C108.506 175.799 107.14 164.521 100.877 154.692Z" fill="#51D36A"/>
<path d="M100.877 154.692C98.3303 151.353 86.4953 136.553 69.0091 135.905C47.4949 135.107 24.6942 155.996 20.9725 187.419C33.8146 168.228 42.3136 164.725 47.9207 165.723C55.9808 167.16 56.2602 177.586 68.1086 184.292C78.5816 190.222 96.454 192.316 103.529 182.616C108.506 175.799 107.14 164.521 100.877 154.692Z" fill="#51D36A"/>
<path d="M143.749 74.0662C143.749 77.4768 140.981 80.2443 137.57 80.2443C135.552 80.2443 133.755 79.2774 132.628 77.7784C134.829 74.4299 137.517 71.3165 140.662 68.7129C142.507 69.7818 143.754 71.782 143.754 74.0662H143.749Z" fill="#8A912D"/>
<path d="M139.008 88.7071C140.541 88.7071 141.784 87.464 141.784 85.9307C141.784 84.3971 140.541 83.1543 139.008 83.1543C137.474 83.1543 136.231 84.3971 136.231 85.9307C136.231 87.464 137.474 88.7071 139.008 88.7071Z" fill="#8A912D"/>
<path d="M158.636 84.9259C160.555 84.9259 162.11 83.3712 162.11 81.4532C162.11 79.5353 160.555 77.9807 158.636 77.9807C156.718 77.9807 155.163 79.5353 155.163 81.4532C155.163 83.3712 156.718 84.9259 158.636 84.9259Z" fill="#737525"/>
<path d="M61.0639 77.0627C62.5483 77.0627 63.752 75.8594 63.752 74.3752C63.752 72.8907 62.5483 71.6873 61.0639 71.6873C59.5791 71.6873 58.3755 72.8907 58.3755 74.3752C58.3755 75.8594 59.5791 77.0627 61.0639 77.0627Z" fill="#8A912D"/>
<path d="M158.987 180.468C162.196 180.468 164.798 177.866 164.798 174.657C164.798 171.449 162.196 168.848 158.987 168.848C155.777 168.848 153.176 171.449 153.176 174.657C153.176 177.866 155.777 180.468 158.987 180.468Z" fill="#D8DB3B"/>
<path d="M164.394 165.509C166.001 165.509 167.304 164.206 167.304 162.599C167.304 160.993 166.001 159.69 164.394 159.69C162.787 159.69 161.484 160.993 161.484 162.599C161.484 164.206 162.787 165.509 164.394 165.509Z" fill="#8A912D"/>
<path d="M183.663 170.004C182.333 170.989 181.255 172.386 180.115 173.978C178.948 173.597 178.105 172.497 178.105 171.211C178.105 169.601 179.409 168.297 181.015 168.297C182.195 168.297 183.211 168.997 183.663 170.004Z" fill="#8A912D"/>
<path d="M277.031 62.8452C276.537 62.7388 271.712 82.3376 262.285 122.826C263.279 123.052 264.268 123.274 265.262 123.5C273.686 82.7812 277.522 62.9562 277.031 62.8498V62.8452Z" fill="#48C15C"/>
<path d="M281.288 81.4959C278.326 82.8575 273.299 85.7759 270.834 91.3598C270.531 92.0383 270.291 92.7125 270.097 93.3732C270.364 93.5417 270.626 93.7058 270.891 93.8743C271.098 93.2933 271.409 92.4995 271.854 91.5904C273.531 88.1309 275.678 85.8912 276.712 84.9022C277.749 83.9086 279.258 82.6537 281.288 81.4959Z" fill="#48C15C"/>
<path d="M266.743 75.6705C268.66 78.3095 271.615 83.3123 271.029 89.3884C270.959 90.1247 270.837 90.8299 270.686 91.5041L269.747 91.5527C269.849 90.9409 269.969 90.0982 270.027 89.0914C270.257 85.2549 269.485 82.2523 269.064 80.8817C268.646 79.5069 267.946 77.6752 266.739 75.6705H266.743Z" fill="#48C15C"/>
<path d="M272.506 65.2066C273.575 66.6746 275.216 69.4642 274.892 72.8484C274.852 73.2607 274.787 73.6511 274.701 74.028L274.18 74.0548C274.236 73.7132 274.304 73.2475 274.334 72.6843C274.463 70.5464 274.031 68.8746 273.796 68.1115C273.561 67.3488 273.175 66.3241 272.503 65.2109L272.506 65.2066Z" fill="#48C15C"/>
<path d="M279.48 69.1909C278.068 69.8386 275.684 71.2267 274.506 73.8789C274.366 74.2026 274.25 74.522 274.155 74.8368L274.533 75.0763C274.631 74.8015 274.782 74.4245 274.99 73.9898C275.789 72.3445 276.809 71.2798 277.301 70.8098C277.795 70.3397 278.513 69.7408 279.48 69.1909Z" fill="#48C15C"/>
<path d="M259.802 92.4221C262.371 94.4311 266.584 98.436 267.694 104.437C267.827 105.164 267.906 105.878 267.946 106.566C267.649 106.668 267.352 106.77 267.059 106.872C266.988 106.255 266.873 105.413 266.651 104.428C265.821 100.676 264.251 98.0013 263.47 96.795C262.69 95.5886 261.514 94.0186 259.802 92.4221Z" fill="#48C15C"/>
<path d="M281.297 100.421C278.073 100.918 272.438 102.341 268.531 107.034C268.056 107.601 267.639 108.183 267.271 108.768C267.479 109.003 267.688 109.234 267.897 109.469C268.256 108.967 268.775 108.289 269.449 107.535C272.014 104.67 274.692 103.104 275.961 102.439C277.23 101.769 279.026 100.975 281.297 100.421Z" fill="#48C15C"/>
<path d="M291.092 77.8358C290.612 79.2905 289.451 82.0624 286.71 84.0938C283.046 86.8125 277.336 87.6152 275.881 85.7303C275.851 85.6949 275.824 85.655 275.797 85.615C275.7 85.4598 275.619 85.2867 275.57 85.0961C275.114 83.4329 276.423 80.5279 278.737 78.4479C279.474 77.7826 280.314 77.2059 281.232 76.7803C281.407 76.6958 281.586 76.6205 281.764 76.5495C286.262 74.7977 290.541 77.481 291.092 77.8358Z" fill="#51D36A"/>
<path d="M291.092 77.8358C290.612 79.2905 289.451 82.0624 286.71 84.0938C283.046 86.8125 277.336 87.6152 275.881 85.7303C275.851 85.6949 275.824 85.655 275.797 85.615C275.7 85.4598 275.619 85.2867 275.57 85.0961C275.114 83.4329 276.423 80.5279 278.737 78.4479C279.474 77.7826 280.314 77.2059 281.232 76.7803C281.407 76.6958 281.586 76.6205 281.764 76.5495C286.262 74.7977 290.541 77.481 291.092 77.8358Z" fill="#51D36A"/>
<path d="M268.956 79.7144C267.164 81.1692 261.77 79.0181 259.654 74.96C257.508 70.8395 259.623 66.4666 259.903 65.9034C261.345 66.2093 264.122 67.0298 266.353 69.4382C269.4 72.7247 270.761 78.2508 268.956 79.7187V79.7144Z" fill="#51D36A"/>
<path d="M268.956 79.7144C267.164 81.1692 261.77 79.0181 259.654 74.96C257.508 70.8395 259.623 66.4666 259.903 65.9034C261.345 66.2093 264.122 67.0298 266.353 69.4382C269.4 72.7247 270.761 78.2508 268.956 79.7187V79.7144Z" fill="#51D36A"/>
<path d="M274.222 68.5253C273.331 69.5721 271.152 68.6495 270.55 66.2768C269.937 63.8684 271.198 60.9723 271.36 60.5952C271.965 60.6751 273.105 60.9723 273.89 62.3029C274.959 64.1211 275.119 67.4696 274.222 68.5253Z" fill="#51D36A"/>
<path d="M274.222 68.5253C273.331 69.5721 271.152 68.6495 270.55 66.2768C269.937 63.8684 271.198 60.9723 271.36 60.5952C271.965 60.6751 273.105 60.9723 273.89 62.3029C274.959 64.1211 275.119 67.4696 274.222 68.5253Z" fill="#51D36A"/>
<path d="M276.928 72.009C276.008 71.7963 275.886 70.173 277.147 69.0552C278.424 67.9199 280.592 67.7779 280.873 67.7603C281.013 68.1551 281.192 68.9443 280.627 69.8404C279.858 71.0643 277.86 72.2221 276.928 72.0047V72.009Z" fill="#51D36A"/>
<path d="M276.928 72.009C276.008 71.7963 275.886 70.173 277.147 69.0552C278.424 67.9199 280.592 67.7779 280.873 67.7603C281.013 68.1551 281.192 68.9443 280.627 69.8404C279.858 71.0643 277.86 72.2221 276.928 72.0047V72.009Z" fill="#51D36A"/>
<path d="M277.32 64.1666C276.41 64.4325 275.506 63.0844 276.051 61.4922C276.605 59.8776 278.419 58.6802 278.654 58.5295C278.975 58.8001 279.521 59.4033 279.467 60.4633C279.399 61.9091 278.233 63.9004 277.315 64.1709L277.32 64.1666Z" fill="#51D36A"/>
<path d="M277.32 64.1666C276.41 64.4325 275.506 63.0844 276.051 61.4922C276.605 59.8776 278.419 58.6802 278.654 58.5295C278.975 58.8001 279.521 59.4033 279.467 60.4633C279.399 61.9091 278.233 63.9004 277.315 64.1709L277.32 64.1666Z" fill="#51D36A"/>
<path d="M290.377 109.449C288.787 104.859 287.243 103.697 286.049 103.599C285.731 103.573 285.45 103.626 285.188 103.732C284.807 103.883 284.462 104.154 284.089 104.46C283.333 105.089 282.464 105.901 280.952 106.3C278.503 106.948 274.755 106.425 273.832 104.074C273.797 103.976 273.762 103.879 273.735 103.781C273.659 103.506 273.618 103.213 273.618 102.916C273.616 101.475 274.458 99.8338 275.859 98.5343C276.556 97.9933 279.75 95.6073 283.344 96.4054C287.761 97.3901 291.293 102.854 290.377 109.445V109.449Z" fill="#51D36A"/>
<path d="M290.377 109.449C288.787 104.859 287.243 103.697 286.049 103.599C285.731 103.573 285.45 103.626 285.188 103.732C284.807 103.883 284.462 104.154 284.089 104.46C283.333 105.089 282.464 105.901 280.952 106.3C278.503 106.948 274.755 106.425 273.832 104.074C273.797 103.976 273.762 103.879 273.735 103.781C273.659 103.506 273.618 103.213 273.618 102.916C273.616 101.475 274.458 99.8338 275.859 98.5343C276.556 97.9933 279.75 95.6073 283.344 96.4054C287.761 97.3901 291.293 102.854 290.377 109.445V109.449Z" fill="#51D36A"/>
<path d="M266.318 94.8814C265.919 93.9232 264.011 89.6345 259.864 88.3839C254.762 86.8449 247.993 90.4197 245.132 97.711C249.408 93.9189 251.666 93.613 252.944 94.2027C254.785 95.0499 254.199 97.5644 256.617 99.9151C258.755 101.991 262.902 103.61 265.204 101.734C266.824 100.412 267.205 97.6265 266.318 94.8814Z" fill="#51D36A"/>
<path d="M266.318 94.8814C265.919 93.9232 264.011 89.6345 259.864 88.3839C254.762 86.8449 247.993 90.4197 245.132 97.711C249.408 93.9189 251.666 93.613 252.944 94.2027C254.785 95.0499 254.199 97.5644 256.617 99.9151C258.755 101.991 262.902 103.61 265.204 101.734C266.824 100.412 267.205 97.6265 266.318 94.8814Z" fill="#51D36A"/>
<path d="M281.64 78.2582C281.426 79.0744 280.587 79.5666 279.771 79.3492C279.288 79.2207 278.921 78.8792 278.743 78.449C279.48 77.7838 280.317 77.207 281.235 76.7812C281.613 77.1538 281.786 77.7082 281.64 78.2582Z" fill="#8A912D"/>
<path d="M279.758 81.4918C280.139 81.4918 280.447 81.184 280.447 80.8044C280.447 80.4248 280.139 80.117 279.758 80.117C279.38 80.117 279.072 80.4248 279.072 80.8044C279.072 81.184 279.38 81.4918 279.758 81.4918Z" fill="#8A912D"/>
<path d="M284.739 81.82C285.214 81.82 285.6 81.4347 285.6 80.9595C285.6 80.4843 285.214 80.099 284.739 80.099C284.264 80.099 283.878 80.4843 283.878 80.9595C283.878 81.4347 284.264 81.82 284.739 81.82Z" fill="#737525"/>
<path d="M261.815 73.8168C262.182 73.8168 262.48 73.519 262.48 73.1515C262.48 72.7843 262.182 72.4862 261.815 72.4862C261.447 72.4862 261.15 72.7843 261.15 73.1515C261.15 73.519 261.447 73.8168 261.815 73.8168Z" fill="#8A912D"/>
<path d="M278.985 104.742C279.779 104.742 280.424 104.099 280.424 103.305C280.424 102.512 279.779 101.868 278.985 101.868C278.191 101.868 277.549 102.512 277.549 103.305C277.549 104.099 278.191 104.742 278.985 104.742Z" fill="#D8DB3B"/>
<path d="M281.035 101.471C281.432 101.471 281.756 101.149 281.756 100.752C281.756 100.355 281.432 100.034 281.035 100.034C280.638 100.034 280.317 100.355 280.317 100.752C280.317 101.149 280.638 101.471 281.035 101.471Z" fill="#8A912D"/>
<path d="M285.188 103.735C284.807 103.885 284.461 104.156 284.089 104.462C283.829 104.298 283.697 103.983 283.781 103.673C283.883 103.287 284.278 103.056 284.661 103.158C284.945 103.233 285.144 103.464 285.188 103.735Z" fill="#8A912D"/>
<path d="M77.4938 149.612C88.3934 149.612 97.2292 140.778 97.2292 129.881C97.2292 118.983 88.3934 110.149 77.4938 110.149C66.5942 110.149 57.7584 118.983 57.7584 129.881C57.7584 140.778 66.5942 149.612 77.4938 149.612Z" fill="#333333"/>
<path d="M77.4939 143.517C85.0275 143.517 91.1343 137.411 91.1343 129.879C91.1343 122.347 85.0275 116.241 77.4939 116.241C69.9606 116.241 63.8535 122.347 63.8535 129.879C63.8535 137.411 69.9606 143.517 77.4939 143.517Z" fill="#58595B"/>
<path d="M73.9053 127.987C81.646 137.358 92.6028 152.167 102.206 172.201C114.818 198.492 113.239 209.043 125.167 223.098C138.217 238.484 160.197 249.532 182.044 249.093C215.096 248.427 246.551 221.497 257.57 182.065C255.818 181.843 254.061 181.621 252.309 181.399C242.19 218.167 212.887 243.416 181.787 244.267C161.319 244.826 140.701 234.794 128.29 220.428C116.357 206.617 118.06 195.814 106.598 171.025C97.1496 150.602 85.6695 135.62 77.2234 125.969C76.1145 126.643 75.0099 127.313 73.901 127.987H73.9053Z" fill="#6D6E71"/>
<path d="M234.095 64.7799C230.48 69.8495 218.081 88.4813 218.525 115.243C219.146 153.017 244.803 174.168 247.598 176.386C246.946 177.499 246.294 178.608 245.646 179.721C242.838 177.517 215.748 155.43 215.185 115.806C214.781 87.2175 228.439 67.5342 232.161 62.5003C232.809 63.2631 233.456 64.0215 234.1 64.7845L234.095 64.7799Z" fill="#6D6E71"/>
<path d="M77.2457 135.788C80.4795 135.788 83.101 133.167 83.101 129.934C83.101 126.7 80.4795 124.079 77.2457 124.079C74.0117 124.079 71.3903 126.7 71.3903 129.934C71.3903 133.167 74.0117 135.788 77.2457 135.788Z" fill="#818284"/>
<path d="M237.291 59.8788L232.458 61.336C231.398 61.6557 230.797 62.7741 231.117 63.8341L231.975 66.6791C232.295 67.7391 233.414 68.3393 234.474 68.0196L239.307 66.5624C240.367 66.2427 240.967 65.1244 240.648 64.0644L239.79 61.2194C239.47 60.1594 238.351 59.5592 237.291 59.8788Z" fill="#6D6E71"/>
<path d="M316.915 80.4381C318.373 86.4921 322.92 108.402 312.517 133.065C297.839 167.877 266.136 177.922 262.716 178.938C262.907 180.211 263.093 181.484 263.284 182.761C266.713 181.763 300.094 171.39 315.406 134.835C326.457 108.464 321.132 85.1083 319.561 79.0455C318.678 79.5112 317.792 79.9727 316.91 80.4381H316.915Z" fill="#6D6E71"/>
<path d="M311.51 80.1304L315.549 83.1587C316.435 83.8229 317.69 83.6434 318.355 82.7578L320.139 80.3804C320.803 79.4948 320.623 78.2382 319.737 77.5737L315.7 74.5457C314.812 73.8812 313.557 74.0608 312.892 74.9467L311.108 77.3237C310.444 78.2096 310.624 79.4659 311.51 80.1304Z" fill="#6D6E71"/>
<path d="M270.092 179.189L260.986 186.507L256.426 190.17L249.204 188.64L246.52 183.442L241.166 173.06L270.092 179.189Z" fill="#58595B"/>
<path d="M258.985 47.0446L258.475 46.9482L255.848 60.864L256.358 60.9601L258.985 47.0446Z" fill="#6D6E71"/>
<path d="M258.518 46.9695L258.421 47.4795L272.341 50.1063L272.435 49.5963L258.518 46.9695Z" fill="#6D6E71"/>
<path d="M298.083 68.8759L298.593 68.969L301.131 55.0368L300.621 54.9436L298.083 68.8759Z" fill="#6D6E71"/>
<path d="M287.199 52.6289L287.107 53.1392L301.042 55.6761L301.133 55.1658L287.199 52.6289Z" fill="#6D6E71"/>
<path d="M246.699 109.075L246.19 108.976L243.495 122.879L244.004 122.977L246.699 109.075Z" fill="#6D6E71"/>
<path d="M257.505 125.716L257.604 125.207L243.699 122.512L243.6 123.022L257.505 125.716Z" fill="#6D6E71"/>
<path d="M285.571 131.004L286.081 131.106L288.868 117.222L288.36 117.12L285.571 131.004Z" fill="#6D6E71"/>
<path d="M286.025 131.092L286.124 130.584L272.238 127.797L272.136 128.305L286.025 131.092Z" fill="#6D6E71"/>
</svg>
